<?xml version="1.0" encoding="UTF-8" standalone="no"?>
<!DOCTYPE svg PUBLIC "-//W3C//DTD SVG 1.1//EN"
 "http://www.w3.org/Graphics/SVG/1.1/DTD/svg11.dtd">
<!-- Generated by graphviz version 2.43.0 (0)
 -->
<!-- Title: HypreDirectSolver.h Pages: 1 -->
<svg width="2635pt" height="247pt"
 viewBox="0.00 0.00 2634.50 247.00" xmlns="http://www.w3.org/2000/svg" xmlns:xlink="http://www.w3.org/1999/xlink">
<g id="graph0" class="graph" transform="scale(1 1) rotate(0) translate(4 243)">
<title>HypreDirectSolver.h</title>
<!-- Node1 -->
<g id="Node000001" class="node">
<title>Node1</title>
<g id="a_Node000001"><a xlink:title=" ">
<polygon fill="#999999" stroke="#666666" points="2039.5,-239 1925.5,-239 1925.5,-220 2039.5,-220 2039.5,-239"/>
<text text-anchor="middle" x="1982.5" y="-227" font-family="Helvetica,sans-Serif" font-size="10.00">HypreDirectSolver.h</text>
</a>
</g>
</g>
<!-- Node2 -->
<g id="Node000002" class="node">
<title>Node2</title>
<g id="a_Node000002"><a xlink:href="_linear_solver_8h.html" target="_top" xlink:title=" ">
<polygon fill="white" stroke="#666666" points="490.5,-184 404.5,-184 404.5,-165 490.5,-165 490.5,-184"/>
<text text-anchor="middle" x="447.5" y="-172" font-family="Helvetica,sans-Serif" font-size="10.00">LinearSolver.h</text>
</a>
</g>
</g>
<!-- Node1&#45;&gt;Node2 -->
<g id="edge1_Node000001_Node000002" class="edge">
<title>Node1&#45;&gt;Node2</title>
<g id="a_edge1_Node000001_Node000002"><a xlink:title=" ">
<path fill="none" stroke="#63b8ff" d="M1925.13,-226.52C1681.65,-218.11 735.61,-185.45 500.58,-177.33"/>
<polygon fill="#63b8ff" stroke="#63b8ff" points="500.69,-173.83 490.58,-176.99 500.45,-180.83 500.69,-173.83"/>
</a>
</g>
</g>
<!-- Node22 -->
<g id="Node000022" class="node">
<title>Node22</title>
<g id="a_Node000022"><a xlink:href="_x_s_d_k_hypre_interface_8h.html" target="_top" xlink:title=" ">
<polygon fill="white" stroke="#666666" points="2113,-184 1988,-184 1988,-165 2113,-165 2113,-184"/>
<text text-anchor="middle" x="2050.5" y="-172" font-family="Helvetica,sans-Serif" font-size="10.00">XSDKHypreInterface.h</text>
</a>
</g>
</g>
<!-- Node1&#45;&gt;Node22 -->
<g id="edge22_Node000001_Node000022" class="edge">
<title>Node1&#45;&gt;Node22</title>
<g id="a_edge22_Node000001_Node000022"><a xlink:title=" ">
<path fill="none" stroke="#63b8ff" d="M1993.43,-219.98C2003.58,-212.07 2018.92,-200.11 2031.15,-190.58"/>
<polygon fill="#63b8ff" stroke="#63b8ff" points="2033.64,-193.08 2039.38,-184.17 2029.34,-187.56 2033.64,-193.08"/>
</a>
</g>
</g>
<!-- Node28 -->
<g id="Node000028" class="node">
<title>Node28</title>
<g id="a_Node000028"><a xlink:title=" ">
<polygon fill="#e0e0e0" stroke="#999999" points="1661.5,-129 1569.5,-129 1569.5,-110 1661.5,-110 1661.5,-129"/>
<text text-anchor="middle" x="1615.5" y="-117" font-family="Helvetica,sans-Serif" font-size="10.00">HYPRE_config.h</text>
</a>
</g>
</g>
<!-- Node1&#45;&gt;Node28 -->
<g id="edge38_Node000001_Node000028" class="edge">
<title>Node1&#45;&gt;Node28</title>
<g id="a_edge38_Node000001_Node000028"><a xlink:title=" ">
<path fill="none" stroke="#63b8ff" d="M1953.4,-219.94C1887.82,-200.64 1728.47,-153.74 1654.47,-131.97"/>
<polygon fill="#63b8ff" stroke="#63b8ff" points="1655.19,-128.53 1644.61,-129.07 1653.21,-135.25 1655.19,-128.53"/>
</a>
</g>
</g>
<!-- Node29 -->
<g id="Node000029" class="node">
<title>Node29</title>
<g id="a_Node000029"><a xlink:title=" ">
<polygon fill="#e0e0e0" stroke="#999999" points="1769,-129 1680,-129 1680,-110 1769,-110 1769,-129"/>
<text text-anchor="middle" x="1724.5" y="-117" font-family="Helvetica,sans-Serif" font-size="10.00">HYPRE_IJ_mv.h</text>
</a>
</g>
</g>
<!-- Node1&#45;&gt;Node29 -->
<g id="edge39_Node000001_Node000029" class="edge">
<title>Node1&#45;&gt;Node29</title>
<g id="a_edge39_Node000001_Node000029"><a xlink:title=" ">
<path fill="none" stroke="#63b8ff" d="M1961.82,-219.84C1916.33,-200.8 1807.39,-155.2 1754.43,-133.03"/>
<polygon fill="#63b8ff" stroke="#63b8ff" points="1755.49,-129.68 1744.92,-129.05 1752.79,-136.14 1755.49,-129.68"/>
</a>
</g>
</g>
<!-- Node30 -->
<g id="Node000030" class="node">
<title>Node30</title>
<g id="a_Node000030"><a xlink:title=" ">
<polygon fill="#e0e0e0" stroke="#999999" points="1894,-129 1787,-129 1787,-110 1894,-110 1894,-129"/>
<text text-anchor="middle" x="1840.5" y="-117" font-family="Helvetica,sans-Serif" font-size="10.00">HYPRE_parcsr_ls.h</text>
</a>
</g>
</g>
<!-- Node1&#45;&gt;Node30 -->
<g id="edge40_Node000001_Node000030" class="edge">
<title>Node1&#45;&gt;Node30</title>
<g id="a_edge40_Node000001_Node000030"><a xlink:title=" ">
<path fill="none" stroke="#63b8ff" d="M1970.88,-219.66C1946.52,-201.14 1889.91,-158.08 1859.93,-135.28"/>
<polygon fill="#63b8ff" stroke="#63b8ff" points="1861.96,-132.43 1851.88,-129.16 1857.72,-138 1861.96,-132.43"/>
</a>
</g>
</g>
<!-- Node31 -->
<g id="Node000031" class="node">
<title>Node31</title>
<g id="a_Node000031"><a xlink:title=" ">
<polygon fill="#e0e0e0" stroke="#999999" points="2418.5,-129 2362.5,-129 2362.5,-110 2418.5,-110 2418.5,-129"/>
<text text-anchor="middle" x="2390.5" y="-117" font-family="Helvetica,sans-Serif" font-size="10.00">krylov.h</text>
</a>
</g>
</g>
<!-- Node1&#45;&gt;Node31 -->
<g id="edge42_Node000001_Node000031" class="edge">
<title>Node1&#45;&gt;Node31</title>
<g id="a_edge42_Node000001_Node000031"><a xlink:title=" ">
<path fill="none" stroke="#63b8ff" d="M2014.86,-219.94C2089.26,-200.24 2272.25,-151.8 2352.14,-130.65"/>
<polygon fill="#63b8ff" stroke="#63b8ff" points="2353.49,-133.92 2362.26,-127.97 2351.7,-127.15 2353.49,-133.92"/>
</a>
</g>
</g>
<!-- Node34 -->
<g id="Node000034" class="node">
<title>Node34</title>
<g id="a_Node000034"><a xlink:title=" ">
<polygon fill="#e0e0e0" stroke="#999999" points="2550,-129 2437,-129 2437,-110 2550,-110 2550,-129"/>
<text text-anchor="middle" x="2493.5" y="-117" font-family="Helvetica,sans-Serif" font-size="10.00">HYPRE_parcsr_mv.h</text>
</a>
</g>
</g>
<!-- Node1&#45;&gt;Node34 -->
<g id="edge41_Node000001_Node000034" class="edge">
<title>Node1&#45;&gt;Node34</title>
<g id="a_edge41_Node000001_Node000034"><a xlink:title=" ">
<path fill="none" stroke="#63b8ff" d="M2025.14,-219.95C2069.11,-211.1 2139.64,-196.81 2200.5,-184 2286.51,-165.9 2386.53,-144.05 2444.66,-131.27"/>
<polygon fill="#63b8ff" stroke="#63b8ff" points="2445.65,-134.64 2454.67,-129.07 2444.15,-127.8 2445.65,-134.64"/>
</a>
</g>
</g>
<!-- Node35 -->
<g id="Node000035" class="node">
<title>Node35</title>
<g id="a_Node000035"><a xlink:title=" ">
<polygon fill="#e0e0e0" stroke="#999999" points="2626.5,-129 2568.5,-129 2568.5,-110 2626.5,-110 2626.5,-129"/>
<text text-anchor="middle" x="2597.5" y="-117" font-family="Helvetica,sans-Serif" font-size="10.00">HYPRE.h</text>
</a>
</g>
</g>
<!-- Node1&#45;&gt;Node35 -->
<g id="edge43_Node000001_Node000035" class="edge">
<title>Node1&#45;&gt;Node35</title>
<g id="a_edge43_Node000001_Node000035"><a xlink:title=" ">
<path fill="none" stroke="#63b8ff" d="M2038.41,-220C2139.98,-204.31 2361.72,-168.91 2558.53,-129.13"/>
<polygon fill="#63b8ff" stroke="#63b8ff" points="2559.37,-132.53 2568.48,-127.11 2557.98,-125.67 2559.37,-132.53"/>
</a>
</g>
</g>
<!-- Node3 -->
<g id="Node000003" class="node">
<title>Node3</title>
<g id="a_Node000003"><a xlink:href="_linear_solver_types_8h.html" target="_top" xlink:title=" ">
<polygon fill="white" stroke="#666666" points="930.5,-129 816.5,-129 816.5,-110 930.5,-110 930.5,-129"/>
<text text-anchor="middle" x="873.5" y="-117" font-family="Helvetica,sans-Serif" font-size="10.00">LinearSolverTypes.h</text>
</a>
</g>
</g>
<!-- Node2&#45;&gt;Node3 -->
<g id="edge2_Node000002_Node000003" class="edge">
<title>Node2&#45;&gt;Node3</title>
<g id="a_edge2_Node000002_Node000003"><a xlink:title=" ">
<path fill="none" stroke="#63b8ff" d="M490.69,-168.13C565.06,-158.87 717.8,-139.87 806.21,-128.87"/>
<polygon fill="#63b8ff" stroke="#63b8ff" points="806.91,-132.31 816.4,-127.6 806.05,-125.37 806.91,-132.31"/>
</a>
</g>
</g>
<!-- Node8 -->
<g id="Node000008" class="node">
<title>Node8</title>
<g id="a_Node000008"><a xlink:title=" ">
<polygon fill="#e0e0e0" stroke="#999999" points="704.5,-19 604.5,-19 604.5,0 704.5,0 704.5,-19"/>
<text text-anchor="middle" x="654.5" y="-7" font-family="Helvetica,sans-Serif" font-size="10.00">Kokkos_Core.hpp</text>
</a>
</g>
</g>
<!-- Node2&#45;&gt;Node8 -->
<g id="edge18_Node000002_Node000008" class="edge">
<title>Node2&#45;&gt;Node8</title>
<g id="a_edge18_Node000002_Node000008"><a xlink:title=" ">
<path fill="none" stroke="#63b8ff" d="M446,-164.99C442.73,-143.46 437.43,-86.29 466.5,-55 483.71,-36.48 545.86,-24.34 594.05,-17.49"/>
<polygon fill="#63b8ff" stroke="#63b8ff" points="594.67,-20.93 604.1,-16.1 593.71,-14 594.67,-20.93"/>
</a>
</g>
</g>
<!-- Node15 -->
<g id="Node000015" class="node">
<title>Node15</title>
<g id="a_Node000015"><a xlink:href="_linear_solver_config_8h.html" target="_top" xlink:title=" ">
<polygon fill="white" stroke="#666666" points="1551,-129 1434,-129 1434,-110 1551,-110 1551,-129"/>
<text text-anchor="middle" x="1492.5" y="-117" font-family="Helvetica,sans-Serif" font-size="10.00">LinearSolverConfig.h</text>
</a>
</g>
</g>
<!-- Node2&#45;&gt;Node15 -->
<g id="edge14_Node000002_Node000015" class="edge">
<title>Node2&#45;&gt;Node15</title>
<g id="a_edge14_Node000002_Node000015"><a xlink:title=" ">
<path fill="none" stroke="#63b8ff" d="M490.74,-171.31C652.78,-163.09 1224.84,-134.08 1423.74,-123.99"/>
<polygon fill="#63b8ff" stroke="#63b8ff" points="1423.96,-127.48 1433.77,-123.48 1423.6,-120.49 1423.96,-127.48"/>
</a>
</g>
</g>
<!-- Node19 -->
<g id="Node000019" class="node">
<title>Node19</title>
<g id="a_Node000019"><a xlink:title=" ">
<polygon fill="#e0e0e0" stroke="#999999" points="169,-129 0,-129 0,-110 169,-110 169,-129"/>
<text text-anchor="middle" x="84.5" y="-117" font-family="Helvetica,sans-Serif" font-size="10.00">Teuchos_GlobalMPISession.hpp</text>
</a>
</g>
</g>
<!-- Node2&#45;&gt;Node19 -->
<g id="edge19_Node000002_Node000019" class="edge">
<title>Node2&#45;&gt;Node19</title>
<g id="a_edge19_Node000002_Node000019"><a xlink:title=" ">
<path fill="none" stroke="#63b8ff" d="M404.43,-167.21C342.28,-158.14 226.81,-141.28 152.92,-130.49"/>
<polygon fill="#63b8ff" stroke="#63b8ff" points="153.18,-126.99 142.78,-129.01 152.17,-133.92 153.18,-126.99"/>
</a>
</g>
</g>
<!-- Node20 -->
<g id="Node000020" class="node">
<title>Node20</title>
<g id="a_Node000020"><a xlink:title=" ">
<polygon fill="#e0e0e0" stroke="#999999" points="357.5,-129 187.5,-129 187.5,-110 357.5,-110 357.5,-129"/>
<text text-anchor="middle" x="272.5" y="-117" font-family="Helvetica,sans-Serif" font-size="10.00">Teuchos_oblackholestream.hpp</text>
</a>
</g>
</g>
<!-- Node2&#45;&gt;Node20 -->
<g id="edge20_Node000002_Node000020" class="edge">
<title>Node2&#45;&gt;Node20</title>
<g id="a_edge20_Node000002_Node000020"><a xlink:title=" ">
<path fill="none" stroke="#63b8ff" d="M419.38,-164.98C389.88,-156.05 343.31,-141.94 310.53,-132.02"/>
<polygon fill="#63b8ff" stroke="#63b8ff" points="311.42,-128.63 300.84,-129.08 309.39,-135.33 311.42,-128.63"/>
</a>
</g>
</g>
<!-- Node21 -->
<g id="Node000021" class="node">
<title>Node21</title>
<g id="a_Node000021"><a xlink:title=" ">
<polygon fill="#e0e0e0" stroke="#999999" points="419.5,-129 375.5,-129 375.5,-110 419.5,-110 419.5,-129"/>
<text text-anchor="middle" x="397.5" y="-117" font-family="Helvetica,sans-Serif" font-size="10.00">limits</text>
</a>
</g>
</g>
<!-- Node2&#45;&gt;Node21 -->
<g id="edge21_Node000002_Node000021" class="edge">
<title>Node2&#45;&gt;Node21</title>
<g id="a_edge21_Node000002_Node000021"><a xlink:title=" ">
<path fill="none" stroke="#63b8ff" d="M439.24,-164.75C432.04,-157.11 421.39,-145.82 412.65,-136.56"/>
<polygon fill="#63b8ff" stroke="#63b8ff" points="415.01,-133.96 405.6,-129.09 409.92,-138.76 415.01,-133.96"/>
</a>
</g>
</g>
<!-- Node4 -->
<g id="Node000004" class="node">
<title>Node4</title>
<g id="a_Node000004"><a xlink:href="_kokkos_interface_8h.html" target="_top" xlink:title=" ">
<polygon fill="white" stroke="#666666" points="1123.5,-74 1019.5,-74 1019.5,-55 1123.5,-55 1123.5,-74"/>
<text text-anchor="middle" x="1071.5" y="-62" font-family="Helvetica,sans-Serif" font-size="10.00">KokkosInterface.h</text>
</a>
</g>
</g>
<!-- Node3&#45;&gt;Node4 -->
<g id="edge3_Node000003_Node000004" class="edge">
<title>Node3&#45;&gt;Node4</title>
<g id="a_edge3_Node000003_Node000004"><a xlink:title=" ">
<path fill="none" stroke="#63b8ff" d="M905.31,-109.98C938.99,-100.97 992.3,-86.7 1029.42,-76.76"/>
<polygon fill="#63b8ff" stroke="#63b8ff" points="1030.68,-80.05 1039.44,-74.08 1028.87,-73.29 1030.68,-80.05"/>
</a>
</g>
</g>
<!-- Node9 -->
<g id="Node000009" class="node">
<title>Node9</title>
<g id="a_Node000009"><a xlink:title=" ">
<polygon fill="#e0e0e0" stroke="#999999" points="1319.5,-74 1141.5,-74 1141.5,-55 1319.5,-55 1319.5,-74"/>
<text text-anchor="middle" x="1230.5" y="-62" font-family="Helvetica,sans-Serif" font-size="10.00">Tpetra_Details_DefaultTypes.hpp</text>
</a>
</g>
</g>
<!-- Node3&#45;&gt;Node9 -->
<g id="edge8_Node000003_Node000009" class="edge">
<title>Node3&#45;&gt;Node9</title>
<g id="a_edge8_Node000003_Node000009"><a xlink:title=" ">
<path fill="none" stroke="#63b8ff" d="M930.86,-109.98C994.13,-100.59 1095.86,-85.49 1162.94,-75.53"/>
<polygon fill="#63b8ff" stroke="#63b8ff" points="1163.61,-78.97 1172.99,-74.04 1162.58,-72.04 1163.61,-78.97"/>
</a>
</g>
</g>
<!-- Node10 -->
<g id="Node000010" class="node">
<title>Node10</title>
<g id="a_Node000010"><a xlink:title=" ">
<polygon fill="#e0e0e0" stroke="#999999" points="1457,-74 1338,-74 1338,-55 1457,-55 1457,-74"/>
<text text-anchor="middle" x="1397.5" y="-62" font-family="Helvetica,sans-Serif" font-size="10.00">Tpetra_CrsGraph.hpp</text>
</a>
</g>
</g>
<!-- Node3&#45;&gt;Node10 -->
<g id="edge9_Node000003_Node000010" class="edge">
<title>Node3&#45;&gt;Node10</title>
<g id="a_edge9_Node000003_Node000010"><a xlink:title=" ">
<path fill="none" stroke="#63b8ff" d="M930.65,-113.37C1014.98,-105.71 1177.98,-90.5 1327.39,-74.1"/>
<polygon fill="#63b8ff" stroke="#63b8ff" points="1328.12,-77.54 1337.67,-72.96 1327.35,-70.58 1328.12,-77.54"/>
</a>
</g>
</g>
<!-- Node11 -->
<g id="Node000011" class="node">
<title>Node11</title>
<g id="a_Node000011"><a xlink:title=" ">
<polygon fill="#e0e0e0" stroke="#999999" points="597.5,-74 475.5,-74 475.5,-55 597.5,-55 597.5,-74"/>
<text text-anchor="middle" x="536.5" y="-62" font-family="Helvetica,sans-Serif" font-size="10.00">Tpetra_CrsMatrix.hpp</text>
</a>
</g>
</g>
<!-- Node3&#45;&gt;Node11 -->
<g id="edge10_Node000003_Node000011" class="edge">
<title>Node3&#45;&gt;Node11</title>
<g id="a_edge10_Node000003_Node000011"><a xlink:title=" ">
<path fill="none" stroke="#63b8ff" d="M819.36,-109.98C759.87,-100.63 664.39,-85.61 601.06,-75.65"/>
<polygon fill="#63b8ff" stroke="#63b8ff" points="601.21,-72.13 590.79,-74.04 600.12,-79.05 601.21,-72.13"/>
</a>
</g>
</g>
<!-- Node12 -->
<g id="Node000012" class="node">
<title>Node12</title>
<g id="a_Node000012"><a xlink:title=" ">
<polygon fill="#e0e0e0" stroke="#999999" points="719.5,-74 615.5,-74 615.5,-55 719.5,-55 719.5,-74"/>
<text text-anchor="middle" x="667.5" y="-62" font-family="Helvetica,sans-Serif" font-size="10.00">Tpetra_Vector.hpp</text>
</a>
</g>
</g>
<!-- Node3&#45;&gt;Node12 -->
<g id="edge11_Node000003_Node000012" class="edge">
<title>Node3&#45;&gt;Node12</title>
<g id="a_edge11_Node000003_Node000012"><a xlink:title=" ">
<path fill="none" stroke="#63b8ff" d="M840.4,-109.98C805.22,-100.93 749.43,-86.58 710.78,-76.64"/>
<polygon fill="#63b8ff" stroke="#63b8ff" points="711.41,-73.18 700.86,-74.08 709.67,-79.96 711.41,-73.18"/>
</a>
</g>
</g>
<!-- Node13 -->
<g id="Node000013" class="node">
<title>Node13</title>
<g id="a_Node000013"><a xlink:title=" ">
<polygon fill="#e0e0e0" stroke="#999999" points="867,-74 738,-74 738,-55 867,-55 867,-74"/>
<text text-anchor="middle" x="802.5" y="-62" font-family="Helvetica,sans-Serif" font-size="10.00">Tpetra_MultiVector.hpp</text>
</a>
</g>
</g>
<!-- Node3&#45;&gt;Node13 -->
<g id="edge12_Node000003_Node000013" class="edge">
<title>Node3&#45;&gt;Node13</title>
<g id="a_edge12_Node000003_Node000013"><a xlink:title=" ">
<path fill="none" stroke="#63b8ff" d="M862.09,-109.98C851.39,-102 835.16,-89.88 822.34,-80.31"/>
<polygon fill="#63b8ff" stroke="#63b8ff" points="824.22,-77.35 814.11,-74.17 820.03,-82.96 824.22,-77.35"/>
</a>
</g>
</g>
<!-- Node14 -->
<g id="Node000014" class="node">
<title>Node14</title>
<g id="a_Node000014"><a xlink:title=" ">
<polygon fill="#e0e0e0" stroke="#999999" points="1001.5,-74 885.5,-74 885.5,-55 1001.5,-55 1001.5,-74"/>
<text text-anchor="middle" x="943.5" y="-62" font-family="Helvetica,sans-Serif" font-size="10.00">Tpetra_Operator.hpp</text>
</a>
</g>
</g>
<!-- Node3&#45;&gt;Node14 -->
<g id="edge13_Node000003_Node000014" class="edge">
<title>Node3&#45;&gt;Node14</title>
<g id="a_edge13_Node000003_Node000014"><a xlink:title=" ">
<path fill="none" stroke="#63b8ff" d="M884.75,-109.98C895.3,-102 911.3,-89.88 923.94,-80.31"/>
<polygon fill="#63b8ff" stroke="#63b8ff" points="926.19,-83 932.05,-74.17 921.96,-77.42 926.19,-83"/>
</a>
</g>
</g>
<!-- Node5 -->
<g id="Node000005" class="node">
<title>Node5</title>
<g id="a_Node000005"><a xlink:title=" ">
<polygon fill="#e0e0e0" stroke="#999999" points="983,-19 930,-19 930,0 983,0 983,-19"/>
<text text-anchor="middle" x="956.5" y="-7" font-family="Helvetica,sans-Serif" font-size="10.00">cstddef</text>
</a>
</g>
</g>
<!-- Node4&#45;&gt;Node5 -->
<g id="edge4_Node000004_Node000005" class="edge">
<title>Node4&#45;&gt;Node5</title>
<g id="a_edge4_Node000004_Node000005"><a xlink:title=" ">
<path fill="none" stroke="#63b8ff" d="M1053.02,-54.98C1034.52,-46.46 1005.82,-33.23 984.52,-23.41"/>
<polygon fill="#63b8ff" stroke="#63b8ff" points="985.86,-20.18 975.31,-19.17 982.93,-26.53 985.86,-20.18"/>
</a>
</g>
</g>
<!-- Node6 -->
<g id="Node000006" class="node">
<title>Node6</title>
<g id="a_Node000006"><a xlink:title=" ">
<polygon fill="#e0e0e0" stroke="#999999" points="1142,-19 1001,-19 1001,0 1142,0 1142,-19"/>
<text text-anchor="middle" x="1071.5" y="-7" font-family="Helvetica,sans-Serif" font-size="10.00">stk_mesh/base/Entity.hpp</text>
</a>
</g>
</g>
<!-- Node4&#45;&gt;Node6 -->
<g id="edge5_Node000004_Node000006" class="edge">
<title>Node4&#45;&gt;Node6</title>
<g id="a_edge5_Node000004_Node000006"><a xlink:title=" ">
<path fill="none" stroke="#63b8ff" d="M1071.5,-54.75C1071.5,-47.8 1071.5,-37.85 1071.5,-29.13"/>
<polygon fill="#63b8ff" stroke="#63b8ff" points="1075,-29.09 1071.5,-19.09 1068,-29.09 1075,-29.09"/>
</a>
</g>
</g>
<!-- Node7 -->
<g id="Node000007" class="node">
<title>Node7</title>
<g id="a_Node000007"><a xlink:title=" ">
<polygon fill="#e0e0e0" stroke="#999999" points="1273,-19 1160,-19 1160,0 1273,0 1273,-19"/>
<text text-anchor="middle" x="1216.5" y="-7" font-family="Helvetica,sans-Serif" font-size="10.00">Kokkos_Macros.hpp</text>
</a>
</g>
</g>
<!-- Node4&#45;&gt;Node7 -->
<g id="edge6_Node000004_Node000007" class="edge">
<title>Node4&#45;&gt;Node7</title>
<g id="a_edge6_Node000004_Node000007"><a xlink:title=" ">
<path fill="none" stroke="#63b8ff" d="M1094.8,-54.98C1118.75,-46.23 1156.28,-32.51 1183.33,-22.62"/>
<polygon fill="#63b8ff" stroke="#63b8ff" points="1184.59,-25.89 1192.78,-19.17 1182.19,-19.32 1184.59,-25.89"/>
</a>
</g>
</g>
<!-- Node4&#45;&gt;Node8 -->
<g id="edge7_Node000004_Node000008" class="edge">
<title>Node4&#45;&gt;Node8</title>
<g id="a_edge7_Node000004_Node000008"><a xlink:title=" ">
<path fill="none" stroke="#63b8ff" d="M1019.26,-56.17C1016.3,-55.77 1013.36,-55.38 1010.5,-55 906.62,-41.27 785.54,-26.37 714.72,-17.76"/>
<polygon fill="#63b8ff" stroke="#63b8ff" points="714.99,-14.27 704.64,-16.54 714.15,-21.22 714.99,-14.27"/>
</a>
</g>
</g>
<!-- Node16 -->
<g id="Node000016" class="node">
<title>Node16</title>
<g id="a_Node000016"><a xlink:title=" ">
<polygon fill="#e0e0e0" stroke="#999999" points="1685.5,-74 1641.5,-74 1641.5,-55 1685.5,-55 1685.5,-74"/>
<text text-anchor="middle" x="1663.5" y="-62" font-family="Helvetica,sans-Serif" font-size="10.00">string</text>
</a>
</g>
</g>
<!-- Node15&#45;&gt;Node16 -->
<g id="edge15_Node000015_Node000016" class="edge">
<title>Node15&#45;&gt;Node16</title>
<g id="a_edge15_Node000015_Node000016"><a xlink:title=" ">
<path fill="none" stroke="#63b8ff" d="M1519.97,-109.98C1550.39,-100.56 1599.35,-85.38 1631.47,-75.43"/>
<polygon fill="#63b8ff" stroke="#63b8ff" points="1632.75,-78.69 1641.27,-72.39 1630.68,-72.01 1632.75,-78.69"/>
</a>
</g>
</g>
<!-- Node17 -->
<g id="Node000017" class="node">
<title>Node17</title>
<g id="a_Node000017"><a xlink:title=" ">
<polygon fill="#e0e0e0" stroke="#999999" points="1624,-74 1475,-74 1475,-55 1624,-55 1624,-74"/>
<text text-anchor="middle" x="1549.5" y="-62" font-family="Helvetica,sans-Serif" font-size="10.00">Teuchos_ParameterList.hpp</text>
</a>
</g>
</g>
<!-- Node15&#45;&gt;Node17 -->
<g id="edge16_Node000015_Node000017" class="edge">
<title>Node15&#45;&gt;Node17</title>
<g id="a_edge16_Node000015_Node000017"><a xlink:title=" ">
<path fill="none" stroke="#63b8ff" d="M1501.66,-109.98C1510,-102.23 1522.53,-90.58 1532.68,-81.14"/>
<polygon fill="#63b8ff" stroke="#63b8ff" points="1535.24,-83.54 1540.18,-74.17 1530.47,-78.42 1535.24,-83.54"/>
</a>
</g>
</g>
<!-- Node18 -->
<g id="Node000018" class="node">
<title>Node18</title>
<g id="a_Node000018"><a xlink:title=" ">
<polygon fill="#e0e0e0" stroke="#999999" points="1916.5,-74 1816.5,-74 1816.5,-55 1916.5,-55 1916.5,-74"/>
<text text-anchor="middle" x="1866.5" y="-62" font-family="Helvetica,sans-Serif" font-size="10.00">Teuchos_RCP.hpp</text>
</a>
</g>
</g>
<!-- Node15&#45;&gt;Node18 -->
<g id="edge17_Node000015_Node000018" class="edge">
<title>Node15&#45;&gt;Node18</title>
<g id="a_edge17_Node000015_Node000018"><a xlink:title=" ">
<path fill="none" stroke="#63b8ff" d="M1551.35,-110.16C1620.95,-100.3 1736.2,-83.97 1806.36,-74.02"/>
<polygon fill="#63b8ff" stroke="#63b8ff" points="1806.96,-77.47 1816.37,-72.6 1805.98,-70.54 1806.96,-77.47"/>
</a>
</g>
</g>
<!-- Node22&#45;&gt;Node18 -->
<g id="edge36_Node000022_Node000018" class="edge">
<title>Node22&#45;&gt;Node18</title>
<g id="a_edge36_Node000022_Node000018"><a xlink:title=" ">
<path fill="none" stroke="#63b8ff" d="M2022.94,-164.95C2000.19,-157.27 1967.54,-144.79 1941.5,-129 1919.1,-115.42 1896.58,-95.28 1882.15,-81.34"/>
<polygon fill="#63b8ff" stroke="#63b8ff" points="1884.6,-78.84 1875.02,-74.31 1879.69,-83.83 1884.6,-78.84"/>
</a>
</g>
</g>
<!-- Node23 -->
<g id="Node000023" class="node">
<title>Node23</title>
<g id="a_Node000023"><a xlink:href="_field_type_def_8h.html" target="_top" xlink:title=" ">
<polygon fill="white" stroke="#666666" points="2344.5,-129 2256.5,-129 2256.5,-110 2344.5,-110 2344.5,-129"/>
<text text-anchor="middle" x="2300.5" y="-117" font-family="Helvetica,sans-Serif" font-size="10.00">FieldTypeDef.h</text>
</a>
</g>
</g>
<!-- Node22&#45;&gt;Node23 -->
<g id="edge23_Node000022_Node000023" class="edge">
<title>Node22&#45;&gt;Node23</title>
<g id="a_edge23_Node000022_Node000023"><a xlink:title=" ">
<path fill="none" stroke="#63b8ff" d="M2090.67,-164.98C2134,-155.8 2203.09,-141.15 2250.06,-131.19"/>
<polygon fill="#63b8ff" stroke="#63b8ff" points="2250.96,-134.58 2260.02,-129.08 2249.51,-127.73 2250.96,-134.58"/>
</a>
</g>
</g>
<!-- Node22&#45;&gt;Node28 -->
<g id="edge28_Node000022_Node000028" class="edge">
<title>Node22&#45;&gt;Node28</title>
<g id="a_edge28_Node000022_Node000028"><a xlink:title=" ">
<path fill="none" stroke="#63b8ff" d="M1987.88,-166.88C1914.62,-158.98 1789.41,-144.97 1671.94,-129.15"/>
<polygon fill="#63b8ff" stroke="#63b8ff" points="1672.07,-125.64 1661.7,-127.77 1671.14,-132.58 1672.07,-125.64"/>
</a>
</g>
</g>
<!-- Node22&#45;&gt;Node29 -->
<g id="edge29_Node000022_Node000029" class="edge">
<title>Node22&#45;&gt;Node29</title>
<g id="a_edge29_Node000022_Node000029"><a xlink:title=" ">
<path fill="none" stroke="#63b8ff" d="M1998.12,-164.98C1938.15,-155.23 1840.34,-139.33 1779.35,-129.42"/>
<polygon fill="#63b8ff" stroke="#63b8ff" points="1779.58,-125.91 1769.15,-127.76 1778.46,-132.82 1779.58,-125.91"/>
</a>
</g>
</g>
<!-- Node22&#45;&gt;Node30 -->
<g id="edge30_Node000022_Node000030" class="edge">
<title>Node22&#45;&gt;Node30</title>
<g id="a_edge30_Node000022_Node000030"><a xlink:title=" ">
<path fill="none" stroke="#63b8ff" d="M2016.76,-164.98C1980.82,-155.91 1923.78,-141.52 1884.37,-131.57"/>
<polygon fill="#63b8ff" stroke="#63b8ff" points="1885.06,-128.14 1874.5,-129.08 1883.34,-134.92 1885.06,-128.14"/>
</a>
</g>
</g>
<!-- Node22&#45;&gt;Node31 -->
<g id="edge31_Node000022_Node000031" class="edge">
<title>Node22&#45;&gt;Node31</title>
<g id="a_edge31_Node000022_Node000031"><a xlink:title=" ">
<path fill="none" stroke="#63b8ff" d="M2113.13,-165.79C2172.35,-158.16 2263.9,-145.5 2352.34,-129.09"/>
<polygon fill="#63b8ff" stroke="#63b8ff" points="2353.08,-132.51 2362.27,-127.23 2351.79,-125.63 2353.08,-132.51"/>
</a>
</g>
</g>
<!-- Node32 -->
<g id="Node000032" class="node">
<title>Node32</title>
<g id="a_Node000032"><a xlink:title=" ">
<polygon fill="#e0e0e0" stroke="#999999" points="2064.5,-129 1950.5,-129 1950.5,-110 2064.5,-110 2064.5,-129"/>
<text text-anchor="middle" x="2007.5" y="-117" font-family="Helvetica,sans-Serif" font-size="10.00">_hypre_parcsr_mv.h</text>
</a>
</g>
</g>
<!-- Node22&#45;&gt;Node32 -->
<g id="edge32_Node000022_Node000032" class="edge">
<title>Node22&#45;&gt;Node32</title>
<g id="a_edge32_Node000022_Node000032"><a xlink:title=" ">
<path fill="none" stroke="#63b8ff" d="M2043.4,-164.75C2037.33,-157.26 2028.41,-146.28 2020.99,-137.13"/>
<polygon fill="#63b8ff" stroke="#63b8ff" points="2023.49,-134.65 2014.47,-129.09 2018.05,-139.06 2023.49,-134.65"/>
</a>
</g>
</g>
<!-- Node33 -->
<g id="Node000033" class="node">
<title>Node33</title>
<g id="a_Node000033"><a xlink:title=" ">
<polygon fill="#e0e0e0" stroke="#999999" points="2172.5,-129 2082.5,-129 2082.5,-110 2172.5,-110 2172.5,-129"/>
<text text-anchor="middle" x="2127.5" y="-117" font-family="Helvetica,sans-Serif" font-size="10.00">_hypre_IJ_mv.h</text>
</a>
</g>
</g>
<!-- Node22&#45;&gt;Node33 -->
<g id="edge33_Node000022_Node000033" class="edge">
<title>Node22&#45;&gt;Node33</title>
<g id="a_edge33_Node000022_Node000033"><a xlink:title=" ">
<path fill="none" stroke="#63b8ff" d="M2062.87,-164.98C2074.59,-156.92 2092.42,-144.65 2106.39,-135.03"/>
<polygon fill="#63b8ff" stroke="#63b8ff" points="2108.65,-137.72 2114.9,-129.17 2104.68,-131.96 2108.65,-137.72"/>
</a>
</g>
</g>
<!-- Node22&#45;&gt;Node34 -->
<g id="edge34_Node000022_Node000034" class="edge">
<title>Node22&#45;&gt;Node34</title>
<g id="a_edge34_Node000022_Node000034"><a xlink:title=" ">
<path fill="none" stroke="#63b8ff" d="M2113.23,-166.3C2185.95,-157.91 2309.7,-143.49 2426.76,-129.08"/>
<polygon fill="#63b8ff" stroke="#63b8ff" points="2427.48,-132.52 2436.98,-127.82 2426.63,-125.57 2427.48,-132.52"/>
</a>
</g>
</g>
<!-- Node22&#45;&gt;Node35 -->
<g id="edge35_Node000022_Node000035" class="edge">
<title>Node22&#45;&gt;Node35</title>
<g id="a_edge35_Node000022_Node000035"><a xlink:title=" ">
<path fill="none" stroke="#63b8ff" d="M2113.11,-170.71C2207.6,-165.9 2392.34,-154.21 2558.23,-129"/>
<polygon fill="#63b8ff" stroke="#63b8ff" points="2558.76,-132.46 2568.12,-127.48 2557.7,-125.54 2558.76,-132.46"/>
</a>
</g>
</g>
<!-- Node36 -->
<g id="Node000036" class="node">
<title>Node36</title>
<g id="a_Node000036"><a xlink:title=" ">
<polygon fill="#e0e0e0" stroke="#999999" points="2238,-129 2191,-129 2191,-110 2238,-110 2238,-129"/>
<text text-anchor="middle" x="2214.5" y="-117" font-family="Helvetica,sans-Serif" font-size="10.00">cmath</text>
</a>
</g>
</g>
<!-- Node22&#45;&gt;Node36 -->
<g id="edge37_Node000022_Node000036" class="edge">
<title>Node22&#45;&gt;Node36</title>
<g id="a_edge37_Node000022_Node000036"><a xlink:title=" ">
<path fill="none" stroke="#63b8ff" d="M2076.85,-164.98C2105.16,-155.84 2150.22,-141.27 2181.02,-131.32"/>
<polygon fill="#63b8ff" stroke="#63b8ff" points="2182.44,-134.54 2190.88,-128.13 2180.29,-127.88 2182.44,-134.54"/>
</a>
</g>
</g>
<!-- Node24 -->
<g id="Node000024" class="node">
<title>Node24</title>
<g id="a_Node000024"><a xlink:title=" ">
<polygon fill="#e0e0e0" stroke="#999999" points="2447,-74 2286,-74 2286,-55 2447,-55 2447,-74"/>
<text text-anchor="middle" x="2366.5" y="-62" font-family="Helvetica,sans-Serif" font-size="10.00">stk_mesh/base/FieldBase.hpp</text>
</a>
</g>
</g>
<!-- Node23&#45;&gt;Node24 -->
<g id="edge24_Node000023_Node000024" class="edge">
<title>Node23&#45;&gt;Node24</title>
<g id="a_edge24_Node000023_Node000024"><a xlink:title=" ">
<path fill="none" stroke="#63b8ff" d="M2311.1,-109.98C2320.96,-102.07 2335.85,-90.11 2347.72,-80.58"/>
<polygon fill="#63b8ff" stroke="#63b8ff" points="2350.1,-83.16 2355.7,-74.17 2345.71,-77.7 2350.1,-83.16"/>
</a>
</g>
</g>
<!-- Node25 -->
<g id="Node000025" class="node">
<title>Node25</title>
<g id="a_Node000025"><a xlink:title=" ">
<polygon fill="#e0e0e0" stroke="#999999" points="2599.5,-74 2465.5,-74 2465.5,-55 2599.5,-55 2599.5,-74"/>
<text text-anchor="middle" x="2532.5" y="-62" font-family="Helvetica,sans-Serif" font-size="10.00">stk_mesh/base/Ngp.hpp</text>
</a>
</g>
</g>
<!-- Node23&#45;&gt;Node25 -->
<g id="edge25_Node000023_Node000025" class="edge">
<title>Node23&#45;&gt;Node25</title>
<g id="a_edge25_Node000023_Node000025"><a xlink:title=" ">
<path fill="none" stroke="#63b8ff" d="M2337.77,-109.98C2377.82,-100.84 2441.57,-86.27 2485.14,-76.32"/>
<polygon fill="#63b8ff" stroke="#63b8ff" points="2485.96,-79.72 2494.93,-74.08 2484.4,-72.9 2485.96,-79.72"/>
</a>
</g>
</g>
<!-- Node26 -->
<g id="Node000026" class="node">
<title>Node26</title>
<g id="a_Node000026"><a xlink:title=" ">
<polygon fill="#e0e0e0" stroke="#999999" points="2185,-74 2028,-74 2028,-55 2185,-55 2185,-74"/>
<text text-anchor="middle" x="2106.5" y="-62" font-family="Helvetica,sans-Serif" font-size="10.00">stk_mesh/base/NgpField.hpp</text>
</a>
</g>
</g>
<!-- Node23&#45;&gt;Node26 -->
<g id="edge26_Node000023_Node000026" class="edge">
<title>Node23&#45;&gt;Node26</title>
<g id="a_edge26_Node000023_Node000026"><a xlink:title=" ">
<path fill="none" stroke="#63b8ff" d="M2269.33,-109.98C2236.34,-100.97 2184.1,-86.7 2147.73,-76.76"/>
<polygon fill="#63b8ff" stroke="#63b8ff" points="2148.48,-73.34 2137.91,-74.08 2146.64,-80.09 2148.48,-73.34"/>
</a>
</g>
</g>
<!-- Node27 -->
<g id="Node000027" class="node">
<title>Node27</title>
<g id="a_Node000027"><a xlink:title=" ">
<polygon fill="#e0e0e0" stroke="#999999" points="2268,-74 2203,-74 2203,-55 2268,-55 2268,-74"/>
<text text-anchor="middle" x="2235.5" y="-62" font-family="Helvetica,sans-Serif" font-size="10.00">functional</text>
</a>
</g>
</g>
<!-- Node23&#45;&gt;Node27 -->
<g id="edge27_Node000023_Node000027" class="edge">
<title>Node23&#45;&gt;Node27</title>
<g id="a_edge27_Node000023_Node000027"><a xlink:title=" ">
<path fill="none" stroke="#63b8ff" d="M2290.06,-109.98C2280.35,-102.07 2265.68,-90.11 2254,-80.58"/>
<polygon fill="#63b8ff" stroke="#63b8ff" points="2256.1,-77.78 2246.13,-74.17 2251.67,-83.2 2256.1,-77.78"/>
</a>
</g>
</g>
</g>
</svg>
