<?xml version="1.0" encoding="UTF-8" standalone="no"?>
<!DOCTYPE svg PUBLIC "-//W3C//DTD SVG 1.1//EN"
 "http://www.w3.org/Graphics/SVG/1.1/DTD/svg11.dtd">
<!-- Generated by graphviz version 2.43.0 (0)
 -->
<!-- Title: MotionPrescribedKernel.C Pages: 1 -->
<svg width="2281pt" height="368pt"
 viewBox="0.00 0.00 2280.50 368.00" xmlns="http://www.w3.org/2000/svg" xmlns:xlink="http://www.w3.org/1999/xlink">
<g id="graph0" class="graph" transform="scale(1 1) rotate(0) translate(4 364)">
<title>MotionPrescribedKernel.C</title>
<!-- Node1 -->
<g id="Node000001" class="node">
<title>Node1</title>
<g id="a_Node000001"><a xlink:title=" ">
<polygon fill="#999999" stroke="#666666" points="1487,-360 1345,-360 1345,-341 1487,-341 1487,-360"/>
<text text-anchor="middle" x="1416" y="-348" font-family="Helvetica,sans-Serif" font-size="10.00">MotionPrescribedKernel.C</text>
</a>
</g>
</g>
<!-- Node2 -->
<g id="Node000002" class="node">
<title>Node2</title>
<g id="a_Node000002"><a xlink:href="_motion_prescribed_kernel_8h.html" target="_top" xlink:title=" ">
<polygon fill="white" stroke="#666666" points="1368.5,-305 1197.5,-305 1197.5,-275 1368.5,-275 1368.5,-305"/>
<text text-anchor="start" x="1205.5" y="-293" font-family="Helvetica,sans-Serif" font-size="10.00">mesh_motion/MotionPrescribed</text>
<text text-anchor="middle" x="1283" y="-282" font-family="Helvetica,sans-Serif" font-size="10.00">Kernel.h</text>
</a>
</g>
</g>
<!-- Node1&#45;&gt;Node2 -->
<g id="edge1_Node000001_Node000002" class="edge">
<title>Node1&#45;&gt;Node2</title>
<g id="a_edge1_Node000001_Node000002"><a xlink:title=" ">
<path fill="none" stroke="#63b8ff" d="M1396.66,-340.99C1377.77,-332.68 1348.42,-319.78 1324.28,-309.16"/>
<polygon fill="#63b8ff" stroke="#63b8ff" points="1325.54,-305.89 1314.98,-305.06 1322.72,-312.29 1325.54,-305.89"/>
</a>
</g>
</g>
<!-- Node3 -->
<g id="Node000003" class="node">
<title>Node3</title>
<g id="a_Node000003"><a xlink:href="_ngp_motion_8h.html" target="_top" xlink:title=" ">
<polygon fill="white" stroke="#666666" points="727.5,-239 648.5,-239 648.5,-220 727.5,-220 727.5,-239"/>
<text text-anchor="middle" x="688" y="-227" font-family="Helvetica,sans-Serif" font-size="10.00">NgpMotion.h</text>
</a>
</g>
</g>
<!-- Node1&#45;&gt;Node3 -->
<g id="edge32_Node000001_Node000003" class="edge">
<title>Node1&#45;&gt;Node3</title>
<g id="a_edge32_Node000001_Node000003"><a xlink:title=" ">
<path fill="none" stroke="#63b8ff" d="M1363.94,-340.99C1229.12,-318.95 869.93,-260.24 737.73,-238.63"/>
<polygon fill="#63b8ff" stroke="#63b8ff" points="737.94,-235.12 727.5,-236.96 736.81,-242.02 737.94,-235.12"/>
</a>
</g>
</g>
<!-- Node26 -->
<g id="Node000026" class="node">
<title>Node26</title>
<g id="a_Node000026"><a xlink:title=" ">
<polygon fill="#e0e0e0" stroke="#999999" points="1432.5,-74 1385.5,-74 1385.5,-55 1432.5,-55 1432.5,-74"/>
<text text-anchor="middle" x="1409" y="-62" font-family="Helvetica,sans-Serif" font-size="10.00">vector</text>
</a>
</g>
</g>
<!-- Node1&#45;&gt;Node26 -->
<g id="edge74_Node000001_Node000026" class="edge">
<title>Node1&#45;&gt;Node26</title>
<g id="a_edge74_Node000001_Node000026"><a xlink:title=" ">
<path fill="none" stroke="#63b8ff" d="M1415.78,-340.69C1414.81,-301.18 1410.83,-139.86 1409.46,-84.36"/>
<polygon fill="#63b8ff" stroke="#63b8ff" points="1412.96,-84.12 1409.21,-74.21 1405.96,-84.29 1412.96,-84.12"/>
</a>
</g>
</g>
<!-- Node29 -->
<g id="Node000029" class="node">
<title>Node29</title>
<g id="a_Node000029"><a xlink:href="_nalu_env_8h.html" target="_top" xlink:title=" ">
<polygon fill="white" stroke="#666666" points="2190.5,-129 2125.5,-129 2125.5,-110 2190.5,-110 2190.5,-129"/>
<text text-anchor="middle" x="2158" y="-117" font-family="Helvetica,sans-Serif" font-size="10.00">NaluEnv.h</text>
</a>
</g>
</g>
<!-- Node1&#45;&gt;Node29 -->
<g id="edge33_Node000001_Node000029" class="edge">
<title>Node1&#45;&gt;Node29</title>
<g id="a_edge33_Node000001_Node000029"><a xlink:title=" ">
<path fill="none" stroke="#63b8ff" d="M1443.73,-340.94C1557.71,-305.77 1990.17,-172.3 2120.56,-132.05"/>
<polygon fill="#63b8ff" stroke="#63b8ff" points="2121.6,-135.4 2130.13,-129.1 2119.54,-128.71 2121.6,-135.4"/>
</a>
</g>
</g>
<!-- Node33 -->
<g id="Node000033" class="node">
<title>Node33</title>
<g id="a_Node000033"><a xlink:href="_nalu_parsing_8h.html" target="_top" xlink:title=" ">
<polygon fill="white" stroke="#666666" points="1713.5,-184 1630.5,-184 1630.5,-165 1713.5,-165 1713.5,-184"/>
<text text-anchor="middle" x="1672" y="-172" font-family="Helvetica,sans-Serif" font-size="10.00">NaluParsing.h</text>
</a>
</g>
</g>
<!-- Node1&#45;&gt;Node33 -->
<g id="edge37_Node000001_Node000033" class="edge">
<title>Node1&#45;&gt;Node33</title>
<g id="a_edge37_Node000001_Node000033"><a xlink:title=" ">
<path fill="none" stroke="#63b8ff" d="M1428.7,-340.87C1469.81,-312.93 1599.62,-224.7 1650.88,-189.85"/>
<polygon fill="#63b8ff" stroke="#63b8ff" points="1652.93,-192.7 1659.23,-184.18 1648.99,-186.91 1652.93,-192.7"/>
</a>
</g>
</g>
<!-- Node44 -->
<g id="Node000044" class="node">
<title>Node44</title>
<g id="a_Node000044"><a xlink:title=" ">
<polygon fill="#e0e0e0" stroke="#999999" points="1835.5,-299.5 1770.5,-299.5 1770.5,-280.5 1835.5,-280.5 1835.5,-299.5"/>
<text text-anchor="middle" x="1803" y="-287.5" font-family="Helvetica,sans-Serif" font-size="10.00">stdexcept</text>
</a>
</g>
</g>
<!-- Node1&#45;&gt;Node44 -->
<g id="edge73_Node000001_Node000044" class="edge">
<title>Node1&#45;&gt;Node44</title>
<g id="a_edge73_Node000001_Node000044"><a xlink:title=" ">
<path fill="none" stroke="#63b8ff" d="M1487.21,-343.51C1556.39,-336.91 1664.15,-324.56 1756,-305 1759.63,-304.23 1763.38,-303.31 1767.11,-302.33"/>
<polygon fill="#63b8ff" stroke="#63b8ff" points="1768.16,-305.67 1776.84,-299.6 1766.27,-298.93 1768.16,-305.67"/>
</a>
</g>
</g>
<!-- Node2&#45;&gt;Node3 -->
<g id="edge2_Node000002_Node000003" class="edge">
<title>Node2&#45;&gt;Node3</title>
<g id="a_edge2_Node000002_Node000003"><a xlink:title=" ">
<path fill="none" stroke="#63b8ff" d="M1197.43,-280.59C1071.21,-268.18 839.11,-245.36 737.66,-235.38"/>
<polygon fill="#63b8ff" stroke="#63b8ff" points="737.97,-231.9 727.68,-234.4 737.29,-238.86 737.97,-231.9"/>
</a>
</g>
</g>
<!-- Node2&#45;&gt;Node26 -->
<g id="edge31_Node000002_Node000026" class="edge">
<title>Node2&#45;&gt;Node26</title>
<g id="a_edge31_Node000002_Node000026"><a xlink:title=" ">
<path fill="none" stroke="#63b8ff" d="M1286.93,-274.99C1296.23,-243.44 1321.77,-165.29 1361,-110 1368.83,-98.96 1379.77,-88.56 1389.22,-80.6"/>
<polygon fill="#63b8ff" stroke="#63b8ff" points="1391.47,-83.28 1397.03,-74.27 1387.06,-77.84 1391.47,-83.28"/>
</a>
</g>
</g>
<!-- Node28 -->
<g id="Node000028" class="node">
<title>Node28</title>
<g id="a_Node000028"><a xlink:title=" ">
<polygon fill="#e0e0e0" stroke="#999999" points="1369,-239 1327,-239 1327,-220 1369,-220 1369,-239"/>
<text text-anchor="middle" x="1348" y="-227" font-family="Helvetica,sans-Serif" font-size="10.00">array</text>
</a>
</g>
</g>
<!-- Node2&#45;&gt;Node28 -->
<g id="edge30_Node000002_Node000028" class="edge">
<title>Node2&#45;&gt;Node28</title>
<g id="a_edge30_Node000002_Node000028"><a xlink:title=" ">
<path fill="none" stroke="#63b8ff" d="M1298.73,-274.84C1308.36,-266.17 1320.69,-255.08 1330.61,-246.15"/>
<polygon fill="#63b8ff" stroke="#63b8ff" points="1333.17,-248.56 1338.26,-239.27 1328.49,-243.35 1333.17,-248.56"/>
</a>
</g>
</g>
<!-- Node4 -->
<g id="Node000004" class="node">
<title>Node4</title>
<g id="a_Node000004"><a xlink:title=" ">
<polygon fill="#e0e0e0" stroke="#999999" points="578,-184 514,-184 514,-165 578,-165 578,-184"/>
<text text-anchor="middle" x="546" y="-172" font-family="Helvetica,sans-Serif" font-size="10.00">algorithm</text>
</a>
</g>
</g>
<!-- Node3&#45;&gt;Node4 -->
<g id="edge3_Node000003_Node000004" class="edge">
<title>Node3&#45;&gt;Node4</title>
<g id="a_edge3_Node000003_Node000004"><a xlink:title=" ">
<path fill="none" stroke="#63b8ff" d="M665.19,-219.98C641.83,-211.27 605.3,-197.63 578.83,-187.75"/>
<polygon fill="#63b8ff" stroke="#63b8ff" points="579.82,-184.39 569.23,-184.17 577.37,-190.95 579.82,-184.39"/>
</a>
</g>
</g>
<!-- Node5 -->
<g id="Node000005" class="node">
<title>Node5</title>
<g id="a_Node000005"><a xlink:title=" ">
<polygon fill="#e0e0e0" stroke="#999999" points="648,-184 596,-184 596,-165 648,-165 648,-184"/>
<text text-anchor="middle" x="622" y="-172" font-family="Helvetica,sans-Serif" font-size="10.00">cassert</text>
</a>
</g>
</g>
<!-- Node3&#45;&gt;Node5 -->
<g id="edge4_Node000003_Node000005" class="edge">
<title>Node3&#45;&gt;Node5</title>
<g id="a_edge4_Node000003_Node000005"><a xlink:title=" ">
<path fill="none" stroke="#63b8ff" d="M677.4,-219.98C667.54,-212.07 652.65,-200.11 640.78,-190.58"/>
<polygon fill="#63b8ff" stroke="#63b8ff" points="642.79,-187.7 632.8,-184.17 638.4,-193.16 642.79,-187.7"/>
</a>
</g>
</g>
<!-- Node6 -->
<g id="Node000006" class="node">
<title>Node6</title>
<g id="a_Node000006"><a xlink:title=" ">
<polygon fill="#e0e0e0" stroke="#999999" points="710,-184 666,-184 666,-165 710,-165 710,-184"/>
<text text-anchor="middle" x="688" y="-172" font-family="Helvetica,sans-Serif" font-size="10.00">cfloat</text>
</a>
</g>
</g>
<!-- Node3&#45;&gt;Node6 -->
<g id="edge5_Node000003_Node000006" class="edge">
<title>Node3&#45;&gt;Node6</title>
<g id="a_edge5_Node000003_Node000006"><a xlink:title=" ">
<path fill="none" stroke="#63b8ff" d="M688,-219.75C688,-212.8 688,-202.85 688,-194.13"/>
<polygon fill="#63b8ff" stroke="#63b8ff" points="691.5,-194.09 688,-184.09 684.5,-194.09 691.5,-194.09"/>
</a>
</g>
</g>
<!-- Node7 -->
<g id="Node000007" class="node">
<title>Node7</title>
<g id="a_Node000007"><a xlink:href="_n_g_p_instance_8h.html" target="_top" xlink:title=" ">
<polygon fill="white" stroke="#666666" points="376,-184 288,-184 288,-165 376,-165 376,-184"/>
<text text-anchor="middle" x="332" y="-172" font-family="Helvetica,sans-Serif" font-size="10.00">NGPInstance.h</text>
</a>
</g>
</g>
<!-- Node3&#45;&gt;Node7 -->
<g id="edge6_Node000003_Node000007" class="edge">
<title>Node3&#45;&gt;Node7</title>
<g id="a_edge6_Node000003_Node000007"><a xlink:title=" ">
<path fill="none" stroke="#63b8ff" d="M648.2,-222.57C584.3,-213.06 458.7,-194.36 386.52,-183.62"/>
<polygon fill="#63b8ff" stroke="#63b8ff" points="386.67,-180.1 376.27,-182.09 385.64,-187.02 386.67,-180.1"/>
</a>
</g>
</g>
<!-- Node14 -->
<g id="Node000014" class="node">
<title>Node14</title>
<g id="a_Node000014"><a xlink:href="_ngp_types_8h.html" target="_top" xlink:title="Nalu&#45;Wind custom types for NGP execution.">
<polygon fill="white" stroke="#666666" points="848,-184 728,-184 728,-165 848,-165 848,-184"/>
<text text-anchor="middle" x="788" y="-172" font-family="Helvetica,sans-Serif" font-size="10.00">ngp_utils/NgpTypes.h</text>
</a>
</g>
</g>
<!-- Node3&#45;&gt;Node14 -->
<g id="edge13_Node000003_Node000014" class="edge">
<title>Node3&#45;&gt;Node14</title>
<g id="a_edge13_Node000003_Node000014"><a xlink:title=" ">
<path fill="none" stroke="#63b8ff" d="M704.07,-219.98C719.86,-211.61 744.22,-198.7 762.63,-188.95"/>
<polygon fill="#63b8ff" stroke="#63b8ff" points="764.44,-191.95 771.64,-184.17 761.17,-185.76 764.44,-191.95"/>
</a>
</g>
</g>
<!-- Node8 -->
<g id="Node000008" class="node">
<title>Node8</title>
<g id="a_Node000008"><a xlink:href="_kokkos_interface_8h.html" target="_top" xlink:title=" ">
<polygon fill="white" stroke="#666666" points="384,-129 280,-129 280,-110 384,-110 384,-129"/>
<text text-anchor="middle" x="332" y="-117" font-family="Helvetica,sans-Serif" font-size="10.00">KokkosInterface.h</text>
</a>
</g>
</g>
<!-- Node7&#45;&gt;Node8 -->
<g id="edge7_Node000007_Node000008" class="edge">
<title>Node7&#45;&gt;Node8</title>
<g id="a_edge7_Node000007_Node000008"><a xlink:title=" ">
<path fill="none" stroke="#63b8ff" d="M332,-164.75C332,-157.8 332,-147.85 332,-139.13"/>
<polygon fill="#63b8ff" stroke="#63b8ff" points="335.5,-139.09 332,-129.09 328.5,-139.09 335.5,-139.09"/>
</a>
</g>
</g>
<!-- Node13 -->
<g id="Node000013" class="node">
<title>Node13</title>
<g id="a_Node000013"><a xlink:title=" ">
<polygon fill="#e0e0e0" stroke="#999999" points="261.5,-129 192.5,-129 192.5,-110 261.5,-110 261.5,-129"/>
<text text-anchor="middle" x="227" y="-117" font-family="Helvetica,sans-Serif" font-size="10.00">type_traits</text>
</a>
</g>
</g>
<!-- Node7&#45;&gt;Node13 -->
<g id="edge12_Node000007_Node000013" class="edge">
<title>Node7&#45;&gt;Node13</title>
<g id="a_edge12_Node000007_Node000013"><a xlink:title=" ">
<path fill="none" stroke="#63b8ff" d="M315.13,-164.98C298.39,-156.54 272.5,-143.47 253.11,-133.68"/>
<polygon fill="#63b8ff" stroke="#63b8ff" points="254.68,-130.55 244.18,-129.17 251.53,-136.8 254.68,-130.55"/>
</a>
</g>
</g>
<!-- Node9 -->
<g id="Node000009" class="node">
<title>Node9</title>
<g id="a_Node000009"><a xlink:title=" ">
<polygon fill="#e0e0e0" stroke="#999999" points="171.5,-74 118.5,-74 118.5,-55 171.5,-55 171.5,-74"/>
<text text-anchor="middle" x="145" y="-62" font-family="Helvetica,sans-Serif" font-size="10.00">cstddef</text>
</a>
</g>
</g>
<!-- Node8&#45;&gt;Node9 -->
<g id="edge8_Node000008_Node000009" class="edge">
<title>Node8&#45;&gt;Node9</title>
<g id="a_edge8_Node000008_Node000009"><a xlink:title=" ">
<path fill="none" stroke="#63b8ff" d="M301.96,-109.98C269.16,-100.69 216.65,-85.81 181.5,-75.85"/>
<polygon fill="#63b8ff" stroke="#63b8ff" points="182.21,-72.41 171.64,-73.05 180.31,-79.14 182.21,-72.41"/>
</a>
</g>
</g>
<!-- Node10 -->
<g id="Node000010" class="node">
<title>Node10</title>
<g id="a_Node000010"><a xlink:title=" ">
<polygon fill="#e0e0e0" stroke="#999999" points="330.5,-74 189.5,-74 189.5,-55 330.5,-55 330.5,-74"/>
<text text-anchor="middle" x="260" y="-62" font-family="Helvetica,sans-Serif" font-size="10.00">stk_mesh/base/Entity.hpp</text>
</a>
</g>
</g>
<!-- Node8&#45;&gt;Node10 -->
<g id="edge9_Node000008_Node000010" class="edge">
<title>Node8&#45;&gt;Node10</title>
<g id="a_edge9_Node000008_Node000010"><a xlink:title=" ">
<path fill="none" stroke="#63b8ff" d="M320.43,-109.98C309.58,-102 293.12,-89.88 280.12,-80.31"/>
<polygon fill="#63b8ff" stroke="#63b8ff" points="281.91,-77.28 271.78,-74.17 277.76,-82.92 281.91,-77.28"/>
</a>
</g>
</g>
<!-- Node11 -->
<g id="Node000011" class="node">
<title>Node11</title>
<g id="a_Node000011"><a xlink:title=" ">
<polygon fill="#e0e0e0" stroke="#999999" points="461.5,-74 348.5,-74 348.5,-55 461.5,-55 461.5,-74"/>
<text text-anchor="middle" x="405" y="-62" font-family="Helvetica,sans-Serif" font-size="10.00">Kokkos_Macros.hpp</text>
</a>
</g>
</g>
<!-- Node8&#45;&gt;Node11 -->
<g id="edge10_Node000008_Node000011" class="edge">
<title>Node8&#45;&gt;Node11</title>
<g id="a_edge10_Node000008_Node000011"><a xlink:title=" ">
<path fill="none" stroke="#63b8ff" d="M343.73,-109.98C354.73,-102 371.42,-89.88 384.6,-80.31"/>
<polygon fill="#63b8ff" stroke="#63b8ff" points="387.02,-82.88 393.06,-74.17 382.91,-77.21 387.02,-82.88"/>
</a>
</g>
</g>
<!-- Node12 -->
<g id="Node000012" class="node">
<title>Node12</title>
<g id="a_Node000012"><a xlink:title=" ">
<polygon fill="#e0e0e0" stroke="#999999" points="100,-74 0,-74 0,-55 100,-55 100,-74"/>
<text text-anchor="middle" x="50" y="-62" font-family="Helvetica,sans-Serif" font-size="10.00">Kokkos_Core.hpp</text>
</a>
</g>
</g>
<!-- Node8&#45;&gt;Node12 -->
<g id="edge11_Node000008_Node000012" class="edge">
<title>Node8&#45;&gt;Node12</title>
<g id="a_edge11_Node000008_Node000012"><a xlink:title=" ">
<path fill="none" stroke="#63b8ff" d="M286.69,-109.98C237.4,-100.72 158.57,-85.9 105.57,-75.94"/>
<polygon fill="#63b8ff" stroke="#63b8ff" points="106.14,-72.49 95.66,-74.08 104.84,-79.37 106.14,-72.49"/>
</a>
</g>
</g>
<!-- Node14&#45;&gt;Node8 -->
<g id="edge24_Node000014_Node000008" class="edge">
<title>Node14&#45;&gt;Node8</title>
<g id="a_edge24_Node000014_Node000008"><a xlink:title=" ">
<path fill="none" stroke="#63b8ff" d="M727.79,-166.05C724.82,-165.7 721.88,-165.34 719,-165 604.44,-151.36 470.71,-136.14 394.23,-127.5"/>
<polygon fill="#63b8ff" stroke="#63b8ff" points="394.61,-124.02 384.28,-126.38 393.83,-130.98 394.61,-124.02"/>
</a>
</g>
</g>
<!-- Node15 -->
<g id="Node000015" class="node">
<title>Node15</title>
<g id="a_Node000015"><a xlink:href="_ngp_mesh_info_8h.html" target="_top" xlink:title="NGP mesh information objects.">
<polygon fill="white" stroke="#666666" points="921.5,-129 784.5,-129 784.5,-110 921.5,-110 921.5,-129"/>
<text text-anchor="middle" x="853" y="-117" font-family="Helvetica,sans-Serif" font-size="10.00">ngp_utils/NgpMeshInfo.h</text>
</a>
</g>
</g>
<!-- Node14&#45;&gt;Node15 -->
<g id="edge14_Node000014_Node000015" class="edge">
<title>Node14&#45;&gt;Node15</title>
<g id="a_edge14_Node000014_Node000015"><a xlink:title=" ">
<path fill="none" stroke="#63b8ff" d="M798.44,-164.98C808.15,-157.07 822.82,-145.11 834.5,-135.58"/>
<polygon fill="#63b8ff" stroke="#63b8ff" points="836.83,-138.2 842.37,-129.17 832.4,-132.78 836.83,-138.2"/>
</a>
</g>
</g>
<!-- Node17 -->
<g id="Node000017" class="node">
<title>Node17</title>
<g id="a_Node000017"><a xlink:title=" ">
<polygon fill="#e0e0e0" stroke="#999999" points="768,-74 608,-74 608,-55 768,-55 768,-74"/>
<text text-anchor="middle" x="688" y="-62" font-family="Helvetica,sans-Serif" font-size="10.00">stk_mesh/base/NgpMesh.hpp</text>
</a>
</g>
</g>
<!-- Node14&#45;&gt;Node17 -->
<g id="edge23_Node000014_Node000017" class="edge">
<title>Node14&#45;&gt;Node17</title>
<g id="a_edge23_Node000014_Node000017"><a xlink:title=" ">
<path fill="none" stroke="#63b8ff" d="M779.82,-164.66C763.03,-146.54 724.49,-104.91 703.07,-81.77"/>
<polygon fill="#63b8ff" stroke="#63b8ff" points="705.38,-79.12 696.02,-74.16 700.24,-83.87 705.38,-79.12"/>
</a>
</g>
</g>
<!-- Node24 -->
<g id="Node000024" class="node">
<title>Node24</title>
<g id="a_Node000024"><a xlink:href="_simd_interface_8h.html" target="_top" xlink:title="STK SIMD Interface.">
<polygon fill="white" stroke="#666666" points="621,-129 527,-129 527,-110 621,-110 621,-129"/>
<text text-anchor="middle" x="574" y="-117" font-family="Helvetica,sans-Serif" font-size="10.00">SimdInterface.h</text>
</a>
</g>
</g>
<!-- Node14&#45;&gt;Node24 -->
<g id="edge25_Node000014_Node000024" class="edge">
<title>Node14&#45;&gt;Node24</title>
<g id="a_edge25_Node000014_Node000024"><a xlink:title=" ">
<path fill="none" stroke="#63b8ff" d="M753.62,-164.98C716.91,-155.89 658.62,-141.46 618.45,-131.51"/>
<polygon fill="#63b8ff" stroke="#63b8ff" points="619.2,-128.09 608.65,-129.08 617.52,-134.88 619.2,-128.09"/>
</a>
</g>
</g>
<!-- Node27 -->
<g id="Node000027" class="node">
<title>Node27</title>
<g id="a_Node000027"><a xlink:title=" ">
<polygon fill="#e0e0e0" stroke="#999999" points="1509,-74 1451,-74 1451,-55 1509,-55 1509,-74"/>
<text text-anchor="middle" x="1480" y="-62" font-family="Helvetica,sans-Serif" font-size="10.00">memory</text>
</a>
</g>
</g>
<!-- Node14&#45;&gt;Node27 -->
<g id="edge29_Node000014_Node000027" class="edge">
<title>Node14&#45;&gt;Node27</title>
<g id="a_edge29_Node000014_Node000027"><a xlink:title=" ">
<path fill="none" stroke="#63b8ff" d="M848.05,-172.26C941.35,-169.39 1126.35,-159.96 1280,-129 1341.14,-116.68 1409.95,-92.44 1448.83,-77.73"/>
<polygon fill="#63b8ff" stroke="#63b8ff" points="1450.42,-80.87 1458.51,-74.03 1447.92,-74.33 1450.42,-80.87"/>
</a>
</g>
</g>
<!-- Node16 -->
<g id="Node000016" class="node">
<title>Node16</title>
<g id="a_Node000016"><a xlink:title=" ">
<polygon fill="#e0e0e0" stroke="#999999" points="920,-74 786,-74 786,-55 920,-55 920,-74"/>
<text text-anchor="middle" x="853" y="-62" font-family="Helvetica,sans-Serif" font-size="10.00">stk_mesh/base/Ngp.hpp</text>
</a>
</g>
</g>
<!-- Node15&#45;&gt;Node16 -->
<g id="edge15_Node000015_Node000016" class="edge">
<title>Node15&#45;&gt;Node16</title>
<g id="a_edge15_Node000015_Node000016"><a xlink:title=" ">
<path fill="none" stroke="#63b8ff" d="M853,-109.75C853,-102.8 853,-92.85 853,-84.13"/>
<polygon fill="#63b8ff" stroke="#63b8ff" points="856.5,-84.09 853,-74.09 849.5,-84.09 856.5,-84.09"/>
</a>
</g>
</g>
<!-- Node15&#45;&gt;Node17 -->
<g id="edge16_Node000015_Node000017" class="edge">
<title>Node15&#45;&gt;Node17</title>
<g id="a_edge16_Node000015_Node000017"><a xlink:title=" ">
<path fill="none" stroke="#63b8ff" d="M826.49,-109.98C798.79,-101.09 755.14,-87.07 724.26,-77.15"/>
<polygon fill="#63b8ff" stroke="#63b8ff" points="725.31,-73.81 714.72,-74.08 723.17,-80.47 725.31,-73.81"/>
</a>
</g>
</g>
<!-- Node18 -->
<g id="Node000018" class="node">
<title>Node18</title>
<g id="a_Node000018"><a xlink:title=" ">
<polygon fill="#e0e0e0" stroke="#999999" points="1115.5,-74 938.5,-74 938.5,-55 1115.5,-55 1115.5,-74"/>
<text text-anchor="middle" x="1027" y="-62" font-family="Helvetica,sans-Serif" font-size="10.00">stk_mesh/base/GetNgpMesh.hpp</text>
</a>
</g>
</g>
<!-- Node15&#45;&gt;Node18 -->
<g id="edge17_Node000015_Node000018" class="edge">
<title>Node15&#45;&gt;Node18</title>
<g id="a_edge17_Node000015_Node000018"><a xlink:title=" ">
<path fill="none" stroke="#63b8ff" d="M880.96,-109.98C910.3,-101.05 956.6,-86.94 989.19,-77.02"/>
<polygon fill="#63b8ff" stroke="#63b8ff" points="990.28,-80.34 998.82,-74.08 988.24,-73.65 990.28,-80.34"/>
</a>
</g>
</g>
<!-- Node19 -->
<g id="Node000019" class="node">
<title>Node19</title>
<g id="a_Node000019"><a xlink:href="_ngp_field_manager_8h.html" target="_top" xlink:title="NGP Field Manager.">
<polygon fill="white" stroke="#666666" points="1291,-74 1133,-74 1133,-55 1291,-55 1291,-74"/>
<text text-anchor="middle" x="1212" y="-62" font-family="Helvetica,sans-Serif" font-size="10.00">ngp_utils/NgpFieldManager.h</text>
</a>
</g>
</g>
<!-- Node15&#45;&gt;Node19 -->
<g id="edge18_Node000015_Node000019" class="edge">
<title>Node15&#45;&gt;Node19</title>
<g id="a_edge18_Node000015_Node000019"><a xlink:title=" ">
<path fill="none" stroke="#63b8ff" d="M910.68,-109.98C974.31,-100.59 1076.6,-85.49 1144.06,-75.53"/>
<polygon fill="#63b8ff" stroke="#63b8ff" points="1144.78,-78.96 1154.17,-74.04 1143.76,-72.04 1144.78,-78.96"/>
</a>
</g>
</g>
<!-- Node20 -->
<g id="Node000020" class="node">
<title>Node20</title>
<g id="a_Node000020"><a xlink:title=" ">
<polygon fill="#e0e0e0" stroke="#999999" points="1524.5,-19 1365.5,-19 1365.5,0 1524.5,0 1524.5,-19"/>
<text text-anchor="middle" x="1445" y="-7" font-family="Helvetica,sans-Serif" font-size="10.00">stk_mesh/base/BulkData.hpp</text>
</a>
</g>
</g>
<!-- Node19&#45;&gt;Node20 -->
<g id="edge19_Node000019_Node000020" class="edge">
<title>Node19&#45;&gt;Node20</title>
<g id="a_edge19_Node000019_Node000020"><a xlink:title=" ">
<path fill="none" stroke="#63b8ff" d="M1249.44,-54.98C1289.65,-45.84 1353.68,-31.27 1397.44,-21.32"/>
<polygon fill="#63b8ff" stroke="#63b8ff" points="1398.3,-24.71 1407.27,-19.08 1396.74,-17.89 1398.3,-24.71"/>
</a>
</g>
</g>
<!-- Node21 -->
<g id="Node000021" class="node">
<title>Node21</title>
<g id="a_Node000021"><a xlink:title=" ">
<polygon fill="#e0e0e0" stroke="#999999" points="979,-19 817,-19 817,0 979,0 979,-19"/>
<text text-anchor="middle" x="898" y="-7" font-family="Helvetica,sans-Serif" font-size="10.00">stk_mesh/base/MetaData.hpp</text>
</a>
</g>
</g>
<!-- Node19&#45;&gt;Node21 -->
<g id="edge20_Node000019_Node000021" class="edge">
<title>Node19&#45;&gt;Node21</title>
<g id="a_edge20_Node000019_Node000021"><a xlink:title=" ">
<path fill="none" stroke="#63b8ff" d="M1161.55,-54.98C1106.24,-45.65 1017.53,-30.67 958.52,-20.71"/>
<polygon fill="#63b8ff" stroke="#63b8ff" points="959.03,-17.25 948.58,-19.04 957.86,-24.15 959.03,-17.25"/>
</a>
</g>
</g>
<!-- Node22 -->
<g id="Node000022" class="node">
<title>Node22</title>
<g id="a_Node000022"><a xlink:title=" ">
<polygon fill="#e0e0e0" stroke="#999999" points="1154.5,-19 997.5,-19 997.5,0 1154.5,0 1154.5,-19"/>
<text text-anchor="middle" x="1076" y="-7" font-family="Helvetica,sans-Serif" font-size="10.00">stk_mesh/base/NgpField.hpp</text>
</a>
</g>
</g>
<!-- Node19&#45;&gt;Node22 -->
<g id="edge21_Node000019_Node000022" class="edge">
<title>Node19&#45;&gt;Node22</title>
<g id="a_edge21_Node000019_Node000022"><a xlink:title=" ">
<path fill="none" stroke="#63b8ff" d="M1190.15,-54.98C1167.88,-46.3 1133.1,-32.75 1107.78,-22.88"/>
<polygon fill="#63b8ff" stroke="#63b8ff" points="1108.84,-19.54 1098.25,-19.17 1106.29,-26.06 1108.84,-19.54"/>
</a>
</g>
</g>
<!-- Node23 -->
<g id="Node000023" class="node">
<title>Node23</title>
<g id="a_Node000023"><a xlink:title=" ">
<polygon fill="#e0e0e0" stroke="#999999" points="1347,-19 1173,-19 1173,0 1347,0 1347,-19"/>
<text text-anchor="middle" x="1260" y="-7" font-family="Helvetica,sans-Serif" font-size="10.00">stk_mesh/base/GetNgpField.hpp</text>
</a>
</g>
</g>
<!-- Node19&#45;&gt;Node23 -->
<g id="edge22_Node000019_Node000023" class="edge">
<title>Node19&#45;&gt;Node23</title>
<g id="a_edge22_Node000019_Node000023"><a xlink:title=" ">
<path fill="none" stroke="#63b8ff" d="M1219.93,-54.75C1226.85,-47.11 1237.07,-35.82 1245.45,-26.56"/>
<polygon fill="#63b8ff" stroke="#63b8ff" points="1248.1,-28.85 1252.22,-19.09 1242.91,-24.15 1248.1,-28.85"/>
</a>
</g>
</g>
<!-- Node24&#45;&gt;Node11 -->
<g id="edge27_Node000024_Node000011" class="edge">
<title>Node24&#45;&gt;Node11</title>
<g id="a_edge27_Node000024_Node000011"><a xlink:title=" ">
<path fill="none" stroke="#63b8ff" d="M546.85,-109.98C518.47,-101.09 473.77,-87.07 442.14,-77.15"/>
<polygon fill="#63b8ff" stroke="#63b8ff" points="442.95,-73.73 432.37,-74.08 440.86,-80.41 442.95,-73.73"/>
</a>
</g>
</g>
<!-- Node25 -->
<g id="Node000025" class="node">
<title>Node25</title>
<g id="a_Node000025"><a xlink:title=" ">
<polygon fill="#e0e0e0" stroke="#999999" points="590,-74 480,-74 480,-55 590,-55 590,-74"/>
<text text-anchor="middle" x="535" y="-62" font-family="Helvetica,sans-Serif" font-size="10.00">stk_simd/Simd.hpp</text>
</a>
</g>
</g>
<!-- Node24&#45;&gt;Node25 -->
<g id="edge26_Node000024_Node000025" class="edge">
<title>Node24&#45;&gt;Node25</title>
<g id="a_edge26_Node000024_Node000025"><a xlink:title=" ">
<path fill="none" stroke="#63b8ff" d="M567.56,-109.75C562.11,-102.34 554.14,-91.5 547.44,-82.41"/>
<polygon fill="#63b8ff" stroke="#63b8ff" points="550.07,-80.07 541.32,-74.09 544.43,-84.22 550.07,-80.07"/>
</a>
</g>
</g>
<!-- Node24&#45;&gt;Node26 -->
<g id="edge28_Node000024_Node000026" class="edge">
<title>Node24&#45;&gt;Node26</title>
<g id="a_edge28_Node000024_Node000026"><a xlink:title=" ">
<path fill="none" stroke="#63b8ff" d="M621.16,-115.88C736.85,-109.4 1043.96,-91.83 1300,-74 1325.11,-72.25 1353.45,-70.03 1374.94,-68.3"/>
<polygon fill="#63b8ff" stroke="#63b8ff" points="1375.51,-71.77 1385.19,-67.47 1374.94,-64.79 1375.51,-71.77"/>
</a>
</g>
</g>
<!-- Node30 -->
<g id="Node000030" class="node">
<title>Node30</title>
<g id="a_Node000030"><a xlink:title=" ">
<polygon fill="#e0e0e0" stroke="#999999" points="2187,-74 2143,-74 2143,-55 2187,-55 2187,-74"/>
<text text-anchor="middle" x="2165" y="-62" font-family="Helvetica,sans-Serif" font-size="10.00">mpi.h</text>
</a>
</g>
</g>
<!-- Node29&#45;&gt;Node30 -->
<g id="edge34_Node000029_Node000030" class="edge">
<title>Node29&#45;&gt;Node30</title>
<g id="a_edge34_Node000029_Node000030"><a xlink:title=" ">
<path fill="none" stroke="#63b8ff" d="M2159.16,-109.75C2160.07,-102.8 2161.39,-92.85 2162.54,-84.13"/>
<polygon fill="#63b8ff" stroke="#63b8ff" points="2166.03,-84.46 2163.87,-74.09 2159.09,-83.54 2166.03,-84.46"/>
</a>
</g>
</g>
<!-- Node31 -->
<g id="Node000031" class="node">
<title>Node31</title>
<g id="a_Node000031"><a xlink:title=" ">
<polygon fill="#e0e0e0" stroke="#999999" points="2124.5,-74 2069.5,-74 2069.5,-55 2124.5,-55 2124.5,-74"/>
<text text-anchor="middle" x="2097" y="-62" font-family="Helvetica,sans-Serif" font-size="10.00">fstream</text>
</a>
</g>
</g>
<!-- Node29&#45;&gt;Node31 -->
<g id="edge35_Node000029_Node000031" class="edge">
<title>Node29&#45;&gt;Node31</title>
<g id="a_edge35_Node000029_Node000031"><a xlink:title=" ">
<path fill="none" stroke="#63b8ff" d="M2148.2,-109.98C2139.18,-102.15 2125.59,-90.34 2114.68,-80.86"/>
<polygon fill="#63b8ff" stroke="#63b8ff" points="2116.82,-78.09 2106.98,-74.17 2112.23,-83.37 2116.82,-78.09"/>
</a>
</g>
</g>
<!-- Node32 -->
<g id="Node000032" class="node">
<title>Node32</title>
<g id="a_Node000032"><a xlink:title=" ">
<polygon fill="#e0e0e0" stroke="#999999" points="2272.5,-74 2205.5,-74 2205.5,-55 2272.5,-55 2272.5,-74"/>
<text text-anchor="middle" x="2239" y="-62" font-family="Helvetica,sans-Serif" font-size="10.00">streambuf</text>
</a>
</g>
</g>
<!-- Node29&#45;&gt;Node32 -->
<g id="edge36_Node000029_Node000032" class="edge">
<title>Node29&#45;&gt;Node32</title>
<g id="a_edge36_Node000029_Node000032"><a xlink:title=" ">
<path fill="none" stroke="#63b8ff" d="M2171.01,-109.98C2183.46,-101.84 2202.46,-89.41 2217.21,-79.76"/>
<polygon fill="#63b8ff" stroke="#63b8ff" points="2219.3,-82.57 2225.75,-74.17 2215.46,-76.72 2219.3,-82.57"/>
</a>
</g>
</g>
<!-- Node33&#45;&gt;Node26 -->
<g id="edge72_Node000033_Node000026" class="edge">
<title>Node33&#45;&gt;Node26</title>
<g id="a_edge72_Node000033_Node000026"><a xlink:title=" ">
<path fill="none" stroke="#63b8ff" d="M1630.02,-170.59C1569.64,-165.61 1462.29,-153.51 1433,-129 1419.88,-118.02 1413.92,-99.07 1411.22,-84.72"/>
<polygon fill="#63b8ff" stroke="#63b8ff" points="1414.62,-83.81 1409.68,-74.44 1407.7,-84.85 1414.62,-83.81"/>
</a>
</g>
</g>
<!-- Node33&#45;&gt;Node29 -->
<g id="edge67_Node000033_Node000029" class="edge">
<title>Node33&#45;&gt;Node29</title>
<g id="a_edge67_Node000033_Node000029"><a xlink:title=" ">
<path fill="none" stroke="#63b8ff" d="M1713.55,-166.92C1718.42,-166.23 1723.32,-165.58 1728,-165 1897.7,-144.16 1941.61,-152.23 2111,-129 2112.46,-128.8 2113.95,-128.59 2115.45,-128.36"/>
<polygon fill="#63b8ff" stroke="#63b8ff" points="2116.12,-131.8 2125.44,-126.76 2115.01,-124.89 2116.12,-131.8"/>
</a>
</g>
</g>
<!-- Node33&#45;&gt;Node31 -->
<g id="edge70_Node000033_Node000031" class="edge">
<title>Node33&#45;&gt;Node31</title>
<g id="a_edge70_Node000033_Node000031"><a xlink:title=" ">
<path fill="none" stroke="#63b8ff" d="M1713.56,-167C1718.43,-166.29 1723.32,-165.61 1728,-165 1800.71,-155.5 1993.62,-167.54 2056,-129 2072.71,-118.68 2083.89,-98.72 2090.3,-83.92"/>
<polygon fill="#63b8ff" stroke="#63b8ff" points="2093.7,-84.86 2094.14,-74.27 2087.19,-82.27 2093.7,-84.86"/>
</a>
</g>
</g>
<!-- Node34 -->
<g id="Node000034" class="node">
<title>Node34</title>
<g id="a_Node000034"><a xlink:href="_boundary_conditions_8h.html" target="_top" xlink:title=" ">
<polygon fill="white" stroke="#666666" points="1689,-129 1565,-129 1565,-110 1689,-110 1689,-129"/>
<text text-anchor="middle" x="1627" y="-117" font-family="Helvetica,sans-Serif" font-size="10.00">BoundaryConditions.h</text>
</a>
</g>
</g>
<!-- Node33&#45;&gt;Node34 -->
<g id="edge38_Node000033_Node000034" class="edge">
<title>Node33&#45;&gt;Node34</title>
<g id="a_edge38_Node000033_Node000034"><a xlink:title=" ">
<path fill="none" stroke="#63b8ff" d="M1664.57,-164.75C1658.15,-157.18 1648.69,-146.05 1640.88,-136.84"/>
<polygon fill="#63b8ff" stroke="#63b8ff" points="1643.43,-134.45 1634.29,-129.09 1638.1,-138.98 1643.43,-134.45"/>
</a>
</g>
</g>
<!-- Node35 -->
<g id="Node000035" class="node">
<title>Node35</title>
<g id="a_Node000035"><a xlink:href="_enums_8h.html" target="_top" xlink:title=" ">
<polygon fill="white" stroke="#666666" points="1700.5,-74 1641.5,-74 1641.5,-55 1700.5,-55 1700.5,-74"/>
<text text-anchor="middle" x="1671" y="-62" font-family="Helvetica,sans-Serif" font-size="10.00">Enums.h</text>
</a>
</g>
</g>
<!-- Node33&#45;&gt;Node35 -->
<g id="edge46_Node000033_Node000035" class="edge">
<title>Node33&#45;&gt;Node35</title>
<g id="a_edge46_Node000033_Node000035"><a xlink:title=" ">
<path fill="none" stroke="#63b8ff" d="M1679.68,-164.69C1689.24,-152.63 1703.65,-130.19 1698,-110 1695.24,-100.12 1689.61,-90.25 1684.21,-82.32"/>
<polygon fill="#63b8ff" stroke="#63b8ff" points="1686.87,-80.04 1678.15,-74.03 1681.22,-84.17 1686.87,-80.04"/>
</a>
</g>
</g>
<!-- Node36 -->
<g id="Node000036" class="node">
<title>Node36</title>
<g id="a_Node000036"><a xlink:title=" ">
<polygon fill="#e0e0e0" stroke="#999999" points="1635,-19 1591,-19 1591,0 1635,0 1635,-19"/>
<text text-anchor="middle" x="1613" y="-7" font-family="Helvetica,sans-Serif" font-size="10.00">string</text>
</a>
</g>
</g>
<!-- Node33&#45;&gt;Node36 -->
<g id="edge71_Node000033_Node000036" class="edge">
<title>Node33&#45;&gt;Node36</title>
<g id="a_edge71_Node000033_Node000036"><a xlink:title=" ">
<path fill="none" stroke="#63b8ff" d="M1630.1,-173.08C1512.52,-171.46 1185.97,-163.83 1154,-129 1148.29,-122.78 1148.79,-116.65 1154,-110 1195.21,-57.39 1237.99,-98.92 1300,-74 1315.7,-67.69 1317.04,-60.64 1333,-55 1378.18,-39.02 1516.64,-21.6 1580.33,-14.18"/>
<polygon fill="#63b8ff" stroke="#63b8ff" points="1581.07,-17.62 1590.6,-12.99 1580.26,-10.66 1581.07,-17.62"/>
</a>
</g>
</g>
<!-- Node38 -->
<g id="Node000038" class="node">
<title>Node38</title>
<g id="a_Node000038"><a xlink:href="_initial_conditions_8h.html" target="_top" xlink:title=" ">
<polygon fill="white" stroke="#666666" points="1546.5,-129 1441.5,-129 1441.5,-110 1546.5,-110 1546.5,-129"/>
<text text-anchor="middle" x="1494" y="-117" font-family="Helvetica,sans-Serif" font-size="10.00">InitialConditions.h</text>
</a>
</g>
</g>
<!-- Node33&#45;&gt;Node38 -->
<g id="edge47_Node000033_Node000038" class="edge">
<title>Node33&#45;&gt;Node38</title>
<g id="a_edge47_Node000033_Node000038"><a xlink:title=" ">
<path fill="none" stroke="#63b8ff" d="M1643.4,-164.98C1613.39,-156.05 1566.02,-141.94 1532.68,-132.02"/>
<polygon fill="#63b8ff" stroke="#63b8ff" points="1533.41,-128.58 1522.82,-129.08 1531.41,-135.29 1533.41,-128.58"/>
</a>
</g>
</g>
<!-- Node39 -->
<g id="Node000039" class="node">
<title>Node39</title>
<g id="a_Node000039"><a xlink:href="_material_propertys_8h.html" target="_top" xlink:title=" ">
<polygon fill="white" stroke="#666666" points="1858.5,-129 1745.5,-129 1745.5,-110 1858.5,-110 1858.5,-129"/>
<text text-anchor="middle" x="1802" y="-117" font-family="Helvetica,sans-Serif" font-size="10.00">MaterialPropertys.h</text>
</a>
</g>
</g>
<!-- Node33&#45;&gt;Node39 -->
<g id="edge53_Node000033_Node000039" class="edge">
<title>Node33&#45;&gt;Node39</title>
<g id="a_edge53_Node000033_Node000039"><a xlink:title=" ">
<path fill="none" stroke="#63b8ff" d="M1692.89,-164.98C1714.08,-156.34 1747.13,-142.87 1771.3,-133.02"/>
<polygon fill="#63b8ff" stroke="#63b8ff" points="1772.79,-136.19 1780.73,-129.17 1770.15,-129.7 1772.79,-136.19"/>
</a>
</g>
</g>
<!-- Node40 -->
<g id="Node000040" class="node">
<title>Node40</title>
<g id="a_Node000040"><a xlink:href="_nalu_parsed_types_8h.html" target="_top" xlink:title=" ">
<polygon fill="white" stroke="#666666" points="1271,-129 1163,-129 1163,-110 1271,-110 1271,-129"/>
<text text-anchor="middle" x="1217" y="-117" font-family="Helvetica,sans-Serif" font-size="10.00">NaluParsedTypes.h</text>
</a>
</g>
</g>
<!-- Node33&#45;&gt;Node40 -->
<g id="edge58_Node000033_Node000040" class="edge">
<title>Node33&#45;&gt;Node40</title>
<g id="a_edge58_Node000033_Node000040"><a xlink:title=" ">
<path fill="none" stroke="#63b8ff" d="M1630.42,-168.66C1550.72,-159.37 1376.01,-139.02 1281.22,-127.98"/>
<polygon fill="#63b8ff" stroke="#63b8ff" points="1281.52,-124.49 1271.18,-126.81 1280.71,-131.45 1281.52,-124.49"/>
</a>
</g>
</g>
<!-- Node41 -->
<g id="Node000041" class="node">
<title>Node41</title>
<g id="a_Node000041"><a xlink:href="_nalu_parsing_helper_8h.html" target="_top" xlink:title=" ">
<polygon fill="white" stroke="#666666" points="2030.5,-129 1915.5,-129 1915.5,-110 2030.5,-110 2030.5,-129"/>
<text text-anchor="middle" x="1973" y="-117" font-family="Helvetica,sans-Serif" font-size="10.00">NaluParsingHelper.h</text>
</a>
</g>
</g>
<!-- Node33&#45;&gt;Node41 -->
<g id="edge61_Node000033_Node000041" class="edge">
<title>Node33&#45;&gt;Node41</title>
<g id="a_edge61_Node000033_Node000041"><a xlink:title=" ">
<path fill="none" stroke="#63b8ff" d="M1713.54,-166.19C1765.75,-156.99 1855.68,-141.16 1914.75,-130.76"/>
<polygon fill="#63b8ff" stroke="#63b8ff" points="1915.44,-134.19 1924.68,-129.01 1914.22,-127.3 1915.44,-134.19"/>
</a>
</g>
</g>
<!-- Node42 -->
<g id="Node000042" class="node">
<title>Node42</title>
<g id="a_Node000042"><a xlink:title=" ">
<polygon fill="#e0e0e0" stroke="#999999" points="1934.5,-74 1835.5,-74 1835.5,-55 1934.5,-55 1934.5,-74"/>
<text text-anchor="middle" x="1885" y="-62" font-family="Helvetica,sans-Serif" font-size="10.00">yaml&#45;cpp/yaml.h</text>
</a>
</g>
</g>
<!-- Node33&#45;&gt;Node42 -->
<g id="edge68_Node000033_Node000042" class="edge">
<title>Node33&#45;&gt;Node42</title>
<g id="a_edge68_Node000033_Node000042"><a xlink:title=" ">
<path fill="none" stroke="#63b8ff" d="M1713.76,-166.38C1767.94,-156.78 1856.91,-139.68 1868,-129 1879.94,-117.51 1883.8,-98.63 1884.91,-84.43"/>
<polygon fill="#63b8ff" stroke="#63b8ff" points="1888.42,-84.42 1885.31,-74.29 1881.42,-84.14 1888.42,-84.42"/>
</a>
</g>
</g>
<!-- Node43 -->
<g id="Node000043" class="node">
<title>Node43</title>
<g id="a_Node000043"><a xlink:title=" ">
<polygon fill="#e0e0e0" stroke="#999999" points="2051,-74 1991,-74 1991,-55 2051,-55 2051,-74"/>
<text text-anchor="middle" x="2021" y="-62" font-family="Helvetica,sans-Serif" font-size="10.00">iostream</text>
</a>
</g>
</g>
<!-- Node33&#45;&gt;Node43 -->
<g id="edge69_Node000033_Node000043" class="edge">
<title>Node33&#45;&gt;Node43</title>
<g id="a_edge69_Node000033_Node000043"><a xlink:title=" ">
<path fill="none" stroke="#63b8ff" d="M1713.57,-167.02C1718.43,-166.31 1723.32,-165.62 1728,-165 1797.18,-155.76 1993.56,-181.1 2040,-129 2051.43,-116.17 2043.07,-96.71 2034.11,-82.71"/>
<polygon fill="#63b8ff" stroke="#63b8ff" points="2036.93,-80.64 2028.34,-74.43 2031.18,-84.64 2036.93,-80.64"/>
</a>
</g>
</g>
<!-- Node34&#45;&gt;Node26 -->
<g id="edge44_Node000034_Node000026" class="edge">
<title>Node34&#45;&gt;Node26</title>
<g id="a_edge44_Node000034_Node000026"><a xlink:title=" ">
<path fill="none" stroke="#63b8ff" d="M1590.8,-109.97C1555.52,-101.62 1500.09,-88.4 1442.75,-74.16"/>
<polygon fill="#63b8ff" stroke="#63b8ff" points="1443.33,-70.69 1432.78,-71.67 1441.64,-77.49 1443.33,-70.69"/>
</a>
</g>
</g>
<!-- Node34&#45;&gt;Node27 -->
<g id="edge45_Node000034_Node000027" class="edge">
<title>Node34&#45;&gt;Node27</title>
<g id="a_edge45_Node000034_Node000027"><a xlink:title=" ">
<path fill="none" stroke="#63b8ff" d="M1603.38,-109.98C1579.1,-101.23 1541.05,-87.51 1513.63,-77.62"/>
<polygon fill="#63b8ff" stroke="#63b8ff" points="1514.64,-74.27 1504.05,-74.17 1512.27,-80.85 1514.64,-74.27"/>
</a>
</g>
</g>
<!-- Node34&#45;&gt;Node35 -->
<g id="edge39_Node000034_Node000035" class="edge">
<title>Node34&#45;&gt;Node35</title>
<g id="a_edge39_Node000034_Node000035"><a xlink:title=" ">
<path fill="none" stroke="#63b8ff" d="M1634.27,-109.75C1640.54,-102.18 1649.79,-91.05 1657.43,-81.84"/>
<polygon fill="#63b8ff" stroke="#63b8ff" points="1660.17,-84.02 1663.87,-74.09 1654.79,-79.55 1660.17,-84.02"/>
</a>
</g>
</g>
<!-- Node34&#45;&gt;Node36 -->
<g id="edge43_Node000034_Node000036" class="edge">
<title>Node34&#45;&gt;Node36</title>
<g id="a_edge43_Node000034_Node000036"><a xlink:title=" ">
<path fill="none" stroke="#63b8ff" d="M1625.85,-109.66C1623.59,-92.17 1618.48,-52.8 1615.43,-29.27"/>
<polygon fill="#63b8ff" stroke="#63b8ff" points="1618.88,-28.63 1614.12,-19.16 1611.94,-29.53 1618.88,-28.63"/>
</a>
</g>
</g>
<!-- Node37 -->
<g id="Node000037" class="node">
<title>Node37</title>
<g id="a_Node000037"><a xlink:title=" ">
<polygon fill="#e0e0e0" stroke="#999999" points="1738,-19 1700,-19 1700,0 1738,0 1738,-19"/>
<text text-anchor="middle" x="1719" y="-7" font-family="Helvetica,sans-Serif" font-size="10.00">map</text>
</a>
</g>
</g>
<!-- Node34&#45;&gt;Node37 -->
<g id="edge42_Node000034_Node000037" class="edge">
<title>Node34&#45;&gt;Node37</title>
<g id="a_edge42_Node000034_Node000037"><a xlink:title=" ">
<path fill="none" stroke="#63b8ff" d="M1657.45,-109.9C1675.63,-103.14 1697.55,-91.83 1710,-74 1719.07,-61.02 1720.84,-42.87 1720.62,-29.3"/>
<polygon fill="#63b8ff" stroke="#63b8ff" points="1724.11,-28.99 1720.09,-19.19 1717.12,-29.36 1724.11,-28.99"/>
</a>
</g>
</g>
<!-- Node35&#45;&gt;Node36 -->
<g id="edge40_Node000035_Node000036" class="edge">
<title>Node35&#45;&gt;Node36</title>
<g id="a_edge40_Node000035_Node000036"><a xlink:title=" ">
<path fill="none" stroke="#63b8ff" d="M1661.68,-54.98C1653.19,-47.23 1640.44,-35.58 1630.12,-26.14"/>
<polygon fill="#63b8ff" stroke="#63b8ff" points="1632.23,-23.33 1622.49,-19.17 1627.51,-28.5 1632.23,-23.33"/>
</a>
</g>
</g>
<!-- Node35&#45;&gt;Node37 -->
<g id="edge41_Node000035_Node000037" class="edge">
<title>Node35&#45;&gt;Node37</title>
<g id="a_edge41_Node000035_Node000037"><a xlink:title=" ">
<path fill="none" stroke="#63b8ff" d="M1678.93,-54.75C1685.85,-47.11 1696.07,-35.82 1704.45,-26.56"/>
<polygon fill="#63b8ff" stroke="#63b8ff" points="1707.1,-28.85 1711.22,-19.09 1701.91,-24.15 1707.1,-28.85"/>
</a>
</g>
</g>
<!-- Node38&#45;&gt;Node26 -->
<g id="edge51_Node000038_Node000026" class="edge">
<title>Node38&#45;&gt;Node26</title>
<g id="a_edge51_Node000038_Node000026"><a xlink:title=" ">
<path fill="none" stroke="#63b8ff" d="M1480.34,-109.98C1467.16,-101.77 1446.97,-89.18 1431.43,-79.49"/>
<polygon fill="#63b8ff" stroke="#63b8ff" points="1433.24,-76.49 1422.91,-74.17 1429.54,-82.43 1433.24,-76.49"/>
</a>
</g>
</g>
<!-- Node38&#45;&gt;Node27 -->
<g id="edge52_Node000038_Node000027" class="edge">
<title>Node38&#45;&gt;Node27</title>
<g id="a_edge52_Node000038_Node000027"><a xlink:title=" ">
<path fill="none" stroke="#63b8ff" d="M1491.69,-109.75C1489.83,-102.72 1487.16,-92.62 1484.85,-83.84"/>
<polygon fill="#63b8ff" stroke="#63b8ff" points="1488.21,-82.86 1482.27,-74.09 1481.44,-84.65 1488.21,-82.86"/>
</a>
</g>
</g>
<!-- Node38&#45;&gt;Node35 -->
<g id="edge48_Node000038_Node000035" class="edge">
<title>Node38&#45;&gt;Node35</title>
<g id="a_edge48_Node000038_Node000035"><a xlink:title=" ">
<path fill="none" stroke="#63b8ff" d="M1522.44,-109.98C1552.28,-101.05 1599.38,-86.94 1632.53,-77.02"/>
<polygon fill="#63b8ff" stroke="#63b8ff" points="1633.76,-80.3 1642.34,-74.08 1631.76,-73.6 1633.76,-80.3"/>
</a>
</g>
</g>
<!-- Node38&#45;&gt;Node36 -->
<g id="edge50_Node000038_Node000036" class="edge">
<title>Node38&#45;&gt;Node36</title>
<g id="a_edge50_Node000038_Node000036"><a xlink:title=" ">
<path fill="none" stroke="#63b8ff" d="M1502.97,-109.72C1515.69,-97.33 1539.8,-74.09 1561,-55 1572.04,-45.06 1584.69,-34.22 1594.76,-25.72"/>
<polygon fill="#63b8ff" stroke="#63b8ff" points="1597.1,-28.32 1602.51,-19.21 1592.6,-22.96 1597.1,-28.32"/>
</a>
</g>
</g>
<!-- Node38&#45;&gt;Node37 -->
<g id="edge49_Node000038_Node000037" class="edge">
<title>Node38&#45;&gt;Node37</title>
<g id="a_edge49_Node000038_Node000037"><a xlink:title=" ">
<path fill="none" stroke="#63b8ff" d="M1512.03,-109.84C1551.46,-90.92 1645.53,-45.77 1692.03,-23.45"/>
<polygon fill="#63b8ff" stroke="#63b8ff" points="1693.69,-26.53 1701.19,-19.05 1690.66,-20.22 1693.69,-26.53"/>
</a>
</g>
</g>
<!-- Node39&#45;&gt;Node26 -->
<g id="edge57_Node000039_Node000026" class="edge">
<title>Node39&#45;&gt;Node26</title>
<g id="a_edge57_Node000039_Node000026"><a xlink:title=" ">
<path fill="none" stroke="#63b8ff" d="M1745.22,-113.77C1676,-107.49 1555.34,-94.9 1442.55,-73.86"/>
<polygon fill="#63b8ff" stroke="#63b8ff" points="1443.19,-70.42 1432.71,-72 1441.89,-77.3 1443.19,-70.42"/>
</a>
</g>
</g>
<!-- Node39&#45;&gt;Node35 -->
<g id="edge54_Node000039_Node000035" class="edge">
<title>Node39&#45;&gt;Node35</title>
<g id="a_edge54_Node000039_Node000035"><a xlink:title=" ">
<path fill="none" stroke="#63b8ff" d="M1780.95,-109.98C1759.59,-101.34 1726.3,-87.87 1701.94,-78.02"/>
<polygon fill="#63b8ff" stroke="#63b8ff" points="1703.01,-74.68 1692.43,-74.17 1700.39,-81.17 1703.01,-74.68"/>
</a>
</g>
</g>
<!-- Node39&#45;&gt;Node36 -->
<g id="edge56_Node000039_Node000036" class="edge">
<title>Node39&#45;&gt;Node36</title>
<g id="a_edge56_Node000039_Node000036"><a xlink:title=" ">
<path fill="none" stroke="#63b8ff" d="M1790.8,-109.81C1773.88,-96.92 1740.53,-72.37 1710,-55 1688.51,-42.78 1663.06,-31.2 1643.63,-22.93"/>
<polygon fill="#63b8ff" stroke="#63b8ff" points="1644.91,-19.67 1634.34,-19.02 1642.2,-26.12 1644.91,-19.67"/>
</a>
</g>
</g>
<!-- Node39&#45;&gt;Node37 -->
<g id="edge55_Node000039_Node000037" class="edge">
<title>Node39&#45;&gt;Node37</title>
<g id="a_edge55_Node000039_Node000037"><a xlink:title=" ">
<path fill="none" stroke="#63b8ff" d="M1800.89,-109.92C1798.85,-96.94 1793.52,-72.03 1781,-55 1771.75,-42.41 1757.86,-31.97 1745.57,-24.38"/>
<polygon fill="#63b8ff" stroke="#63b8ff" points="1746.99,-21.16 1736.59,-19.14 1743.47,-27.2 1746.99,-21.16"/>
</a>
</g>
</g>
<!-- Node40&#45;&gt;Node26 -->
<g id="edge60_Node000040_Node000026" class="edge">
<title>Node40&#45;&gt;Node26</title>
<g id="a_edge60_Node000040_Node000026"><a xlink:title=" ">
<path fill="none" stroke="#63b8ff" d="M1247.85,-109.98C1282.77,-100.34 1339.48,-84.69 1375.48,-74.75"/>
<polygon fill="#63b8ff" stroke="#63b8ff" points="1376.78,-78.02 1385.49,-71.99 1374.92,-71.28 1376.78,-78.02"/>
</a>
</g>
</g>
<!-- Node40&#45;&gt;Node36 -->
<g id="edge59_Node000040_Node000036" class="edge">
<title>Node40&#45;&gt;Node36</title>
<g id="a_edge59_Node000040_Node000036"><a xlink:title=" ">
<path fill="none" stroke="#63b8ff" d="M1240.22,-109.91C1263.72,-101.15 1301.04,-87.02 1333,-74 1352.73,-65.96 1356.63,-61.23 1377,-55 1448.2,-33.21 1534.91,-20.16 1580.84,-14.27"/>
<polygon fill="#63b8ff" stroke="#63b8ff" points="1581.32,-17.74 1590.81,-13.02 1580.45,-10.79 1581.32,-17.74"/>
</a>
</g>
</g>
<!-- Node41&#45;&gt;Node26 -->
<g id="edge66_Node000041_Node000026" class="edge">
<title>Node41&#45;&gt;Node26</title>
<g id="a_edge66_Node000041_Node000026"><a xlink:title=" ">
<path fill="none" stroke="#63b8ff" d="M1915.38,-113.8C1790.84,-103.62 1503.45,-80.05 1442.95,-73.42"/>
<polygon fill="#63b8ff" stroke="#63b8ff" points="1443.05,-69.9 1432.69,-72.11 1442.17,-76.84 1443.05,-69.9"/>
</a>
</g>
</g>
<!-- Node41&#45;&gt;Node31 -->
<g id="edge64_Node000041_Node000031" class="edge">
<title>Node41&#45;&gt;Node31</title>
<g id="a_edge64_Node000041_Node000031"><a xlink:title=" ">
<path fill="none" stroke="#63b8ff" d="M1992.92,-109.98C2013.05,-101.38 2044.38,-87.99 2067.41,-78.15"/>
<polygon fill="#63b8ff" stroke="#63b8ff" points="2068.9,-81.32 2076.71,-74.17 2066.14,-74.88 2068.9,-81.32"/>
</a>
</g>
</g>
<!-- Node41&#45;&gt;Node36 -->
<g id="edge65_Node000041_Node000036" class="edge">
<title>Node41&#45;&gt;Node36</title>
<g id="a_edge65_Node000041_Node000036"><a xlink:title=" ">
<path fill="none" stroke="#63b8ff" d="M1971.74,-109.86C1969.21,-95.86 1962.11,-68.43 1944,-55 1932.03,-46.13 1725.94,-22.82 1645.14,-13.97"/>
<polygon fill="#63b8ff" stroke="#63b8ff" points="1645.36,-10.48 1635.04,-12.87 1644.6,-17.44 1645.36,-10.48"/>
</a>
</g>
</g>
<!-- Node41&#45;&gt;Node42 -->
<g id="edge62_Node000041_Node000042" class="edge">
<title>Node41&#45;&gt;Node42</title>
<g id="a_edge62_Node000041_Node000042"><a xlink:title=" ">
<path fill="none" stroke="#63b8ff" d="M1958.86,-109.98C1945.21,-101.77 1924.31,-89.18 1908.22,-79.49"/>
<polygon fill="#63b8ff" stroke="#63b8ff" points="1909.77,-76.33 1899.4,-74.17 1906.16,-82.33 1909.77,-76.33"/>
</a>
</g>
</g>
<!-- Node41&#45;&gt;Node43 -->
<g id="edge63_Node000041_Node000043" class="edge">
<title>Node41&#45;&gt;Node43</title>
<g id="a_edge63_Node000041_Node000043"><a xlink:title=" ">
<path fill="none" stroke="#63b8ff" d="M1980.93,-109.75C1987.85,-102.11 1998.07,-90.82 2006.45,-81.56"/>
<polygon fill="#63b8ff" stroke="#63b8ff" points="2009.1,-83.85 2013.22,-74.09 2003.91,-79.15 2009.1,-83.85"/>
</a>
</g>
</g>
</g>
</svg>
