<?xml version="1.0" encoding="UTF-8" standalone="no"?>
<!DOCTYPE svg PUBLIC "-//W3C//DTD SVG 1.1//EN"
 "http://www.w3.org/Graphics/SVG/1.1/DTD/svg11.dtd">
<!-- Generated by graphviz version 2.43.0 (0)
 -->
<!-- Title: NaluParsingHelper.h Pages: 1 -->
<svg width="6135pt" height="203pt"
 viewBox="0.00 0.00 6135.00 203.00" xmlns="http://www.w3.org/2000/svg" xmlns:xlink="http://www.w3.org/1999/xlink">
<g id="graph0" class="graph" transform="scale(1 1) rotate(0) translate(4 199)">
<title>NaluParsingHelper.h</title>
<!-- Node1 -->
<g id="Node000001" class="node">
<title>Node1</title>
<g id="a_Node000001"><a xlink:title=" ">
<polygon fill="#999999" stroke="#666666" points="4056,-195 3941,-195 3941,-176 4056,-176 4056,-195"/>
<text text-anchor="middle" x="3998.5" y="-183" font-family="Helvetica,sans-Serif" font-size="10.00">NaluParsingHelper.h</text>
</a>
</g>
</g>
<!-- Node2 -->
<g id="Node000002" class="node">
<title>Node2</title>
<g id="a_Node000002"><a xlink:href="_aero_container_8_c.html" target="_top" xlink:title=" ">
<polygon fill="white" stroke="#666666" points="3244,-140 3149,-140 3149,-121 3244,-121 3244,-140"/>
<text text-anchor="middle" x="3196.5" y="-128" font-family="Helvetica,sans-Serif" font-size="10.00">AeroContainer.C</text>
</a>
</g>
</g>
<!-- Node1&#45;&gt;Node2 -->
<g id="edge1_Node000001_Node000002" class="edge">
<title>Node1&#45;&gt;Node2</title>
<g id="a_edge1_Node000001_Node000002"><a xlink:title=" ">
<path fill="none" stroke="#63b8ff" d="M3930.49,-182.52C3799.14,-178.23 3501.55,-166.27 3252.5,-140 3249.76,-139.71 3246.95,-139.38 3244.12,-139.03"/>
<polygon fill="#63b8ff" stroke="#63b8ff" points="3930.68,-186.02 3940.79,-182.85 3930.91,-179.03 3930.68,-186.02"/>
</a>
</g>
</g>
<!-- Node3 -->
<g id="Node000003" class="node">
<title>Node3</title>
<g id="a_Node000003"><a xlink:href="_nalu_parsing_8h.html" target="_top" xlink:title=" ">
<polygon fill="#fff0f0" stroke="red" points="3345,-140 3262,-140 3262,-121 3345,-121 3345,-140"/>
<text text-anchor="middle" x="3303.5" y="-128" font-family="Helvetica,sans-Serif" font-size="10.00">NaluParsing.h</text>
</a>
</g>
</g>
<!-- Node1&#45;&gt;Node3 -->
<g id="edge2_Node000001_Node000003" class="edge">
<title>Node1&#45;&gt;Node3</title>
<g id="a_edge2_Node000001_Node000003"><a xlink:title=" ">
<path fill="none" stroke="#63b8ff" d="M3930.37,-179.3C3787.6,-168.42 3460.68,-143.49 3345,-134.66"/>
<polygon fill="#63b8ff" stroke="#63b8ff" points="3930.5,-182.82 3940.74,-180.1 3931.03,-175.84 3930.5,-182.82"/>
</a>
</g>
</g>
<!-- Node51 -->
<g id="Node000051" class="node">
<title>Node51</title>
<g id="a_Node000051"><a xlink:href="_realm_8_c.html" target="_top" xlink:title=" ">
<polygon fill="white" stroke="#666666" points="6043.5,-79.5 5985.5,-79.5 5985.5,-60.5 6043.5,-60.5 6043.5,-79.5"/>
<text text-anchor="middle" x="6014.5" y="-67.5" font-family="Helvetica,sans-Serif" font-size="10.00">Realm.C</text>
</a>
</g>
</g>
<!-- Node1&#45;&gt;Node51 -->
<g id="edge52_Node000001_Node000051" class="edge">
<title>Node1&#45;&gt;Node51</title>
<g id="a_edge52_Node000001_Node000051"><a xlink:title=" ">
<path fill="none" stroke="#63b8ff" d="M4066.14,-181.38C4407.72,-165.57 5928.66,-94.78 5976.5,-85 5982.56,-83.76 5988.95,-81.72 5994.72,-79.57"/>
<polygon fill="#63b8ff" stroke="#63b8ff" points="4065.97,-177.88 4056.14,-181.84 4066.3,-184.87 4065.97,-177.88"/>
</a>
</g>
</g>
<!-- Node62 -->
<g id="Node000062" class="node">
<title>Node62</title>
<g id="a_Node000062"><a xlink:href="_transfer_8_c.html" target="_top" xlink:title=" ">
<polygon fill="white" stroke="#666666" points="6127,-79.5 6062,-79.5 6062,-60.5 6127,-60.5 6127,-79.5"/>
<text text-anchor="middle" x="6094.5" y="-67.5" font-family="Helvetica,sans-Serif" font-size="10.00">Transfer.C</text>
</a>
</g>
</g>
<!-- Node1&#45;&gt;Node62 -->
<g id="edge53_Node000001_Node000062" class="edge">
<title>Node1&#45;&gt;Node62</title>
<g id="a_edge53_Node000001_Node000062"><a xlink:title=" ">
<path fill="none" stroke="#63b8ff" d="M4066.28,-182.43C4244.54,-176.86 4741.27,-160.61 5154.5,-140 5553.86,-120.09 5659.95,-161.09 6052.5,-85 6059.14,-83.71 6066.18,-81.66 6072.56,-79.51"/>
<polygon fill="#63b8ff" stroke="#63b8ff" points="4066.14,-178.93 4056.26,-182.74 4066.36,-185.93 4066.14,-178.93"/>
</a>
</g>
</g>
<!-- Node4 -->
<g id="Node000004" class="node">
<title>Node4</title>
<g id="a_Node000004"><a xlink:href="_a_b_l_forcing_algorithm_8_c.html" target="_top" xlink:title=" ">
<polygon fill="white" stroke="#666666" points="5541.5,-79.5 5413.5,-79.5 5413.5,-60.5 5541.5,-60.5 5541.5,-79.5"/>
<text text-anchor="middle" x="5477.5" y="-67.5" font-family="Helvetica,sans-Serif" font-size="10.00">ABLForcingAlgorithm.C</text>
</a>
</g>
</g>
<!-- Node3&#45;&gt;Node4 -->
<g id="edge3_Node000003_Node000004" class="edge">
<title>Node3&#45;&gt;Node4</title>
<g id="a_edge3_Node000003_Node000004"><a xlink:title=" ">
<path fill="none" stroke="#63b8ff" d="M3355.53,-129.59C3637.95,-129.87 4989.42,-128.88 5404.5,-85 5415.92,-83.79 5428.22,-81.73 5439.42,-79.56"/>
<polygon fill="#63b8ff" stroke="#63b8ff" points="3355.17,-126.09 3345.17,-129.57 3355.16,-133.09 3355.17,-126.09"/>
</a>
</g>
</g>
<!-- Node5 -->
<g id="Node000005" class="node">
<title>Node5</title>
<g id="a_Node000005"><a xlink:href="_a_b_l_wall_fluxes_alg_8h.html" target="_top" xlink:title=" ">
<polygon fill="#fff0f0" stroke="red" points="5671.5,-79.5 5559.5,-79.5 5559.5,-60.5 5671.5,-60.5 5671.5,-79.5"/>
<text text-anchor="middle" x="5615.5" y="-67.5" font-family="Helvetica,sans-Serif" font-size="10.00">ABLWallFluxesAlg.h</text>
</a>
</g>
</g>
<!-- Node3&#45;&gt;Node5 -->
<g id="edge4_Node000003_Node000005" class="edge">
<title>Node3&#45;&gt;Node5</title>
<g id="a_edge4_Node000003_Node000005"><a xlink:title=" ">
<path fill="none" stroke="#63b8ff" d="M3355.66,-129.07C3671.91,-126.37 5326.32,-111.12 5550.5,-85 5560.82,-83.8 5571.92,-81.71 5581.97,-79.51"/>
<polygon fill="#63b8ff" stroke="#63b8ff" points="3355.38,-125.57 3345.41,-129.16 3355.44,-132.57 3355.38,-125.57"/>
</a>
</g>
</g>
<!-- Node7 -->
<g id="Node000007" class="node">
<title>Node7</title>
<g id="a_Node000007"><a xlink:href="_low_mach_equation_system_8_c.html" target="_top" xlink:title=" ">
<polygon fill="white" stroke="#666666" points="5731.5,-19 5579.5,-19 5579.5,0 5731.5,0 5731.5,-19"/>
<text text-anchor="middle" x="5655.5" y="-7" font-family="Helvetica,sans-Serif" font-size="10.00">LowMachEquationSystem.C</text>
</a>
</g>
</g>
<!-- Node3&#45;&gt;Node7 -->
<g id="edge32_Node000003_Node000007" class="edge">
<title>Node3&#45;&gt;Node7</title>
<g id="a_edge32_Node000003_Node000007"><a xlink:title=" ">
<path fill="none" stroke="#63b8ff" d="M3355.66,-129.53C3700.39,-129.57 5638.36,-127.94 5680.5,-85 5698.66,-66.5 5676.09,-34.42 5663.25,-19.11"/>
<polygon fill="#63b8ff" stroke="#63b8ff" points="3355.47,-126.03 3345.47,-129.52 3355.47,-133.03 3355.47,-126.03"/>
</a>
</g>
</g>
<!-- Node8 -->
<g id="Node000008" class="node">
<title>Node8</title>
<g id="a_Node000008"><a xlink:href="_actuator_info_8h.html" target="_top" xlink:title=" ">
<polygon fill="#fff0f0" stroke="red" points="5813.5,-79.5 5727.5,-79.5 5727.5,-60.5 5813.5,-60.5 5813.5,-79.5"/>
<text text-anchor="middle" x="5770.5" y="-67.5" font-family="Helvetica,sans-Serif" font-size="10.00">ActuatorInfo.h</text>
</a>
</g>
</g>
<!-- Node3&#45;&gt;Node8 -->
<g id="edge6_Node000003_Node000008" class="edge">
<title>Node3&#45;&gt;Node8</title>
<g id="a_edge6_Node000003_Node000008"><a xlink:title=" ">
<path fill="none" stroke="#63b8ff" d="M3355.22,-129.24C3683.65,-127.46 5472.46,-116.43 5713.5,-85 5722.59,-83.81 5732.34,-81.73 5741.15,-79.53"/>
<polygon fill="#63b8ff" stroke="#63b8ff" points="3355.03,-125.74 3345.05,-129.29 3355.07,-132.74 3355.03,-125.74"/>
</a>
</g>
</g>
<!-- Node10 -->
<g id="Node000010" class="node">
<title>Node10</title>
<g id="a_Node000010"><a xlink:href="_actuator_parsing_8_c.html" target="_top" xlink:title=" ">
<polygon fill="white" stroke="#666666" points="5857,-19 5754,-19 5754,0 5857,0 5857,-19"/>
<text text-anchor="middle" x="5805.5" y="-7" font-family="Helvetica,sans-Serif" font-size="10.00">ActuatorParsing.C</text>
</a>
</g>
</g>
<!-- Node3&#45;&gt;Node10 -->
<g id="edge9_Node000003_Node000010" class="edge">
<title>Node3&#45;&gt;Node10</title>
<g id="a_edge9_Node000003_Node000010"><a xlink:title=" ">
<path fill="none" stroke="#63b8ff" d="M3355.31,-129.08C3712.81,-126.11 5800.08,-107.82 5822.5,-85 5840.17,-67.02 5822.24,-34.69 5811.83,-19.22"/>
<polygon fill="#63b8ff" stroke="#63b8ff" points="3355.21,-125.58 3345.24,-129.16 3355.27,-132.58 3355.21,-125.58"/>
</a>
</g>
</g>
<!-- Node11 -->
<g id="Node000011" class="node">
<title>Node11</title>
<g id="a_Node000011"><a xlink:href="_actuator_model_8_c.html" target="_top" xlink:title=" ">
<polygon fill="white" stroke="#666666" points="5967.5,-79.5 5869.5,-79.5 5869.5,-60.5 5967.5,-60.5 5967.5,-79.5"/>
<text text-anchor="middle" x="5918.5" y="-67.5" font-family="Helvetica,sans-Serif" font-size="10.00">ActuatorModel.C</text>
</a>
</g>
</g>
<!-- Node3&#45;&gt;Node11 -->
<g id="edge8_Node000003_Node000011" class="edge">
<title>Node3&#45;&gt;Node11</title>
<g id="a_edge8_Node000003_Node000011"><a xlink:title=" ">
<path fill="none" stroke="#63b8ff" d="M3355.56,-129.22C3696.03,-127.32 5599.22,-115.4 5855.5,-85 5865.51,-83.81 5876.27,-81.73 5886.02,-79.53"/>
<polygon fill="#63b8ff" stroke="#63b8ff" points="3355.46,-125.72 3345.48,-129.28 3355.5,-132.72 3355.46,-125.72"/>
</a>
</g>
</g>
<!-- Node12 -->
<g id="Node000012" class="node">
<title>Node12</title>
<g id="a_Node000012"><a xlink:href="_actuator_parsing_f_a_s_t_8_c.html" target="_top" xlink:title=" ">
<polygon fill="white" stroke="#666666" points="125,-79.5 0,-79.5 0,-60.5 125,-60.5 125,-79.5"/>
<text text-anchor="middle" x="62.5" y="-67.5" font-family="Helvetica,sans-Serif" font-size="10.00">ActuatorParsingFAST.C</text>
</a>
</g>
</g>
<!-- Node3&#45;&gt;Node12 -->
<g id="edge10_Node000003_Node000012" class="edge">
<title>Node3&#45;&gt;Node12</title>
<g id="a_edge10_Node000003_Node000012"><a xlink:title=" ">
<path fill="none" stroke="#63b8ff" d="M3251.75,-121.14C2545.51,-60.76 819.69,-156.01 133.5,-85 122.25,-83.84 110.14,-81.76 99.16,-79.56"/>
<polygon fill="#63b8ff" stroke="#63b8ff" points="3251.55,-124.64 3261.82,-122.02 3252.16,-117.66 3251.55,-124.64"/>
</a>
</g>
</g>
<!-- Node13 -->
<g id="Node000013" class="node">
<title>Node13</title>
<g id="a_Node000013"><a xlink:href="_actuator_parsing_simple_8_c.html" target="_top" xlink:title=" ">
<polygon fill="white" stroke="#666666" points="280,-79.5 143,-79.5 143,-60.5 280,-60.5 280,-79.5"/>
<text text-anchor="middle" x="211.5" y="-67.5" font-family="Helvetica,sans-Serif" font-size="10.00">ActuatorParsingSimple.C</text>
</a>
</g>
</g>
<!-- Node3&#45;&gt;Node13 -->
<g id="edge11_Node000003_Node000013" class="edge">
<title>Node3&#45;&gt;Node13</title>
<g id="a_edge11_Node000003_Node000013"><a xlink:title=" ">
<path fill="none" stroke="#63b8ff" d="M3251.51,-121.12C2579.68,-63.57 941.67,-147.06 289.5,-85 277.17,-83.83 263.87,-81.75 251.81,-79.55"/>
<polygon fill="#63b8ff" stroke="#63b8ff" points="3251.55,-124.64 3261.82,-122.02 3252.16,-117.66 3251.55,-124.64"/>
</a>
</g>
</g>
<!-- Node14 -->
<g id="Node000014" class="node">
<title>Node14</title>
<g id="a_Node000014"><a xlink:href="_averaging_info_8_c.html" target="_top" xlink:title=" ">
<polygon fill="white" stroke="#666666" points="392.5,-79.5 298.5,-79.5 298.5,-60.5 392.5,-60.5 392.5,-79.5"/>
<text text-anchor="middle" x="345.5" y="-67.5" font-family="Helvetica,sans-Serif" font-size="10.00">AveragingInfo.C</text>
</a>
</g>
</g>
<!-- Node3&#45;&gt;Node14 -->
<g id="edge12_Node000003_Node000014" class="edge">
<title>Node3&#45;&gt;Node14</title>
<g id="a_edge12_Node000003_Node000014"><a xlink:title=" ">
<path fill="none" stroke="#63b8ff" d="M3251.42,-121.11C2604.33,-65.84 1026.48,-165.95 401.5,-85 392.56,-83.84 382.98,-81.77 374.32,-79.56"/>
<polygon fill="#63b8ff" stroke="#63b8ff" points="3251.55,-124.64 3261.82,-122.02 3252.16,-117.66 3251.55,-124.64"/>
</a>
</g>
</g>
<!-- Node15 -->
<g id="Node000015" class="node">
<title>Node15</title>
<g id="a_Node000015"><a xlink:href="_bdy_height_algorithm_8_c.html" target="_top" xlink:title=" ">
<polygon fill="white" stroke="#666666" points="536,-79.5 411,-79.5 411,-60.5 536,-60.5 536,-79.5"/>
<text text-anchor="middle" x="473.5" y="-67.5" font-family="Helvetica,sans-Serif" font-size="10.00">BdyHeightAlgorithm.C</text>
</a>
</g>
</g>
<!-- Node3&#45;&gt;Node15 -->
<g id="edge13_Node000003_Node000015" class="edge">
<title>Node3&#45;&gt;Node15</title>
<g id="a_edge13_Node000003_Node000015"><a xlink:title=" ">
<path fill="none" stroke="#63b8ff" d="M3251.48,-121.12C2636.13,-68.27 1139.72,-147.12 544.5,-85 533.25,-83.83 521.14,-81.75 510.16,-79.55"/>
<polygon fill="#63b8ff" stroke="#63b8ff" points="3251.55,-124.64 3261.82,-122.02 3252.16,-117.66 3251.55,-124.64"/>
</a>
</g>
</g>
<!-- Node16 -->
<g id="Node000016" class="node">
<title>Node16</title>
<g id="a_Node000016"><a xlink:href="_bdy_layer_statistics_8_c.html" target="_top" xlink:title=" ">
<polygon fill="white" stroke="#666666" points="671,-79.5 554,-79.5 554,-60.5 671,-60.5 671,-79.5"/>
<text text-anchor="middle" x="612.5" y="-67.5" font-family="Helvetica,sans-Serif" font-size="10.00">BdyLayerStatistics.C</text>
</a>
</g>
</g>
<!-- Node3&#45;&gt;Node16 -->
<g id="edge14_Node000003_Node000016" class="edge">
<title>Node3&#45;&gt;Node16</title>
<g id="a_edge14_Node000003_Node000016"><a xlink:title=" ">
<path fill="none" stroke="#63b8ff" d="M3251.55,-121.12C2666.17,-70.76 1244.55,-147.4 679.5,-85 668.87,-83.83 657.43,-81.75 647.07,-79.54"/>
<polygon fill="#63b8ff" stroke="#63b8ff" points="3251.55,-124.64 3261.82,-122.03 3252.16,-117.66 3251.55,-124.64"/>
</a>
</g>
</g>
<!-- Node17 -->
<g id="Node000017" class="node">
<title>Node17</title>
<g id="a_Node000017"><a xlink:href="_boundary_conditions_8_c.html" target="_top" xlink:title=" ">
<polygon fill="white" stroke="#666666" points="814,-79.5 689,-79.5 689,-60.5 814,-60.5 814,-79.5"/>
<text text-anchor="middle" x="751.5" y="-67.5" font-family="Helvetica,sans-Serif" font-size="10.00">BoundaryConditions.C</text>
</a>
</g>
</g>
<!-- Node3&#45;&gt;Node17 -->
<g id="edge15_Node000003_Node000017" class="edge">
<title>Node3&#45;&gt;Node17</title>
<g id="a_edge15_Node000003_Node000017"><a xlink:title=" ">
<path fill="none" stroke="#63b8ff" d="M3251.71,-121.13C2698.34,-73.32 1357.17,-140.4 823.5,-85 812.1,-83.82 799.82,-81.74 788.68,-79.53"/>
<polygon fill="#63b8ff" stroke="#63b8ff" points="3251.55,-124.63 3261.82,-122.03 3252.16,-117.66 3251.55,-124.63"/>
</a>
</g>
</g>
<!-- Node18 -->
<g id="Node000018" class="node">
<title>Node18</title>
<g id="a_Node000018"><a xlink:href="_chien_k_epsilon_equation_system_8_c.html" target="_top" xlink:title=" ">
<polygon fill="white" stroke="#666666" points="1008.5,-79.5 832.5,-79.5 832.5,-60.5 1008.5,-60.5 1008.5,-79.5"/>
<text text-anchor="middle" x="920.5" y="-67.5" font-family="Helvetica,sans-Serif" font-size="10.00">ChienKEpsilonEquationSystem.C</text>
</a>
</g>
</g>
<!-- Node3&#45;&gt;Node18 -->
<g id="edge16_Node000003_Node000018" class="edge">
<title>Node3&#45;&gt;Node18</title>
<g id="a_edge16_Node000003_Node000018"><a xlink:title=" ">
<path fill="none" stroke="#63b8ff" d="M3251.6,-121.11C2261.36,-32 2004.42,-163.85 1017.5,-85 1002.32,-83.79 985.9,-81.71 970.96,-79.52"/>
<polygon fill="#63b8ff" stroke="#63b8ff" points="3251.54,-124.62 3261.82,-122.03 3252.17,-117.65 3251.54,-124.62"/>
</a>
</g>
</g>
<!-- Node19 -->
<g id="Node000019" class="node">
<title>Node19</title>
<g id="a_Node000019"><a xlink:href="_compute_wall_friction_velocity_algorithm_8_c.html" target="_top" xlink:title=" ">
<polygon fill="white" stroke="#666666" points="1184,-85 1027,-85 1027,-55 1184,-55 1184,-85"/>
<text text-anchor="start" x="1035" y="-73" font-family="Helvetica,sans-Serif" font-size="10.00">ComputeWallFrictionVelocity</text>
<text text-anchor="middle" x="1105.5" y="-62" font-family="Helvetica,sans-Serif" font-size="10.00">Algorithm.C</text>
</a>
</g>
</g>
<!-- Node3&#45;&gt;Node19 -->
<g id="edge17_Node000003_Node000019" class="edge">
<title>Node3&#45;&gt;Node19</title>
<g id="a_edge17_Node000003_Node000019"><a xlink:title=" ">
<path fill="none" stroke="#63b8ff" d="M3251.72,-121.12C2338.88,-38.44 2101.27,-165.65 1192.5,-85 1189.76,-84.76 1186.97,-84.48 1184.16,-84.17"/>
<polygon fill="#63b8ff" stroke="#63b8ff" points="3251.54,-124.62 3261.82,-122.04 3252.18,-117.64 3251.54,-124.62"/>
</a>
</g>
</g>
<!-- Node20 -->
<g id="Node000020" class="node">
<title>Node20</title>
<g id="a_Node000020"><a xlink:href="_data_probe_post_processing_8_c.html" target="_top" xlink:title=" ">
<polygon fill="white" stroke="#666666" points="1353,-79.5 1202,-79.5 1202,-60.5 1353,-60.5 1353,-79.5"/>
<text text-anchor="middle" x="1277.5" y="-67.5" font-family="Helvetica,sans-Serif" font-size="10.00">DataProbePostProcessing.C</text>
</a>
</g>
</g>
<!-- Node3&#45;&gt;Node20 -->
<g id="edge18_Node000003_Node000020" class="edge">
<title>Node3&#45;&gt;Node20</title>
<g id="a_edge18_Node000003_Node000020"><a xlink:title=" ">
<path fill="none" stroke="#63b8ff" d="M3251.62,-121.11C2413.71,-44.65 2195.16,-161.99 1361.5,-85 1348.4,-83.79 1334.25,-81.73 1321.37,-79.56"/>
<polygon fill="#63b8ff" stroke="#63b8ff" points="3251.54,-124.61 3261.82,-122.04 3252.18,-117.64 3251.54,-124.61"/>
</a>
</g>
</g>
<!-- Node21 -->
<g id="Node000021" class="node">
<title>Node21</title>
<g id="a_Node000021"><a xlink:href="_enthalpy_equation_system_8_c.html" target="_top" xlink:title=" ">
<polygon fill="white" stroke="#666666" points="1520,-79.5 1371,-79.5 1371,-60.5 1520,-60.5 1520,-79.5"/>
<text text-anchor="middle" x="1445.5" y="-67.5" font-family="Helvetica,sans-Serif" font-size="10.00">EnthalpyEquationSystem.C</text>
</a>
</g>
</g>
<!-- Node3&#45;&gt;Node21 -->
<g id="edge19_Node000003_Node000021" class="edge">
<title>Node3&#45;&gt;Node21</title>
<g id="a_edge19_Node000003_Node000021"><a xlink:title=" ">
<path fill="none" stroke="#63b8ff" d="M3251.67,-121.11C2487.67,-50.76 2288.15,-156.61 1528.5,-85 1515.55,-83.78 1501.57,-81.72 1488.85,-79.54"/>
<polygon fill="#63b8ff" stroke="#63b8ff" points="3251.53,-124.61 3261.82,-122.05 3252.18,-117.64 3251.53,-124.61"/>
</a>
</g>
</g>
<!-- Node22 -->
<g id="Node000022" class="node">
<title>Node22</title>
<g id="a_Node000022"><a xlink:href="_equation_system_8_c.html" target="_top" xlink:title=" ">
<polygon fill="white" stroke="#666666" points="1643.5,-79.5 1537.5,-79.5 1537.5,-60.5 1643.5,-60.5 1643.5,-79.5"/>
<text text-anchor="middle" x="1590.5" y="-67.5" font-family="Helvetica,sans-Serif" font-size="10.00">EquationSystem.C</text>
</a>
</g>
</g>
<!-- Node3&#45;&gt;Node22 -->
<g id="edge20_Node000003_Node000022" class="edge">
<title>Node3&#45;&gt;Node22</title>
<g id="a_edge20_Node000003_Node000022"><a xlink:title=" ">
<path fill="none" stroke="#63b8ff" d="M3251.6,-121.1C2542.56,-55.48 2355.12,-171.35 1652.5,-85 1642.75,-83.8 1632.29,-81.74 1622.79,-79.57"/>
<polygon fill="#63b8ff" stroke="#63b8ff" points="3251.53,-124.61 3261.81,-122.06 3252.18,-117.64 3251.53,-124.61"/>
</a>
</g>
</g>
<!-- Node23 -->
<g id="Node000023" class="node">
<title>Node23</title>
<g id="a_Node000023"><a xlink:href="_equation_systems_8_c.html" target="_top" xlink:title=" ">
<polygon fill="white" stroke="#666666" points="1773,-79.5 1662,-79.5 1662,-60.5 1773,-60.5 1773,-79.5"/>
<text text-anchor="middle" x="1717.5" y="-67.5" font-family="Helvetica,sans-Serif" font-size="10.00">EquationSystems.C</text>
</a>
</g>
</g>
<!-- Node3&#45;&gt;Node23 -->
<g id="edge21_Node000003_Node000023" class="edge">
<title>Node3&#45;&gt;Node23</title>
<g id="a_edge21_Node000003_Node000023"><a xlink:title=" ">
<path fill="none" stroke="#63b8ff" d="M3251.7,-121.11C2599.7,-60.15 2427.45,-162.83 1781.5,-85 1771.45,-83.79 1760.65,-81.73 1750.84,-79.55"/>
<polygon fill="#63b8ff" stroke="#63b8ff" points="3251.53,-124.61 3261.81,-122.06 3252.19,-117.64 3251.53,-124.61"/>
</a>
</g>
</g>
<!-- Node24 -->
<g id="Node000024" class="node">
<title>Node24</title>
<g id="a_Node000024"><a xlink:href="_f_s_iturbine_8_c.html" target="_top" xlink:title=" ">
<polygon fill="white" stroke="#666666" points="1866,-79.5 1791,-79.5 1791,-60.5 1866,-60.5 1866,-79.5"/>
<text text-anchor="middle" x="1828.5" y="-67.5" font-family="Helvetica,sans-Serif" font-size="10.00">FSIturbine.C</text>
</a>
</g>
</g>
<!-- Node3&#45;&gt;Node24 -->
<g id="edge22_Node000003_Node000024" class="edge">
<title>Node3&#45;&gt;Node24</title>
<g id="a_edge22_Node000003_Node000024"><a xlink:title=" ">
<path fill="none" stroke="#63b8ff" d="M3251.53,-121.12C2931.07,-92.65 2173.63,-133.51 1874.5,-85 1867.08,-83.8 1859.2,-81.71 1852.09,-79.51"/>
<polygon fill="#63b8ff" stroke="#63b8ff" points="3251.53,-124.63 3261.81,-122.07 3252.18,-117.66 3251.53,-124.63"/>
</a>
</g>
</g>
<!-- Node25 -->
<g id="Node000025" class="node">
<title>Node25</title>
<g id="a_Node000025"><a xlink:href="_frame_base_8_c.html" target="_top" xlink:title=" ">
<polygon fill="white" stroke="#666666" points="1965,-79.5 1884,-79.5 1884,-60.5 1965,-60.5 1965,-79.5"/>
<text text-anchor="middle" x="1924.5" y="-67.5" font-family="Helvetica,sans-Serif" font-size="10.00">FrameBase.C</text>
</a>
</g>
</g>
<!-- Node3&#45;&gt;Node25 -->
<g id="edge23_Node000003_Node000025" class="edge">
<title>Node3&#45;&gt;Node25</title>
<g id="a_edge23_Node000003_Node000025"><a xlink:title=" ">
<path fill="none" stroke="#63b8ff" d="M3251.74,-121.11C2684.7,-67.36 2532.21,-171.28 1973.5,-85 1965.72,-83.8 1957.42,-81.74 1949.92,-79.57"/>
<polygon fill="#63b8ff" stroke="#63b8ff" points="3251.52,-124.6 3261.81,-122.07 3252.19,-117.63 3251.52,-124.6"/>
</a>
</g>
</g>
<!-- Node26 -->
<g id="Node000026" class="node">
<title>Node26</title>
<g id="a_Node000026"><a xlink:href="_gamma_equation_system_8_c.html" target="_top" xlink:title=" ">
<polygon fill="white" stroke="#666666" points="2128,-79.5 1983,-79.5 1983,-60.5 2128,-60.5 2128,-79.5"/>
<text text-anchor="middle" x="2055.5" y="-67.5" font-family="Helvetica,sans-Serif" font-size="10.00">GammaEquationSystem.C</text>
</a>
</g>
</g>
<!-- Node3&#45;&gt;Node26 -->
<g id="edge24_Node000003_Node000026" class="edge">
<title>Node3&#45;&gt;Node26</title>
<g id="a_edge24_Node000003_Node000026"><a xlink:title=" ">
<path fill="none" stroke="#63b8ff" d="M3251.55,-121.08C2757.33,-72.99 2627.43,-134.5 2137.5,-85 2124.86,-83.72 2111.21,-81.67 2098.76,-79.52"/>
<polygon fill="#63b8ff" stroke="#63b8ff" points="3251.52,-124.59 3261.81,-122.09 3252.2,-117.63 3251.52,-124.59"/>
</a>
</g>
</g>
<!-- Node27 -->
<g id="Node000027" class="node">
<title>Node27</title>
<g id="a_Node000027"><a xlink:href="_hypre_n_g_p_8h.html" target="_top" xlink:title=" ">
<polygon fill="white" stroke="#666666" points="2220.5,-79.5 2146.5,-79.5 2146.5,-60.5 2220.5,-60.5 2220.5,-79.5"/>
<text text-anchor="middle" x="2183.5" y="-67.5" font-family="Helvetica,sans-Serif" font-size="10.00">HypreNGP.h</text>
</a>
</g>
</g>
<!-- Node3&#45;&gt;Node27 -->
<g id="edge25_Node000003_Node000027" class="edge">
<title>Node3&#45;&gt;Node27</title>
<g id="a_edge25_Node000003_Node000027"><a xlink:title=" ">
<path fill="none" stroke="#63b8ff" d="M3251.71,-121.1C2798.03,-76.73 2674.96,-159.32 2229.5,-85 2222.25,-83.79 2214.55,-81.76 2207.57,-79.61"/>
<polygon fill="#63b8ff" stroke="#63b8ff" points="3251.51,-124.59 3261.81,-122.1 3252.21,-117.63 3251.51,-124.59"/>
</a>
</g>
</g>
<!-- Node28 -->
<g id="Node000028" class="node">
<title>Node28</title>
<g id="a_Node000028"><a xlink:href="_initial_conditions_8_c.html" target="_top" xlink:title=" ">
<polygon fill="white" stroke="#666666" points="2344.5,-79.5 2238.5,-79.5 2238.5,-60.5 2344.5,-60.5 2344.5,-79.5"/>
<text text-anchor="middle" x="2291.5" y="-67.5" font-family="Helvetica,sans-Serif" font-size="10.00">InitialConditions.C</text>
</a>
</g>
</g>
<!-- Node3&#45;&gt;Node28 -->
<g id="edge26_Node000003_Node000028" class="edge">
<title>Node3&#45;&gt;Node28</title>
<g id="a_edge26_Node000003_Node000028"><a xlink:title=" ">
<path fill="none" stroke="#63b8ff" d="M3251.73,-121.09C2852.97,-80.99 2746.66,-136.82 2353.5,-85 2343.87,-83.73 2333.54,-81.68 2324.12,-79.53"/>
<polygon fill="#63b8ff" stroke="#63b8ff" points="3251.51,-124.58 3261.81,-122.12 3252.22,-117.62 3251.51,-124.58"/>
</a>
</g>
</g>
<!-- Node29 -->
<g id="Node000029" class="node">
<title>Node29</title>
<g id="a_Node000029"><a xlink:href="_input_output_realm_8_c.html" target="_top" xlink:title=" ">
<polygon fill="white" stroke="#666666" points="2478.5,-79.5 2362.5,-79.5 2362.5,-60.5 2478.5,-60.5 2478.5,-79.5"/>
<text text-anchor="middle" x="2420.5" y="-67.5" font-family="Helvetica,sans-Serif" font-size="10.00">InputOutputRealm.C</text>
</a>
</g>
</g>
<!-- Node3&#45;&gt;Node29 -->
<g id="edge27_Node000003_Node000029" class="edge">
<title>Node3&#45;&gt;Node29</title>
<g id="a_edge27_Node000003_Node000029"><a xlink:title=" ">
<path fill="none" stroke="#63b8ff" d="M3251.69,-121.07C2912.28,-85.79 2821.86,-127.53 2487.5,-85 2477.24,-83.7 2466.22,-81.66 2456.14,-79.54"/>
<polygon fill="#63b8ff" stroke="#63b8ff" points="3251.49,-124.57 3261.81,-122.14 3252.23,-117.61 3251.49,-124.57"/>
</a>
</g>
</g>
<!-- Node30 -->
<g id="Node000030" class="node">
<title>Node30</title>
<g id="a_Node000030"><a xlink:href="_kynema_six_dof_8_c.html" target="_top" xlink:title=" ">
<polygon fill="white" stroke="#666666" points="2594.5,-79.5 2496.5,-79.5 2496.5,-60.5 2594.5,-60.5 2594.5,-79.5"/>
<text text-anchor="middle" x="2545.5" y="-67.5" font-family="Helvetica,sans-Serif" font-size="10.00">KynemaSixDof.C</text>
</a>
</g>
</g>
<!-- Node3&#45;&gt;Node30 -->
<g id="edge28_Node000003_Node000030" class="edge">
<title>Node3&#45;&gt;Node30</title>
<g id="a_edge28_Node000003_Node000030"><a xlink:title=" ">
<path fill="none" stroke="#63b8ff" d="M3251.47,-121.04C2963.56,-90.08 2885.96,-126.57 2603.5,-85 2594.58,-83.69 2585.03,-81.65 2576.3,-79.53"/>
<polygon fill="#63b8ff" stroke="#63b8ff" points="3251.48,-124.56 3261.8,-122.17 3252.24,-117.6 3251.48,-124.56"/>
</a>
</g>
</g>
<!-- Node31 -->
<g id="Node000031" class="node">
<title>Node31</title>
<g id="a_Node000031"><a xlink:href="_lidar_patterns_8_c.html" target="_top" xlink:title=" ">
<polygon fill="white" stroke="#666666" points="2702.5,-79.5 2612.5,-79.5 2612.5,-60.5 2702.5,-60.5 2702.5,-79.5"/>
<text text-anchor="middle" x="2657.5" y="-67.5" font-family="Helvetica,sans-Serif" font-size="10.00">LidarPatterns.C</text>
</a>
</g>
</g>
<!-- Node3&#45;&gt;Node31 -->
<g id="edge29_Node000003_Node000031" class="edge">
<title>Node3&#45;&gt;Node31</title>
<g id="a_edge29_Node000003_Node000031"><a xlink:title=" ">
<path fill="none" stroke="#63b8ff" d="M3251.7,-121.05C3011.36,-93.97 2946.14,-122.88 2711.5,-85 2703.28,-83.67 2694.49,-81.66 2686.43,-79.57"/>
<polygon fill="#63b8ff" stroke="#63b8ff" points="3251.47,-124.54 3261.8,-122.21 3252.26,-117.59 3251.47,-124.54"/>
</a>
</g>
</g>
<!-- Node32 -->
<g id="Node000032" class="node">
<title>Node32</title>
<g id="a_Node000032"><a xlink:href="_linear_solver_config_8_c.html" target="_top" xlink:title=" ">
<polygon fill="white" stroke="#666666" points="2838.5,-79.5 2720.5,-79.5 2720.5,-60.5 2838.5,-60.5 2838.5,-79.5"/>
<text text-anchor="middle" x="2779.5" y="-67.5" font-family="Helvetica,sans-Serif" font-size="10.00">LinearSolverConfig.C</text>
</a>
</g>
</g>
<!-- Node3&#45;&gt;Node32 -->
<g id="edge30_Node000003_Node000032" class="edge">
<title>Node3&#45;&gt;Node32</title>
<g id="a_edge30_Node000003_Node000032"><a xlink:title=" ">
<path fill="none" stroke="#63b8ff" d="M3251.71,-121.01C3071.5,-98.59 3023.06,-110.79 2847.5,-85 2837.6,-83.55 2826.97,-81.56 2817.13,-79.55"/>
<polygon fill="#63b8ff" stroke="#63b8ff" points="3251.43,-124.5 3261.79,-122.28 3252.31,-117.56 3251.43,-124.5"/>
</a>
</g>
</g>
<!-- Node33 -->
<g id="Node000033" class="node">
<title>Node33</title>
<g id="a_Node000033"><a xlink:href="_linear_solvers_8_c.html" target="_top" xlink:title=" ">
<polygon fill="white" stroke="#666666" points="2948.5,-79.5 2856.5,-79.5 2856.5,-60.5 2948.5,-60.5 2948.5,-79.5"/>
<text text-anchor="middle" x="2902.5" y="-67.5" font-family="Helvetica,sans-Serif" font-size="10.00">LinearSolvers.C</text>
</a>
</g>
</g>
<!-- Node3&#45;&gt;Node33 -->
<g id="edge31_Node000003_Node000033" class="edge">
<title>Node3&#45;&gt;Node33</title>
<g id="a_edge31_Node000003_Node000033"><a xlink:title=" ">
<path fill="none" stroke="#63b8ff" d="M3251.71,-120.96C3120.03,-102.47 3084.15,-108.75 2957.5,-85 2949.56,-83.51 2941.06,-81.54 2933.18,-79.55"/>
<polygon fill="#63b8ff" stroke="#63b8ff" points="3251.38,-124.45 3261.77,-122.39 3252.37,-117.52 3251.38,-124.45"/>
</a>
</g>
</g>
<!-- Node34 -->
<g id="Node000034" class="node">
<title>Node34</title>
<g id="a_Node000034"><a xlink:href="_material_property_8_c.html" target="_top" xlink:title=" ">
<polygon fill="white" stroke="#666666" points="3074,-79.5 2967,-79.5 2967,-60.5 3074,-60.5 3074,-79.5"/>
<text text-anchor="middle" x="3020.5" y="-67.5" font-family="Helvetica,sans-Serif" font-size="10.00">MaterialProperty.C</text>
</a>
</g>
</g>
<!-- Node3&#45;&gt;Node34 -->
<g id="edge33_Node000003_Node000034" class="edge">
<title>Node3&#45;&gt;Node34</title>
<g id="a_edge33_Node000003_Node000034"><a xlink:title=" ">
<path fill="none" stroke="#63b8ff" d="M3251.83,-119.45C3206.99,-110.65 3140.38,-97.36 3082.5,-85 3074.41,-83.27 3065.73,-81.35 3057.52,-79.51"/>
<polygon fill="#63b8ff" stroke="#63b8ff" points="3251.41,-122.93 3261.89,-121.42 3252.75,-116.06 3251.41,-122.93"/>
</a>
</g>
</g>
<!-- Node35 -->
<g id="Node000035" class="node">
<title>Node35</title>
<g id="a_Node000035"><a xlink:href="_material_propertys_8_c.html" target="_top" xlink:title=" ">
<polygon fill="white" stroke="#666666" points="3205,-79.5 3092,-79.5 3092,-60.5 3205,-60.5 3205,-79.5"/>
<text text-anchor="middle" x="3148.5" y="-67.5" font-family="Helvetica,sans-Serif" font-size="10.00">MaterialPropertys.C</text>
</a>
</g>
</g>
<!-- Node3&#45;&gt;Node35 -->
<g id="edge34_Node000003_Node000035" class="edge">
<title>Node3&#45;&gt;Node35</title>
<g id="a_edge34_Node000003_Node000035"><a xlink:title=" ">
<path fill="none" stroke="#63b8ff" d="M3271.38,-117.38C3241.42,-106.07 3197.48,-89.49 3171.07,-79.52"/>
<polygon fill="#63b8ff" stroke="#63b8ff" points="3270.37,-120.74 3280.96,-120.99 3272.84,-114.19 3270.37,-120.74"/>
</a>
</g>
</g>
<!-- Node36 -->
<g id="Node000036" class="node">
<title>Node36</title>
<g id="a_Node000036"><a xlink:href="_matrix_free_heat_cond_equation_system_8_c.html" target="_top" xlink:title=" ">
<polygon fill="white" stroke="#666666" points="3383.5,-85 3223.5,-85 3223.5,-55 3383.5,-55 3383.5,-85"/>
<text text-anchor="start" x="3231.5" y="-73" font-family="Helvetica,sans-Serif" font-size="10.00">MatrixFreeHeatCondEquation</text>
<text text-anchor="middle" x="3303.5" y="-62" font-family="Helvetica,sans-Serif" font-size="10.00">System.C</text>
</a>
</g>
</g>
<!-- Node3&#45;&gt;Node36 -->
<g id="edge35_Node000003_Node000036" class="edge">
<title>Node3&#45;&gt;Node36</title>
<g id="a_edge35_Node000003_Node000036"><a xlink:title=" ">
<path fill="none" stroke="#63b8ff" d="M3303.5,-110.65C3303.5,-102.36 3303.5,-92.78 3303.5,-85.11"/>
<polygon fill="#63b8ff" stroke="#63b8ff" points="3300,-110.87 3303.5,-120.87 3307,-110.87 3300,-110.87"/>
</a>
</g>
</g>
<!-- Node37 -->
<g id="Node000037" class="node">
<title>Node37</title>
<g id="a_Node000037"><a xlink:href="_matrix_free_low_mach_equation_system_8_c.html" target="_top" xlink:title=" ">
<polygon fill="white" stroke="#666666" points="3559.5,-85 3401.5,-85 3401.5,-55 3559.5,-55 3559.5,-85"/>
<text text-anchor="start" x="3409.5" y="-73" font-family="Helvetica,sans-Serif" font-size="10.00">MatrixFreeLowMachEquation</text>
<text text-anchor="middle" x="3480.5" y="-62" font-family="Helvetica,sans-Serif" font-size="10.00">System.C</text>
</a>
</g>
</g>
<!-- Node3&#45;&gt;Node37 -->
<g id="edge36_Node000003_Node000037" class="edge">
<title>Node3&#45;&gt;Node37</title>
<g id="a_edge36_Node000003_Node000037"><a xlink:title=" ">
<path fill="none" stroke="#63b8ff" d="M3338.81,-117.83C3367.35,-108.4 3407.63,-95.09 3437.95,-85.06"/>
<polygon fill="#63b8ff" stroke="#63b8ff" points="3337.63,-114.53 3329.24,-120.99 3339.83,-121.18 3337.63,-114.53"/>
</a>
</g>
</g>
<!-- Node38 -->
<g id="Node000038" class="node">
<title>Node38</title>
<g id="a_Node000038"><a xlink:href="_mesh_motion_alg_8_c.html" target="_top" xlink:title=" ">
<polygon fill="white" stroke="#666666" points="3679.5,-79.5 3577.5,-79.5 3577.5,-60.5 3679.5,-60.5 3679.5,-79.5"/>
<text text-anchor="middle" x="3628.5" y="-67.5" font-family="Helvetica,sans-Serif" font-size="10.00">MeshMotionAlg.C</text>
</a>
</g>
</g>
<!-- Node3&#45;&gt;Node38 -->
<g id="edge37_Node000003_Node000038" class="edge">
<title>Node3&#45;&gt;Node38</title>
<g id="a_edge37_Node000003_Node000038"><a xlink:title=" ">
<path fill="none" stroke="#63b8ff" d="M3355.35,-121.78C3408.91,-113.58 3494.8,-99.77 3568.5,-85 3576.68,-83.36 3585.45,-81.42 3593.68,-79.51"/>
<polygon fill="#63b8ff" stroke="#63b8ff" points="3354.77,-118.33 3345.42,-123.29 3355.83,-125.25 3354.77,-118.33"/>
</a>
</g>
</g>
<!-- Node39 -->
<g id="Node000039" class="node">
<title>Node39</title>
<g id="a_Node000039"><a xlink:href="_mesh_transformation_alg_8_c.html" target="_top" xlink:title=" ">
<polygon fill="white" stroke="#666666" points="3839.5,-79.5 3697.5,-79.5 3697.5,-60.5 3839.5,-60.5 3839.5,-79.5"/>
<text text-anchor="middle" x="3768.5" y="-67.5" font-family="Helvetica,sans-Serif" font-size="10.00">MeshTransformationAlg.C</text>
</a>
</g>
</g>
<!-- Node3&#45;&gt;Node39 -->
<g id="edge38_Node000003_Node000039" class="edge">
<title>Node3&#45;&gt;Node39</title>
<g id="a_edge38_Node000003_Node000039"><a xlink:title=" ">
<path fill="none" stroke="#63b8ff" d="M3355.19,-124.49C3429.2,-117.1 3569.58,-102.26 3688.5,-85 3699.52,-83.4 3711.36,-81.45 3722.46,-79.53"/>
<polygon fill="#63b8ff" stroke="#63b8ff" points="3354.8,-121.01 3345.19,-125.48 3355.49,-127.98 3354.8,-121.01"/>
</a>
</g>
</g>
<!-- Node40 -->
<g id="Node000040" class="node">
<title>Node40</title>
<g id="a_Node000040"><a xlink:href="_motion_deforming_interior_kernel_8_c.html" target="_top" xlink:title=" ">
<polygon fill="white" stroke="#666666" points="4035.5,-79.5 3857.5,-79.5 3857.5,-60.5 4035.5,-60.5 4035.5,-79.5"/>
<text text-anchor="middle" x="3946.5" y="-67.5" font-family="Helvetica,sans-Serif" font-size="10.00">MotionDeformingInteriorKernel.C</text>
</a>
</g>
</g>
<!-- Node3&#45;&gt;Node40 -->
<g id="edge39_Node000003_Node000040" class="edge">
<title>Node3&#45;&gt;Node40</title>
<g id="a_edge39_Node000003_Node000040"><a xlink:title=" ">
<path fill="none" stroke="#63b8ff" d="M3355.42,-126.31C3452.45,-120.11 3667.82,-105.26 3848.5,-85 3862.33,-83.45 3877.23,-81.48 3891.12,-79.51"/>
<polygon fill="#63b8ff" stroke="#63b8ff" points="3355.05,-122.83 3345.29,-126.95 3355.49,-129.81 3355.05,-122.83"/>
</a>
</g>
</g>
<!-- Node41 -->
<g id="Node000041" class="node">
<title>Node41</title>
<g id="a_Node000041"><a xlink:href="_motion_oscillation_kernel_8_c.html" target="_top" xlink:title=" ">
<polygon fill="white" stroke="#666666" points="4197,-79.5 4054,-79.5 4054,-60.5 4197,-60.5 4197,-79.5"/>
<text text-anchor="middle" x="4125.5" y="-67.5" font-family="Helvetica,sans-Serif" font-size="10.00">MotionOscillationKernel.C</text>
</a>
</g>
</g>
<!-- Node3&#45;&gt;Node41 -->
<g id="edge40_Node000003_Node000041" class="edge">
<title>Node3&#45;&gt;Node41</title>
<g id="a_edge40_Node000003_Node000041"><a xlink:title=" ">
<path fill="none" stroke="#63b8ff" d="M3355.09,-128.37C3475.96,-125.31 3786.7,-114.93 4044.5,-85 4056.55,-83.6 4069.53,-81.59 4081.49,-79.52"/>
<polygon fill="#63b8ff" stroke="#63b8ff" points="3354.93,-124.88 3345.02,-128.62 3355.1,-131.88 3354.93,-124.88"/>
</a>
</g>
</g>
<!-- Node42 -->
<g id="Node000042" class="node">
<title>Node42</title>
<g id="a_Node000042"><a xlink:href="_motion_prescribed_kernel_8_c.html" target="_top" xlink:title=" ">
<polygon fill="white" stroke="#666666" points="4357.5,-79.5 4215.5,-79.5 4215.5,-60.5 4357.5,-60.5 4357.5,-79.5"/>
<text text-anchor="middle" x="4286.5" y="-67.5" font-family="Helvetica,sans-Serif" font-size="10.00">MotionPrescribedKernel.C</text>
</a>
</g>
</g>
<!-- Node3&#45;&gt;Node42 -->
<g id="edge41_Node000003_Node000042" class="edge">
<title>Node3&#45;&gt;Node42</title>
<g id="a_edge41_Node000003_Node000042"><a xlink:title=" ">
<path fill="none" stroke="#63b8ff" d="M3355.79,-129.14C3494.63,-127.72 3883.9,-120.59 4205.5,-85 4217.7,-83.65 4230.84,-81.63 4242.92,-79.54"/>
<polygon fill="#63b8ff" stroke="#63b8ff" points="3355.42,-125.65 3345.45,-129.24 3355.49,-132.65 3355.42,-125.65"/>
</a>
</g>
</g>
<!-- Node43 -->
<g id="Node000043" class="node">
<title>Node43</title>
<g id="a_Node000043"><a xlink:href="_motion_rotation_kernel_8_c.html" target="_top" xlink:title=" ">
<polygon fill="white" stroke="#666666" points="4507.5,-79.5 4375.5,-79.5 4375.5,-60.5 4507.5,-60.5 4507.5,-79.5"/>
<text text-anchor="middle" x="4441.5" y="-67.5" font-family="Helvetica,sans-Serif" font-size="10.00">MotionRotationKernel.C</text>
</a>
</g>
</g>
<!-- Node3&#45;&gt;Node43 -->
<g id="edge42_Node000003_Node000043" class="edge">
<title>Node3&#45;&gt;Node43</title>
<g id="a_edge42_Node000003_Node000043"><a xlink:title=" ">
<path fill="none" stroke="#63b8ff" d="M3355.34,-129.94C3509.74,-130.7 3979.88,-128.95 4366.5,-85 4377.95,-83.7 4390.28,-81.66 4401.57,-79.55"/>
<polygon fill="#63b8ff" stroke="#63b8ff" points="3355.22,-126.44 3345.2,-129.89 3355.18,-133.44 3355.22,-126.44"/>
</a>
</g>
</g>
<!-- Node44 -->
<g id="Node000044" class="node">
<title>Node44</title>
<g id="a_Node000044"><a xlink:href="_motion_scaling_kernel_8_c.html" target="_top" xlink:title=" ">
<polygon fill="white" stroke="#666666" points="4651.5,-79.5 4525.5,-79.5 4525.5,-60.5 4651.5,-60.5 4651.5,-79.5"/>
<text text-anchor="middle" x="4588.5" y="-67.5" font-family="Helvetica,sans-Serif" font-size="10.00">MotionScalingKernel.C</text>
</a>
</g>
</g>
<!-- Node3&#45;&gt;Node44 -->
<g id="edge43_Node000003_Node000044" class="edge">
<title>Node3&#45;&gt;Node44</title>
<g id="a_edge43_Node000003_Node000044"><a xlink:title=" ">
<path fill="none" stroke="#63b8ff" d="M3355.26,-128.67C3556.39,-125.29 4286.29,-111.44 4516.5,-85 4527.63,-83.72 4539.62,-81.67 4550.56,-79.52"/>
<polygon fill="#63b8ff" stroke="#63b8ff" points="3355.19,-125.17 3345.25,-128.84 3355.31,-132.17 3355.19,-125.17"/>
</a>
</g>
</g>
<!-- Node45 -->
<g id="Node000045" class="node">
<title>Node45</title>
<g id="a_Node000045"><a xlink:href="_motion_translation_kernel_8_c.html" target="_top" xlink:title=" ">
<polygon fill="white" stroke="#666666" points="4813.5,-79.5 4669.5,-79.5 4669.5,-60.5 4813.5,-60.5 4813.5,-79.5"/>
<text text-anchor="middle" x="4741.5" y="-67.5" font-family="Helvetica,sans-Serif" font-size="10.00">MotionTranslationKernel.C</text>
</a>
</g>
</g>
<!-- Node3&#45;&gt;Node45 -->
<g id="edge44_Node000003_Node000045" class="edge">
<title>Node3&#45;&gt;Node45</title>
<g id="a_edge44_Node000003_Node000045"><a xlink:title=" ">
<path fill="none" stroke="#63b8ff" d="M3355.21,-128.76C3570.96,-125.54 4400.23,-111.63 4660.5,-85 4672.99,-83.72 4686.47,-81.67 4698.77,-79.52"/>
<polygon fill="#63b8ff" stroke="#63b8ff" points="3355.05,-125.26 3345.11,-128.91 3355.16,-132.26 3355.05,-125.26"/>
</a>
</g>
</g>
<!-- Node46 -->
<g id="Node000046" class="node">
<title>Node46</title>
<g id="a_Node000046"><a xlink:href="_motion_waves_kernel_8_c.html" target="_top" xlink:title=" ">
<polygon fill="white" stroke="#666666" points="4955,-79.5 4832,-79.5 4832,-60.5 4955,-60.5 4955,-79.5"/>
<text text-anchor="middle" x="4893.5" y="-67.5" font-family="Helvetica,sans-Serif" font-size="10.00">MotionWavesKernel.C</text>
</a>
</g>
</g>
<!-- Node3&#45;&gt;Node46 -->
<g id="edge45_Node000003_Node000046" class="edge">
<title>Node3&#45;&gt;Node46</title>
<g id="a_edge45_Node000003_Node000046"><a xlink:title=" ">
<path fill="none" stroke="#63b8ff" d="M3355.21,-129.13C3586.67,-127.32 4528.95,-118.01 4822.5,-85 4833.61,-83.75 4845.58,-81.68 4856.46,-79.5"/>
<polygon fill="#63b8ff" stroke="#63b8ff" points="3355.02,-125.64 3345.05,-129.21 3355.08,-132.64 3355.02,-125.64"/>
</a>
</g>
</g>
<!-- Node47 -->
<g id="Node000047" class="node">
<title>Node47</title>
<g id="a_Node000047"><a xlink:href="_nalu_parsing_8_c.html" target="_top" xlink:title=" ">
<polygon fill="white" stroke="#666666" points="5057.5,-79.5 4973.5,-79.5 4973.5,-60.5 5057.5,-60.5 5057.5,-79.5"/>
<text text-anchor="middle" x="5015.5" y="-67.5" font-family="Helvetica,sans-Serif" font-size="10.00">NaluParsing.C</text>
</a>
</g>
</g>
<!-- Node3&#45;&gt;Node47 -->
<g id="edge46_Node000003_Node000047" class="edge">
<title>Node3&#45;&gt;Node47</title>
<g id="a_edge46_Node000003_Node000047"><a xlink:title=" ">
<path fill="none" stroke="#63b8ff" d="M3355.24,-129.76C3599.88,-130.71 4642.01,-131.91 4963.5,-85 4971.73,-83.8 4980.53,-81.74 4988.5,-79.57"/>
<polygon fill="#63b8ff" stroke="#63b8ff" points="3355.21,-126.26 3345.2,-129.71 3355.18,-133.26 3355.21,-126.26"/>
</a>
</g>
</g>
<!-- Node48 -->
<g id="Node000048" class="node">
<title>Node48</title>
<g id="a_Node000048"><a xlink:href="_openfast_f_s_i_8_c.html" target="_top" xlink:title=" ">
<polygon fill="white" stroke="#666666" points="5161,-79.5 5076,-79.5 5076,-60.5 5161,-60.5 5161,-79.5"/>
<text text-anchor="middle" x="5118.5" y="-67.5" font-family="Helvetica,sans-Serif" font-size="10.00">OpenfastFSI.C</text>
</a>
</g>
</g>
<!-- Node3&#45;&gt;Node48 -->
<g id="edge47_Node000003_Node000048" class="edge">
<title>Node3&#45;&gt;Node48</title>
<g id="a_edge47_Node000003_Node000048"><a xlink:title=" ">
<path fill="none" stroke="#63b8ff" d="M3355.27,-128.93C3628.17,-125.81 4893.65,-110.08 5066.5,-85 5074.83,-83.79 5083.73,-81.7 5091.77,-79.5"/>
<polygon fill="#63b8ff" stroke="#63b8ff" points="3355.2,-125.43 3345.24,-129.04 3355.28,-132.43 3355.2,-125.43"/>
</a>
</g>
</g>
<!-- Node49 -->
<g id="Node000049" class="node">
<title>Node49</title>
<g id="a_Node000049"><a xlink:href="_output_info_8_c.html" target="_top" xlink:title=" ">
<polygon fill="white" stroke="#666666" points="5257.5,-79.5 5179.5,-79.5 5179.5,-60.5 5257.5,-60.5 5257.5,-79.5"/>
<text text-anchor="middle" x="5218.5" y="-67.5" font-family="Helvetica,sans-Serif" font-size="10.00">OutputInfo.C</text>
</a>
</g>
</g>
<!-- Node3&#45;&gt;Node49 -->
<g id="edge48_Node000003_Node000049" class="edge">
<title>Node3&#45;&gt;Node49</title>
<g id="a_edge48_Node000003_Node000049"><a xlink:title=" ">
<path fill="none" stroke="#63b8ff" d="M3355.53,-129.05C3638.47,-126.49 4986.15,-112.91 5169.5,-85 5177.37,-83.8 5185.77,-81.72 5193.34,-79.51"/>
<polygon fill="#63b8ff" stroke="#63b8ff" points="3355.11,-125.55 3345.14,-129.14 3355.17,-132.55 3355.11,-125.55"/>
</a>
</g>
</g>
<!-- Node50 -->
<g id="Node000050" class="node">
<title>Node50</title>
<g id="a_Node000050"><a xlink:href="_post_processing_info_8_c.html" target="_top" xlink:title=" ">
<polygon fill="white" stroke="#666666" points="5395,-79.5 5276,-79.5 5276,-60.5 5395,-60.5 5395,-79.5"/>
<text text-anchor="middle" x="5335.5" y="-67.5" font-family="Helvetica,sans-Serif" font-size="10.00">PostProcessingInfo.C</text>
</a>
</g>
</g>
<!-- Node3&#45;&gt;Node50 -->
<g id="edge49_Node000003_Node000050" class="edge">
<title>Node3&#45;&gt;Node50</title>
<g id="a_edge49_Node000003_Node000050"><a xlink:title=" ">
<path fill="none" stroke="#63b8ff" d="M3355.55,-129.57C3626.8,-129.75 4880.59,-128.18 5266.5,-85 5277.31,-83.79 5288.94,-81.73 5299.52,-79.56"/>
<polygon fill="#63b8ff" stroke="#63b8ff" points="3355.22,-126.07 3345.21,-129.56 3355.21,-133.07 3355.22,-126.07"/>
</a>
</g>
</g>
<!-- Node3&#45;&gt;Node51 -->
<g id="edge50_Node000003_Node000051" class="edge">
<title>Node3&#45;&gt;Node51</title>
<g id="a_edge50_Node000003_Node000051"><a xlink:title=" ">
<path fill="none" stroke="#63b8ff" d="M3355.2,-129.13C3715.66,-126.5 5842.91,-109.97 5976.5,-85 5982.72,-83.84 5989.26,-81.76 5995.13,-79.56"/>
<polygon fill="#63b8ff" stroke="#63b8ff" points="3355.03,-125.63 3345.06,-129.21 3355.08,-132.63 3355.03,-125.63"/>
</a>
</g>
</g>
<!-- Node3&#45;&gt;Node62 -->
<g id="edge51_Node000003_Node000062" class="edge">
<title>Node3&#45;&gt;Node62</title>
<g id="a_edge51_Node000003_Node000062"><a xlink:title=" ">
<path fill="none" stroke="#63b8ff" d="M3355.34,-129.61C3710.4,-130.25 5777.38,-131.93 6052.5,-85 6059.32,-83.84 6066.53,-81.76 6073.02,-79.56"/>
<polygon fill="#63b8ff" stroke="#63b8ff" points="3355.11,-126.11 3345.1,-129.59 3355.09,-133.11 3355.11,-126.11"/>
</a>
</g>
</g>
<!-- Node5&#45;&gt;Node7 -->
<g id="edge5_Node000005_Node000007" class="edge">
<title>Node5&#45;&gt;Node7</title>
<g id="a_edge5_Node000005_Node000007"><a xlink:title=" ">
<path fill="none" stroke="#63b8ff" d="M5627.26,-51.8C5634.59,-41.08 5643.72,-27.73 5649.57,-19.17"/>
<polygon fill="#63b8ff" stroke="#63b8ff" points="5624.16,-50.14 5621.4,-60.37 5629.94,-54.09 5624.16,-50.14"/>
</a>
</g>
</g>
<!-- Node8&#45;&gt;Node10 -->
<g id="edge7_Node000008_Node000010" class="edge">
<title>Node8&#45;&gt;Node10</title>
<g id="a_edge7_Node000008_Node000010"><a xlink:title=" ">
<path fill="none" stroke="#63b8ff" d="M5780.98,-51.48C5787.37,-40.81 5795.24,-27.65 5800.31,-19.17"/>
<polygon fill="#63b8ff" stroke="#63b8ff" points="5777.8,-49.99 5775.66,-60.37 5783.8,-53.58 5777.8,-49.99"/>
</a>
</g>
</g>
</g>
</svg>
