<?xml version="1.0" encoding="UTF-8" standalone="no"?>
<!DOCTYPE svg PUBLIC "-//W3C//DTD SVG 1.1//EN"
 "http://www.w3.org/Graphics/SVG/1.1/DTD/svg11.dtd">
<!-- Generated by graphviz version 2.43.0 (0)
 -->
<!-- Title: NgpMotion.h Pages: 1 -->
<svg width="1868pt" height="247pt"
 viewBox="0.00 0.00 1868.00 247.00" xmlns="http://www.w3.org/2000/svg" xmlns:xlink="http://www.w3.org/1999/xlink">
<g id="graph0" class="graph" transform="scale(1 1) rotate(0) translate(4 243)">
<title>NgpMotion.h</title>
<!-- Node1 -->
<g id="Node000001" class="node">
<title>Node1</title>
<g id="a_Node000001"><a xlink:title=" ">
<polygon fill="#999999" stroke="#666666" points="859.5,-239 780.5,-239 780.5,-220 859.5,-220 859.5,-239"/>
<text text-anchor="middle" x="820" y="-227" font-family="Helvetica,sans-Serif" font-size="10.00">NgpMotion.h</text>
</a>
</g>
</g>
<!-- Node2 -->
<g id="Node000002" class="node">
<title>Node2</title>
<g id="a_Node000002"><a xlink:href="_frame_base_8h.html" target="_top" xlink:title=" ">
<polygon fill="white" stroke="#666666" points="1447,-184 1367,-184 1367,-165 1447,-165 1447,-184"/>
<text text-anchor="middle" x="1407" y="-172" font-family="Helvetica,sans-Serif" font-size="10.00">FrameBase.h</text>
</a>
</g>
</g>
<!-- Node1&#45;&gt;Node2 -->
<g id="edge1_Node000001_Node000002" class="edge">
<title>Node1&#45;&gt;Node2</title>
<g id="a_edge1_Node000001_Node000002"><a xlink:title=" ">
<path fill="none" stroke="#63b8ff" d="M869.66,-224.11C958.97,-216.19 1152.64,-198.96 1316,-184 1332.59,-182.48 1350.88,-180.78 1366.69,-179.3"/>
<polygon fill="#63b8ff" stroke="#63b8ff" points="869.2,-220.63 859.55,-225 869.82,-227.61 869.2,-220.63"/>
</a>
</g>
</g>
<!-- Node14 -->
<g id="Node000014" class="node">
<title>Node14</title>
<g id="a_Node000014"><a xlink:href="_motion_deforming_interior_kernel_8h.html" target="_top" xlink:title=" ">
<polygon fill="white" stroke="#666666" points="202.5,-184 25.5,-184 25.5,-165 202.5,-165 202.5,-184"/>
<text text-anchor="middle" x="114" y="-172" font-family="Helvetica,sans-Serif" font-size="10.00">MotionDeformingInteriorKernel.h</text>
</a>
</g>
</g>
<!-- Node1&#45;&gt;Node14 -->
<g id="edge16_Node000001_Node000014" class="edge">
<title>Node1&#45;&gt;Node14</title>
<g id="a_edge16_Node000001_Node000014"><a xlink:title=" ">
<path fill="none" stroke="#63b8ff" d="M769.95,-225.07C665.98,-217.88 419.06,-200.56 212,-184 208.94,-183.75 205.82,-183.5 202.67,-183.24"/>
<polygon fill="#63b8ff" stroke="#63b8ff" points="769.93,-228.57 780.15,-225.77 770.41,-221.59 769.93,-228.57"/>
</a>
</g>
</g>
<!-- Node16 -->
<g id="Node000016" class="node">
<title>Node16</title>
<g id="a_Node000016"><a xlink:href="_motion_oscillation_kernel_8h.html" target="_top" xlink:title=" ">
<polygon fill="white" stroke="#666666" points="363,-184 221,-184 221,-165 363,-165 363,-184"/>
<text text-anchor="middle" x="292" y="-172" font-family="Helvetica,sans-Serif" font-size="10.00">MotionOscillationKernel.h</text>
</a>
</g>
</g>
<!-- Node1&#45;&gt;Node16 -->
<g id="edge19_Node000001_Node000016" class="edge">
<title>Node1&#45;&gt;Node16</title>
<g id="a_edge19_Node000001_Node000016"><a xlink:title=" ">
<path fill="none" stroke="#63b8ff" d="M770.33,-223.68C687.66,-215.63 516.65,-198.87 372,-184 369.08,-183.7 366.1,-183.39 363.1,-183.08"/>
<polygon fill="#63b8ff" stroke="#63b8ff" points="770.15,-227.18 780.44,-224.66 770.82,-220.21 770.15,-227.18"/>
</a>
</g>
</g>
<!-- Node18 -->
<g id="Node000018" class="node">
<title>Node18</title>
<g id="a_Node000018"><a xlink:href="_motion_prescribed_kernel_8_c.html" target="_top" xlink:title=" ">
<polygon fill="white" stroke="#666666" points="1355,-129 1213,-129 1213,-110 1355,-110 1355,-129"/>
<text text-anchor="middle" x="1284" y="-117" font-family="Helvetica,sans-Serif" font-size="10.00">MotionPrescribedKernel.C</text>
</a>
</g>
</g>
<!-- Node1&#45;&gt;Node18 -->
<g id="edge22_Node000001_Node000018" class="edge">
<title>Node1&#45;&gt;Node18</title>
<g id="a_edge22_Node000001_Node000018"><a xlink:title=" ">
<path fill="none" stroke="#63b8ff" d="M869.92,-227.38C983.86,-224.32 1255.38,-213.92 1283,-184 1296.76,-169.09 1291.26,-142.81 1287.07,-129.21"/>
<polygon fill="#63b8ff" stroke="#63b8ff" points="869.63,-223.89 859.72,-227.65 869.81,-230.89 869.63,-223.89"/>
</a>
</g>
</g>
<!-- Node19 -->
<g id="Node000019" class="node">
<title>Node19</title>
<g id="a_Node000019"><a xlink:href="_motion_prescribed_kernel_8h.html" target="_top" xlink:title=" ">
<polygon fill="white" stroke="#666666" points="1273.5,-184 1132.5,-184 1132.5,-165 1273.5,-165 1273.5,-184"/>
<text text-anchor="middle" x="1203" y="-172" font-family="Helvetica,sans-Serif" font-size="10.00">MotionPrescribedKernel.h</text>
</a>
</g>
</g>
<!-- Node1&#45;&gt;Node19 -->
<g id="edge23_Node000001_Node000019" class="edge">
<title>Node1&#45;&gt;Node19</title>
<g id="a_edge23_Node000001_Node000019"><a xlink:title=" ">
<path fill="none" stroke="#63b8ff" d="M869.81,-221.61C939.46,-211.97 1065.86,-194.48 1141.36,-184.03"/>
<polygon fill="#63b8ff" stroke="#63b8ff" points="868.97,-218.19 859.55,-223.03 869.93,-225.12 868.97,-218.19"/>
</a>
</g>
</g>
<!-- Node20 -->
<g id="Node000020" class="node">
<title>Node20</title>
<g id="a_Node000020"><a xlink:href="_motion_rotation_kernel_8h.html" target="_top" xlink:title=" ">
<polygon fill="white" stroke="#666666" points="512.5,-184 381.5,-184 381.5,-165 512.5,-165 512.5,-184"/>
<text text-anchor="middle" x="447" y="-172" font-family="Helvetica,sans-Serif" font-size="10.00">MotionRotationKernel.h</text>
</a>
</g>
</g>
<!-- Node1&#45;&gt;Node20 -->
<g id="edge26_Node000001_Node000020" class="edge">
<title>Node1&#45;&gt;Node20</title>
<g id="a_edge26_Node000001_Node000020"><a xlink:title=" ">
<path fill="none" stroke="#63b8ff" d="M770.39,-221.45C702.32,-211.78 580.09,-194.41 506.97,-184.02"/>
<polygon fill="#63b8ff" stroke="#63b8ff" points="770.04,-224.94 780.44,-222.88 771.03,-218.01 770.04,-224.94"/>
</a>
</g>
</g>
<!-- Node22 -->
<g id="Node000022" class="node">
<title>Node22</title>
<g id="a_Node000022"><a xlink:href="_motion_scaling_kernel_8h.html" target="_top" xlink:title=" ">
<polygon fill="white" stroke="#666666" points="655.5,-184 530.5,-184 530.5,-165 655.5,-165 655.5,-184"/>
<text text-anchor="middle" x="593" y="-172" font-family="Helvetica,sans-Serif" font-size="10.00">MotionScalingKernel.h</text>
</a>
</g>
</g>
<!-- Node1&#45;&gt;Node22 -->
<g id="edge29_Node000001_Node000022" class="edge">
<title>Node1&#45;&gt;Node22</title>
<g id="a_edge29_Node000001_Node000022"><a xlink:title=" ">
<path fill="none" stroke="#63b8ff" d="M773.7,-217.69C731.17,-207.76 668.97,-193.24 629.76,-184.08"/>
<polygon fill="#63b8ff" stroke="#63b8ff" points="772.99,-221.12 783.53,-219.98 774.59,-214.3 772.99,-221.12"/>
</a>
</g>
</g>
<!-- Node24 -->
<g id="Node000024" class="node">
<title>Node24</title>
<g id="a_Node000024"><a xlink:href="_motion_translation_kernel_8h.html" target="_top" xlink:title=" ">
<polygon fill="white" stroke="#666666" points="816.5,-184 673.5,-184 673.5,-165 816.5,-165 816.5,-184"/>
<text text-anchor="middle" x="745" y="-172" font-family="Helvetica,sans-Serif" font-size="10.00">MotionTranslationKernel.h</text>
</a>
</g>
</g>
<!-- Node1&#45;&gt;Node24 -->
<g id="edge32_Node000001_Node000024" class="edge">
<title>Node1&#45;&gt;Node24</title>
<g id="a_edge32_Node000001_Node000024"><a xlink:title=" ">
<path fill="none" stroke="#63b8ff" d="M799.69,-214.15C786.14,-204.57 768.76,-192.29 757.27,-184.17"/>
<polygon fill="#63b8ff" stroke="#63b8ff" points="797.76,-217.07 807.95,-219.98 801.8,-211.36 797.76,-217.07"/>
</a>
</g>
</g>
<!-- Node26 -->
<g id="Node000026" class="node">
<title>Node26</title>
<g id="a_Node000026"><a xlink:href="_motion_waves_kernel_8h.html" target="_top" xlink:title=" ">
<polygon fill="white" stroke="#666666" points="957,-184 835,-184 835,-165 957,-165 957,-184"/>
<text text-anchor="middle" x="896" y="-172" font-family="Helvetica,sans-Serif" font-size="10.00">MotionWavesKernel.h</text>
</a>
</g>
</g>
<!-- Node1&#45;&gt;Node26 -->
<g id="edge35_Node000001_Node000026" class="edge">
<title>Node1&#45;&gt;Node26</title>
<g id="a_edge35_Node000001_Node000026"><a xlink:title=" ">
<path fill="none" stroke="#63b8ff" d="M840.58,-214.15C854.31,-204.57 871.93,-192.29 883.57,-184.17"/>
<polygon fill="#63b8ff" stroke="#63b8ff" points="838.41,-211.39 832.21,-219.98 842.42,-217.14 838.41,-211.39"/>
</a>
</g>
</g>
<!-- Node28 -->
<g id="Node000028" class="node">
<title>Node28</title>
<g id="a_Node000028"><a xlink:href="_turbine_surrogate_kernel_8h.html" target="_top" xlink:title=" ">
<polygon fill="white" stroke="#666666" points="1114.5,-184 975.5,-184 975.5,-165 1114.5,-165 1114.5,-184"/>
<text text-anchor="middle" x="1045" y="-172" font-family="Helvetica,sans-Serif" font-size="10.00">TurbineSurrogateKernel.h</text>
</a>
</g>
</g>
<!-- Node1&#45;&gt;Node28 -->
<g id="edge38_Node000001_Node000028" class="edge">
<title>Node1&#45;&gt;Node28</title>
<g id="a_edge38_Node000001_Node000028"><a xlink:title=" ">
<path fill="none" stroke="#63b8ff" d="M865.89,-217.69C908.05,-207.76 969.7,-193.24 1008.57,-184.08"/>
<polygon fill="#63b8ff" stroke="#63b8ff" points="865.08,-214.28 856.15,-219.98 866.69,-221.1 865.08,-214.28"/>
</a>
</g>
</g>
<!-- Node3 -->
<g id="Node000003" class="node">
<title>Node3</title>
<g id="a_Node000003"><a xlink:href="_frame_base_8_c.html" target="_top" xlink:title=" ">
<polygon fill="white" stroke="#666666" points="895.5,-129 814.5,-129 814.5,-110 895.5,-110 895.5,-129"/>
<text text-anchor="middle" x="855" y="-117" font-family="Helvetica,sans-Serif" font-size="10.00">FrameBase.C</text>
</a>
</g>
</g>
<!-- Node2&#45;&gt;Node3 -->
<g id="edge2_Node000002_Node000003" class="edge">
<title>Node2&#45;&gt;Node3</title>
<g id="a_edge2_Node000002_Node000003"><a xlink:title=" ">
<path fill="none" stroke="#63b8ff" d="M1356.69,-169.59C1247.29,-160.99 990.63,-140.33 904,-129 901.26,-128.64 898.44,-128.24 895.6,-127.81"/>
<polygon fill="#63b8ff" stroke="#63b8ff" points="1356.56,-173.09 1366.8,-170.38 1357.11,-166.11 1356.56,-173.09"/>
</a>
</g>
</g>
<!-- Node4 -->
<g id="Node000004" class="node">
<title>Node4</title>
<g id="a_Node000004"><a xlink:href="_frame_moving_8h.html" target="_top" xlink:title=" ">
<polygon fill="white" stroke="#666666" points="1719,-129 1627,-129 1627,-110 1719,-110 1719,-129"/>
<text text-anchor="middle" x="1673" y="-117" font-family="Helvetica,sans-Serif" font-size="10.00">FrameMoving.h</text>
</a>
</g>
</g>
<!-- Node2&#45;&gt;Node4 -->
<g id="edge3_Node000002_Node000004" class="edge">
<title>Node2&#45;&gt;Node4</title>
<g id="a_edge3_Node000002_Node000004"><a xlink:title=" ">
<path fill="none" stroke="#63b8ff" d="M1457.03,-163.53C1506.89,-153.6 1582.64,-138.5 1629.91,-129.09"/>
<polygon fill="#63b8ff" stroke="#63b8ff" points="1456.23,-160.12 1447.11,-165.51 1457.6,-166.99 1456.23,-160.12"/>
</a>
</g>
</g>
<!-- Node10 -->
<g id="Node000010" class="node">
<title>Node10</title>
<g id="a_Node000010"><a xlink:href="_frame_reference_8h.html" target="_top" xlink:title=" ">
<polygon fill="white" stroke="#666666" points="1479,-129 1373,-129 1373,-110 1479,-110 1479,-129"/>
<text text-anchor="middle" x="1426" y="-117" font-family="Helvetica,sans-Serif" font-size="10.00">FrameReference.h</text>
</a>
</g>
</g>
<!-- Node2&#45;&gt;Node10 -->
<g id="edge10_Node000002_Node000010" class="edge">
<title>Node2&#45;&gt;Node10</title>
<g id="a_edge10_Node000002_Node000010"><a xlink:title=" ">
<path fill="none" stroke="#63b8ff" d="M1413.55,-155.24C1416.72,-146.37 1420.39,-136.14 1422.92,-129.09"/>
<polygon fill="#63b8ff" stroke="#63b8ff" points="1410.22,-154.15 1410.14,-164.75 1416.81,-156.52 1410.22,-154.15"/>
</a>
</g>
</g>
<!-- Node5 -->
<g id="Node000005" class="node">
<title>Node5</title>
<g id="a_Node000005"><a xlink:href="_frame_moving_8_c.html" target="_top" xlink:title=" ">
<polygon fill="white" stroke="#666666" points="1661.5,-74 1568.5,-74 1568.5,-55 1661.5,-55 1661.5,-74"/>
<text text-anchor="middle" x="1615" y="-62" font-family="Helvetica,sans-Serif" font-size="10.00">FrameMoving.C</text>
</a>
</g>
</g>
<!-- Node4&#45;&gt;Node5 -->
<g id="edge4_Node000004_Node000005" class="edge">
<title>Node4&#45;&gt;Node5</title>
<g id="a_edge4_Node000004_Node000005"><a xlink:title=" ">
<path fill="none" stroke="#63b8ff" d="M1656.09,-103.04C1645.8,-93.64 1633.03,-81.98 1624.49,-74.17"/>
<polygon fill="#63b8ff" stroke="#63b8ff" points="1653.94,-105.82 1663.68,-109.98 1658.66,-100.66 1653.94,-105.82"/>
</a>
</g>
</g>
<!-- Node6 -->
<g id="Node000006" class="node">
<title>Node6</title>
<g id="a_Node000006"><a xlink:href="_mesh_motion_alg_8_c.html" target="_top" xlink:title=" ">
<polygon fill="white" stroke="#666666" points="1860,-19 1758,-19 1758,0 1860,0 1860,-19"/>
<text text-anchor="middle" x="1809" y="-7" font-family="Helvetica,sans-Serif" font-size="10.00">MeshMotionAlg.C</text>
</a>
</g>
</g>
<!-- Node4&#45;&gt;Node6 -->
<g id="edge5_Node000004_Node000006" class="edge">
<title>Node4&#45;&gt;Node6</title>
<g id="a_edge5_Node000004_Node000006"><a xlink:title=" ">
<path fill="none" stroke="#63b8ff" d="M1728.84,-108.38C1750.53,-101.87 1773.96,-91.25 1790,-74 1804.42,-58.49 1807.93,-32.47 1808.76,-19.06"/>
<polygon fill="#63b8ff" stroke="#63b8ff" points="1727.73,-105.06 1719.03,-111.1 1729.6,-111.81 1727.73,-105.06"/>
</a>
</g>
</g>
<!-- Node7 -->
<g id="Node000007" class="node">
<title>Node7</title>
<g id="a_Node000007"><a xlink:href="_mesh_motion_alg_8h.html" target="_top" xlink:title=" ">
<polygon fill="white" stroke="#666666" points="1780.5,-74 1679.5,-74 1679.5,-55 1780.5,-55 1780.5,-74"/>
<text text-anchor="middle" x="1730" y="-62" font-family="Helvetica,sans-Serif" font-size="10.00">MeshMotionAlg.h</text>
</a>
</g>
</g>
<!-- Node4&#45;&gt;Node7 -->
<g id="edge6_Node000004_Node000007" class="edge">
<title>Node4&#45;&gt;Node7</title>
<g id="a_edge6_Node000004_Node000007"><a xlink:title=" ">
<path fill="none" stroke="#63b8ff" d="M1689.62,-103.04C1699.73,-93.64 1712.28,-81.98 1720.68,-74.17"/>
<polygon fill="#63b8ff" stroke="#63b8ff" points="1687.1,-100.61 1682.16,-109.98 1691.86,-105.74 1687.1,-100.61"/>
</a>
</g>
</g>
<!-- Node7&#45;&gt;Node6 -->
<g id="edge7_Node000007_Node000006" class="edge">
<title>Node7&#45;&gt;Node6</title>
<g id="a_edge7_Node000007_Node000006"><a xlink:title=" ">
<path fill="none" stroke="#63b8ff" d="M1751.39,-49.15C1765.67,-39.57 1783.97,-27.29 1796.08,-19.17"/>
<polygon fill="#63b8ff" stroke="#63b8ff" points="1749.05,-46.51 1742.69,-54.98 1752.95,-52.32 1749.05,-46.51"/>
</a>
</g>
</g>
<!-- Node8 -->
<g id="Node000008" class="node">
<title>Node8</title>
<g id="a_Node000008"><a xlink:href="_realm_8_c.html" target="_top" xlink:title=" ">
<polygon fill="white" stroke="#666666" points="1539,-19 1481,-19 1481,0 1539,0 1539,-19"/>
<text text-anchor="middle" x="1510" y="-7" font-family="Helvetica,sans-Serif" font-size="10.00">Realm.C</text>
</a>
</g>
</g>
<!-- Node7&#45;&gt;Node8 -->
<g id="edge8_Node000007_Node000008" class="edge">
<title>Node7&#45;&gt;Node8</title>
<g id="a_edge8_Node000007_Node000008"><a xlink:title=" ">
<path fill="none" stroke="#63b8ff" d="M1684.87,-52.63C1641.28,-42.13 1576.54,-26.53 1539.28,-17.55"/>
<polygon fill="#63b8ff" stroke="#63b8ff" points="1684.11,-56.05 1694.65,-54.98 1685.75,-49.24 1684.11,-56.05"/>
</a>
</g>
</g>
<!-- Node9 -->
<g id="Node000009" class="node">
<title>Node9</title>
<g id="a_Node000009"><a xlink:href="_time_integrator_8_c.html" target="_top" xlink:title=" ">
<polygon fill="white" stroke="#666666" points="1740,-19 1642,-19 1642,0 1740,0 1740,-19"/>
<text text-anchor="middle" x="1691" y="-7" font-family="Helvetica,sans-Serif" font-size="10.00">TimeIntegrator.C</text>
</a>
</g>
</g>
<!-- Node7&#45;&gt;Node9 -->
<g id="edge9_Node000007_Node000009" class="edge">
<title>Node7&#45;&gt;Node9</title>
<g id="a_edge9_Node000007_Node000009"><a xlink:title=" ">
<path fill="none" stroke="#63b8ff" d="M1717.62,-46.67C1710.86,-37.5 1702.79,-26.52 1697.32,-19.09"/>
<polygon fill="#63b8ff" stroke="#63b8ff" points="1714.81,-48.77 1723.56,-54.75 1720.45,-44.62 1714.81,-48.77"/>
</a>
</g>
</g>
<!-- Node11 -->
<g id="Node000011" class="node">
<title>Node11</title>
<g id="a_Node000011"><a xlink:href="_frame_reference_8_c.html" target="_top" xlink:title=" ">
<polygon fill="white" stroke="#666666" points="1550.5,-74 1443.5,-74 1443.5,-55 1550.5,-55 1550.5,-74"/>
<text text-anchor="middle" x="1497" y="-62" font-family="Helvetica,sans-Serif" font-size="10.00">FrameReference.C</text>
</a>
</g>
</g>
<!-- Node10&#45;&gt;Node11 -->
<g id="edge11_Node000010_Node000011" class="edge">
<title>Node10&#45;&gt;Node11</title>
<g id="a_edge11_Node000010_Node000011"><a xlink:title=" ">
<path fill="none" stroke="#63b8ff" d="M1445.59,-103.88C1458.37,-94.34 1474.61,-82.21 1485.39,-74.17"/>
<polygon fill="#63b8ff" stroke="#63b8ff" points="1443.33,-101.2 1437.41,-109.98 1447.51,-106.81 1443.33,-101.2"/>
</a>
</g>
</g>
<!-- Node12 -->
<g id="Node000012" class="node">
<title>Node12</title>
<g id="a_Node000012"><a xlink:href="_mesh_transformation_alg_8_c.html" target="_top" xlink:title=" ">
<polygon fill="white" stroke="#666666" points="1377,-19 1235,-19 1235,0 1377,0 1377,-19"/>
<text text-anchor="middle" x="1306" y="-7" font-family="Helvetica,sans-Serif" font-size="10.00">MeshTransformationAlg.C</text>
</a>
</g>
</g>
<!-- Node10&#45;&gt;Node12 -->
<g id="edge12_Node000010_Node000012" class="edge">
<title>Node10&#45;&gt;Node12</title>
<g id="a_edge12_Node000010_Node000012"><a xlink:title=" ">
<path fill="none" stroke="#63b8ff" d="M1364.35,-107.89C1327.97,-100.23 1286.95,-88.67 1276,-74 1262.87,-56.41 1283.04,-32.16 1296.17,-19.32"/>
<polygon fill="#63b8ff" stroke="#63b8ff" points="1363.97,-111.38 1374.46,-109.95 1365.36,-104.52 1363.97,-111.38"/>
</a>
</g>
</g>
<!-- Node13 -->
<g id="Node000013" class="node">
<title>Node13</title>
<g id="a_Node000013"><a xlink:href="_mesh_transformation_alg_8h.html" target="_top" xlink:title=" ">
<polygon fill="white" stroke="#666666" points="1425.5,-74 1284.5,-74 1284.5,-55 1425.5,-55 1425.5,-74"/>
<text text-anchor="middle" x="1355" y="-62" font-family="Helvetica,sans-Serif" font-size="10.00">MeshTransformationAlg.h</text>
</a>
</g>
</g>
<!-- Node10&#45;&gt;Node13 -->
<g id="edge13_Node000010_Node000013" class="edge">
<title>Node10&#45;&gt;Node13</title>
<g id="a_edge13_Node000010_Node000013"><a xlink:title=" ">
<path fill="none" stroke="#63b8ff" d="M1406.41,-103.88C1393.63,-94.34 1377.39,-82.21 1366.61,-74.17"/>
<polygon fill="#63b8ff" stroke="#63b8ff" points="1404.49,-106.81 1414.59,-109.98 1408.67,-101.2 1404.49,-106.81"/>
</a>
</g>
</g>
<!-- Node13&#45;&gt;Node8 -->
<g id="edge15_Node000013_Node000008" class="edge">
<title>Node13&#45;&gt;Node8</title>
<g id="a_edge15_Node000013_Node000008"><a xlink:title=" ">
<path fill="none" stroke="#63b8ff" d="M1389.6,-51.67C1418.5,-41.79 1459.03,-27.93 1484.9,-19.08"/>
<polygon fill="#63b8ff" stroke="#63b8ff" points="1388.23,-48.44 1379.9,-54.98 1390.5,-55.06 1388.23,-48.44"/>
</a>
</g>
</g>
<!-- Node13&#45;&gt;Node12 -->
<g id="edge14_Node000013_Node000012" class="edge">
<title>Node13&#45;&gt;Node12</title>
<g id="a_edge14_Node000013_Node000012"><a xlink:title=" ">
<path fill="none" stroke="#63b8ff" d="M1339.97,-47.24C1331.38,-37.95 1320.96,-26.68 1313.94,-19.09"/>
<polygon fill="#63b8ff" stroke="#63b8ff" points="1337.55,-49.78 1346.91,-54.75 1342.69,-45.03 1337.55,-49.78"/>
</a>
</g>
</g>
<!-- Node14&#45;&gt;Node3 -->
<g id="edge17_Node000014_Node000003" class="edge">
<title>Node14&#45;&gt;Node3</title>
<g id="a_edge17_Node000014_Node000003"><a xlink:title=" ">
<path fill="none" stroke="#63b8ff" d="M212.95,-164.96C477.07,-145.93 546.02,-158.79 805,-129 808.06,-128.65 811.22,-128.23 814.39,-127.78"/>
<polygon fill="#63b8ff" stroke="#63b8ff" points="212.38,-161.49 202.67,-165.71 212.89,-168.47 212.38,-161.49"/>
</a>
</g>
</g>
<!-- Node15 -->
<g id="Node000015" class="node">
<title>Node15</title>
<g id="a_Node000015"><a xlink:href="_motion_deforming_interior_kernel_8_c.html" target="_top" xlink:title=" ">
<polygon fill="white" stroke="#666666" points="178,-129 0,-129 0,-110 178,-110 178,-129"/>
<text text-anchor="middle" x="89" y="-117" font-family="Helvetica,sans-Serif" font-size="10.00">MotionDeformingInteriorKernel.C</text>
</a>
</g>
</g>
<!-- Node14&#45;&gt;Node15 -->
<g id="edge18_Node000014_Node000015" class="edge">
<title>Node14&#45;&gt;Node15</title>
<g id="a_edge18_Node000014_Node000015"><a xlink:title=" ">
<path fill="none" stroke="#63b8ff" d="M105.52,-155.53C101.31,-146.6 96.41,-136.22 93.05,-129.09"/>
<polygon fill="#63b8ff" stroke="#63b8ff" points="102.44,-157.2 109.87,-164.75 108.77,-154.21 102.44,-157.2"/>
</a>
</g>
</g>
<!-- Node16&#45;&gt;Node3 -->
<g id="edge20_Node000016_Node000003" class="edge">
<title>Node16&#45;&gt;Node3</title>
<g id="a_edge20_Node000016_Node000003"><a xlink:title=" ">
<path fill="none" stroke="#63b8ff" d="M373.27,-164.91C565.97,-147.01 616.69,-152.79 805,-129 808.06,-128.61 811.21,-128.17 814.38,-127.7"/>
<polygon fill="#63b8ff" stroke="#63b8ff" points="372.72,-161.44 363.09,-165.86 373.37,-168.41 372.72,-161.44"/>
</a>
</g>
</g>
<!-- Node17 -->
<g id="Node000017" class="node">
<title>Node17</title>
<g id="a_Node000017"><a xlink:href="_motion_oscillation_kernel_8_c.html" target="_top" xlink:title=" ">
<polygon fill="white" stroke="#666666" points="339.5,-129 196.5,-129 196.5,-110 339.5,-110 339.5,-129"/>
<text text-anchor="middle" x="268" y="-117" font-family="Helvetica,sans-Serif" font-size="10.00">MotionOscillationKernel.C</text>
</a>
</g>
</g>
<!-- Node16&#45;&gt;Node17 -->
<g id="edge21_Node000016_Node000017" class="edge">
<title>Node16&#45;&gt;Node17</title>
<g id="a_edge21_Node000016_Node000017"><a xlink:title=" ">
<path fill="none" stroke="#63b8ff" d="M283.86,-155.53C279.82,-146.6 275.12,-136.22 271.89,-129.09"/>
<polygon fill="#63b8ff" stroke="#63b8ff" points="280.72,-157.08 288.04,-164.75 287.1,-154.19 280.72,-157.08"/>
</a>
</g>
</g>
<!-- Node19&#45;&gt;Node3 -->
<g id="edge24_Node000019_Node000003" class="edge">
<title>Node19&#45;&gt;Node3</title>
<g id="a_edge24_Node000019_Node000003"><a xlink:title=" ">
<path fill="none" stroke="#63b8ff" d="M1132.58,-163.51C1071.94,-154.78 982.12,-141.59 904,-129 901.27,-128.56 898.46,-128.1 895.63,-127.63"/>
<polygon fill="#63b8ff" stroke="#63b8ff" points="1132.41,-167.02 1142.8,-164.97 1133.4,-160.09 1132.41,-167.02"/>
</a>
</g>
</g>
<!-- Node19&#45;&gt;Node18 -->
<g id="edge25_Node000019_Node000018" class="edge">
<title>Node19&#45;&gt;Node18</title>
<g id="a_edge25_Node000019_Node000018"><a xlink:title=" ">
<path fill="none" stroke="#63b8ff" d="M1224.51,-159.42C1239.21,-149.81 1258.22,-137.37 1270.75,-129.17"/>
<polygon fill="#63b8ff" stroke="#63b8ff" points="1222.47,-156.58 1216.01,-164.98 1226.3,-162.44 1222.47,-156.58"/>
</a>
</g>
</g>
<!-- Node20&#45;&gt;Node3 -->
<g id="edge27_Node000020_Node000003" class="edge">
<title>Node20&#45;&gt;Node3</title>
<g id="a_edge27_Node000020_Node000003"><a xlink:title=" ">
<path fill="none" stroke="#63b8ff" d="M522.56,-164.51C611.03,-153.92 752.2,-136.77 805,-129 808.05,-128.55 811.2,-128.07 814.37,-127.56"/>
<polygon fill="#63b8ff" stroke="#63b8ff" points="522.08,-161.04 512.57,-165.71 522.91,-167.99 522.08,-161.04"/>
</a>
</g>
</g>
<!-- Node21 -->
<g id="Node000021" class="node">
<title>Node21</title>
<g id="a_Node000021"><a xlink:href="_motion_rotation_kernel_8_c.html" target="_top" xlink:title=" ">
<polygon fill="white" stroke="#666666" points="490,-129 358,-129 358,-110 490,-110 490,-129"/>
<text text-anchor="middle" x="424" y="-117" font-family="Helvetica,sans-Serif" font-size="10.00">MotionRotationKernel.C</text>
</a>
</g>
</g>
<!-- Node20&#45;&gt;Node21 -->
<g id="edge28_Node000020_Node000021" class="edge">
<title>Node20&#45;&gt;Node21</title>
<g id="a_edge28_Node000020_Node000021"><a xlink:title=" ">
<path fill="none" stroke="#63b8ff" d="M439.2,-155.53C435.32,-146.6 430.82,-136.22 427.73,-129.09"/>
<polygon fill="#63b8ff" stroke="#63b8ff" points="436.01,-156.97 443.2,-164.75 442.43,-154.18 436.01,-156.97"/>
</a>
</g>
</g>
<!-- Node22&#45;&gt;Node3 -->
<g id="edge30_Node000022_Node000003" class="edge">
<title>Node22&#45;&gt;Node3</title>
<g id="a_edge30_Node000022_Node000003"><a xlink:title=" ">
<path fill="none" stroke="#63b8ff" d="M645.01,-162.98C694.75,-152.92 768.73,-137.95 814.3,-128.73"/>
<polygon fill="#63b8ff" stroke="#63b8ff" points="644.2,-159.57 635.09,-164.98 645.59,-166.43 644.2,-159.57"/>
</a>
</g>
</g>
<!-- Node23 -->
<g id="Node000023" class="node">
<title>Node23</title>
<g id="a_Node000023"><a xlink:href="_motion_scaling_kernel_8_c.html" target="_top" xlink:title=" ">
<polygon fill="white" stroke="#666666" points="634,-129 508,-129 508,-110 634,-110 634,-129"/>
<text text-anchor="middle" x="571" y="-117" font-family="Helvetica,sans-Serif" font-size="10.00">MotionScalingKernel.C</text>
</a>
</g>
</g>
<!-- Node22&#45;&gt;Node23 -->
<g id="edge31_Node000022_Node000023" class="edge">
<title>Node22&#45;&gt;Node23</title>
<g id="a_edge31_Node000022_Node000023"><a xlink:title=" ">
<path fill="none" stroke="#63b8ff" d="M585.42,-155.24C581.74,-146.37 577.49,-136.14 574.57,-129.09"/>
<polygon fill="#63b8ff" stroke="#63b8ff" points="582.3,-156.85 589.37,-164.75 588.77,-154.17 582.3,-156.85"/>
</a>
</g>
</g>
<!-- Node24&#45;&gt;Node3 -->
<g id="edge33_Node000024_Node000003" class="edge">
<title>Node24&#45;&gt;Node3</title>
<g id="a_edge33_Node000024_Node000003"><a xlink:title=" ">
<path fill="none" stroke="#63b8ff" d="M771.7,-160.63C791.97,-150.87 819.27,-137.71 837.01,-129.17"/>
<polygon fill="#63b8ff" stroke="#63b8ff" points="770.16,-157.49 762.67,-164.98 773.2,-163.8 770.16,-157.49"/>
</a>
</g>
</g>
<!-- Node25 -->
<g id="Node000025" class="node">
<title>Node25</title>
<g id="a_Node000025"><a xlink:href="_motion_translation_kernel_8_c.html" target="_top" xlink:title=" ">
<polygon fill="white" stroke="#666666" points="796,-129 652,-129 652,-110 796,-110 796,-129"/>
<text text-anchor="middle" x="724" y="-117" font-family="Helvetica,sans-Serif" font-size="10.00">MotionTranslationKernel.C</text>
</a>
</g>
</g>
<!-- Node24&#45;&gt;Node25 -->
<g id="edge34_Node000024_Node000025" class="edge">
<title>Node24&#45;&gt;Node25</title>
<g id="a_edge34_Node000024_Node000025"><a xlink:title=" ">
<path fill="none" stroke="#63b8ff" d="M737.76,-155.24C734.25,-146.37 730.2,-136.14 727.4,-129.09"/>
<polygon fill="#63b8ff" stroke="#63b8ff" points="734.59,-156.74 741.53,-164.75 741.1,-154.16 734.59,-156.74"/>
</a>
</g>
</g>
<!-- Node26&#45;&gt;Node3 -->
<g id="edge36_Node000026_Node000003" class="edge">
<title>Node26&#45;&gt;Node3</title>
<g id="a_edge36_Node000026_Node000003"><a xlink:title=" ">
<path fill="none" stroke="#63b8ff" d="M882.98,-156.67C875.88,-147.5 867.4,-136.52 861.64,-129.09"/>
<polygon fill="#63b8ff" stroke="#63b8ff" points="880.34,-158.98 889.23,-164.75 885.88,-154.7 880.34,-158.98"/>
</a>
</g>
</g>
<!-- Node27 -->
<g id="Node000027" class="node">
<title>Node27</title>
<g id="a_Node000027"><a xlink:href="_motion_waves_kernel_8_c.html" target="_top" xlink:title=" ">
<polygon fill="white" stroke="#666666" points="1036.5,-129 913.5,-129 913.5,-110 1036.5,-110 1036.5,-129"/>
<text text-anchor="middle" x="975" y="-117" font-family="Helvetica,sans-Serif" font-size="10.00">MotionWavesKernel.C</text>
</a>
</g>
</g>
<!-- Node26&#45;&gt;Node27 -->
<g id="edge37_Node000026_Node000027" class="edge">
<title>Node26&#45;&gt;Node27</title>
<g id="a_edge37_Node000026_Node000027"><a xlink:title=" ">
<path fill="none" stroke="#63b8ff" d="M917.39,-159.15C931.67,-149.57 949.97,-137.29 962.08,-129.17"/>
<polygon fill="#63b8ff" stroke="#63b8ff" points="915.05,-156.51 908.69,-164.98 918.95,-162.32 915.05,-156.51"/>
</a>
</g>
</g>
<!-- Node28&#45;&gt;Node3 -->
<g id="edge39_Node000028_Node000003" class="edge">
<title>Node28&#45;&gt;Node3</title>
<g id="a_edge39_Node000028_Node000003"><a xlink:title=" ">
<path fill="none" stroke="#63b8ff" d="M1004.43,-162.18C968.9,-152.27 918.03,-138.08 885.77,-129.08"/>
<polygon fill="#63b8ff" stroke="#63b8ff" points="1003.9,-165.67 1014.47,-164.98 1005.78,-158.93 1003.9,-165.67"/>
</a>
</g>
</g>
<!-- Node29 -->
<g id="Node000029" class="node">
<title>Node29</title>
<g id="a_Node000029"><a xlink:href="_turbine_surrogate_kernel_8_c.html" target="_top" xlink:title=" ">
<polygon fill="white" stroke="#666666" points="1195,-129 1055,-129 1055,-110 1195,-110 1195,-129"/>
<text text-anchor="middle" x="1125" y="-117" font-family="Helvetica,sans-Serif" font-size="10.00">TurbineSurrogateKernel.C</text>
</a>
</g>
</g>
<!-- Node28&#45;&gt;Node29 -->
<g id="edge40_Node000028_Node000029" class="edge">
<title>Node28&#45;&gt;Node29</title>
<g id="a_edge40_Node000028_Node000029"><a xlink:title=" ">
<path fill="none" stroke="#63b8ff" d="M1066.25,-159.42C1080.76,-149.81 1099.54,-137.37 1111.91,-129.17"/>
<polygon fill="#63b8ff" stroke="#63b8ff" points="1064.26,-156.54 1057.85,-164.98 1068.12,-162.38 1064.26,-156.54"/>
</a>
</g>
</g>
</g>
</svg>
