<?xml version="1.0" encoding="UTF-8" standalone="no"?>
<!DOCTYPE svg PUBLIC "-//W3C//DTD SVG 1.1//EN"
 "http://www.w3.org/Graphics/SVG/1.1/DTD/svg11.dtd">
<!-- Generated by graphviz version 2.43.0 (0)
 -->
<!-- Title: XSDKHypreInterface.h Pages: 1 -->
<svg width="1429pt" height="137pt"
 viewBox="0.00 0.00 1429.00 137.00" xmlns="http://www.w3.org/2000/svg" xmlns:xlink="http://www.w3.org/1999/xlink">
<g id="graph0" class="graph" transform="scale(1 1) rotate(0) translate(4 133)">
<title>XSDKHypreInterface.h</title>
<!-- Node1 -->
<g id="Node000001" class="node">
<title>Node1</title>
<g id="a_Node000001"><a xlink:title=" ">
<polygon fill="#999999" stroke="#666666" points="927,-129 802,-129 802,-110 927,-110 927,-129"/>
<text text-anchor="middle" x="864.5" y="-117" font-family="Helvetica,sans-Serif" font-size="10.00">XSDKHypreInterface.h</text>
</a>
</g>
</g>
<!-- Node2 -->
<g id="Node000002" class="node">
<title>Node2</title>
<g id="a_Node000002"><a xlink:href="_field_type_def_8h.html" target="_top" xlink:title=" ">
<polygon fill="white" stroke="#666666" points="372.5,-74 284.5,-74 284.5,-55 372.5,-55 372.5,-74"/>
<text text-anchor="middle" x="328.5" y="-62" font-family="Helvetica,sans-Serif" font-size="10.00">FieldTypeDef.h</text>
</a>
</g>
</g>
<!-- Node1&#45;&gt;Node2 -->
<g id="edge1_Node000001_Node000002" class="edge">
<title>Node1&#45;&gt;Node2</title>
<g id="a_edge1_Node000001_Node000002"><a xlink:title=" ">
<path fill="none" stroke="#63b8ff" d="M801.83,-114.08C711.56,-107.41 539.48,-93.58 383,-74.11"/>
<polygon fill="#63b8ff" stroke="#63b8ff" points="383.07,-70.59 372.71,-72.82 382.2,-77.54 383.07,-70.59"/>
</a>
</g>
</g>
<!-- Node7 -->
<g id="Node000007" class="node">
<title>Node7</title>
<g id="a_Node000007"><a xlink:title=" ">
<polygon fill="#e0e0e0" stroke="#999999" points="482.5,-74 390.5,-74 390.5,-55 482.5,-55 482.5,-74"/>
<text text-anchor="middle" x="436.5" y="-62" font-family="Helvetica,sans-Serif" font-size="10.00">HYPRE_config.h</text>
</a>
</g>
</g>
<!-- Node1&#45;&gt;Node7 -->
<g id="edge6_Node000001_Node000007" class="edge">
<title>Node1&#45;&gt;Node7</title>
<g id="a_edge6_Node000001_Node000007"><a xlink:title=" ">
<path fill="none" stroke="#63b8ff" d="M801.89,-111.62C730,-103.59 608.24,-89.56 492.71,-73.98"/>
<polygon fill="#63b8ff" stroke="#63b8ff" points="493.01,-70.49 482.63,-72.62 492.07,-77.43 493.01,-70.49"/>
</a>
</g>
</g>
<!-- Node8 -->
<g id="Node000008" class="node">
<title>Node8</title>
<g id="a_Node000008"><a xlink:title=" ">
<polygon fill="#e0e0e0" stroke="#999999" points="590,-74 501,-74 501,-55 590,-55 590,-74"/>
<text text-anchor="middle" x="545.5" y="-62" font-family="Helvetica,sans-Serif" font-size="10.00">HYPRE_IJ_mv.h</text>
</a>
</g>
</g>
<!-- Node1&#45;&gt;Node8 -->
<g id="edge7_Node000001_Node000008" class="edge">
<title>Node1&#45;&gt;Node8</title>
<g id="a_edge7_Node000001_Node000008"><a xlink:title=" ">
<path fill="none" stroke="#63b8ff" d="M813.25,-109.98C754.89,-100.29 659.94,-84.51 600.19,-74.59"/>
<polygon fill="#63b8ff" stroke="#63b8ff" points="600.63,-71.11 590.19,-72.92 599.48,-78.02 600.63,-71.11"/>
</a>
</g>
</g>
<!-- Node9 -->
<g id="Node000009" class="node">
<title>Node9</title>
<g id="a_Node000009"><a xlink:title=" ">
<polygon fill="#e0e0e0" stroke="#999999" points="715,-74 608,-74 608,-55 715,-55 715,-74"/>
<text text-anchor="middle" x="661.5" y="-62" font-family="Helvetica,sans-Serif" font-size="10.00">HYPRE_parcsr_ls.h</text>
</a>
</g>
</g>
<!-- Node1&#45;&gt;Node9 -->
<g id="edge8_Node000001_Node000009" class="edge">
<title>Node1&#45;&gt;Node9</title>
<g id="a_edge8_Node000001_Node000009"><a xlink:title=" ">
<path fill="none" stroke="#63b8ff" d="M831.88,-109.98C797.21,-100.93 742.24,-86.58 704.15,-76.64"/>
<polygon fill="#63b8ff" stroke="#63b8ff" points="704.93,-73.22 694.37,-74.08 703.16,-79.99 704.93,-73.22"/>
</a>
</g>
</g>
<!-- Node10 -->
<g id="Node000010" class="node">
<title>Node10</title>
<g id="a_Node000010"><a xlink:title=" ">
<polygon fill="#e0e0e0" stroke="#999999" points="789.5,-74 733.5,-74 733.5,-55 789.5,-55 789.5,-74"/>
<text text-anchor="middle" x="761.5" y="-62" font-family="Helvetica,sans-Serif" font-size="10.00">krylov.h</text>
</a>
</g>
</g>
<!-- Node1&#45;&gt;Node10 -->
<g id="edge9_Node000001_Node000010" class="edge">
<title>Node1&#45;&gt;Node10</title>
<g id="a_edge9_Node000001_Node000010"><a xlink:title=" ">
<path fill="none" stroke="#63b8ff" d="M847.95,-109.98C831.61,-101.57 806.37,-88.59 787.37,-78.81"/>
<polygon fill="#63b8ff" stroke="#63b8ff" points="788.84,-75.63 778.35,-74.17 785.64,-81.86 788.84,-75.63"/>
</a>
</g>
</g>
<!-- Node11 -->
<g id="Node000011" class="node">
<title>Node11</title>
<g id="a_Node000011"><a xlink:title=" ">
<polygon fill="#e0e0e0" stroke="#999999" points="921.5,-74 807.5,-74 807.5,-55 921.5,-55 921.5,-74"/>
<text text-anchor="middle" x="864.5" y="-62" font-family="Helvetica,sans-Serif" font-size="10.00">_hypre_parcsr_mv.h</text>
</a>
</g>
</g>
<!-- Node1&#45;&gt;Node11 -->
<g id="edge10_Node000001_Node000011" class="edge">
<title>Node1&#45;&gt;Node11</title>
<g id="a_edge10_Node000001_Node000011"><a xlink:title=" ">
<path fill="none" stroke="#63b8ff" d="M864.5,-109.75C864.5,-102.8 864.5,-92.85 864.5,-84.13"/>
<polygon fill="#63b8ff" stroke="#63b8ff" points="868,-84.09 864.5,-74.09 861,-84.09 868,-84.09"/>
</a>
</g>
</g>
<!-- Node12 -->
<g id="Node000012" class="node">
<title>Node12</title>
<g id="a_Node000012"><a xlink:title=" ">
<polygon fill="#e0e0e0" stroke="#999999" points="1029.5,-74 939.5,-74 939.5,-55 1029.5,-55 1029.5,-74"/>
<text text-anchor="middle" x="984.5" y="-62" font-family="Helvetica,sans-Serif" font-size="10.00">_hypre_IJ_mv.h</text>
</a>
</g>
</g>
<!-- Node1&#45;&gt;Node12 -->
<g id="edge11_Node000001_Node000012" class="edge">
<title>Node1&#45;&gt;Node12</title>
<g id="a_edge11_Node000001_Node000012"><a xlink:title=" ">
<path fill="none" stroke="#63b8ff" d="M883.78,-109.98C903.17,-101.42 933.31,-88.11 955.57,-78.28"/>
<polygon fill="#63b8ff" stroke="#63b8ff" points="957.14,-81.41 964.87,-74.17 954.31,-75.01 957.14,-81.41"/>
</a>
</g>
</g>
<!-- Node13 -->
<g id="Node000013" class="node">
<title>Node13</title>
<g id="a_Node000013"><a xlink:title=" ">
<polygon fill="#e0e0e0" stroke="#999999" points="1161,-74 1048,-74 1048,-55 1161,-55 1161,-74"/>
<text text-anchor="middle" x="1104.5" y="-62" font-family="Helvetica,sans-Serif" font-size="10.00">HYPRE_parcsr_mv.h</text>
</a>
</g>
</g>
<!-- Node1&#45;&gt;Node13 -->
<g id="edge12_Node000001_Node000013" class="edge">
<title>Node1&#45;&gt;Node13</title>
<g id="a_edge12_Node000001_Node000013"><a xlink:title=" ">
<path fill="none" stroke="#63b8ff" d="M903.06,-109.98C944.57,-100.82 1010.71,-86.21 1055.79,-76.26"/>
<polygon fill="#63b8ff" stroke="#63b8ff" points="1056.63,-79.66 1065.64,-74.08 1055.12,-72.82 1056.63,-79.66"/>
</a>
</g>
</g>
<!-- Node14 -->
<g id="Node000014" class="node">
<title>Node14</title>
<g id="a_Node000014"><a xlink:title=" ">
<polygon fill="#e0e0e0" stroke="#999999" points="1237.5,-74 1179.5,-74 1179.5,-55 1237.5,-55 1237.5,-74"/>
<text text-anchor="middle" x="1208.5" y="-62" font-family="Helvetica,sans-Serif" font-size="10.00">HYPRE.h</text>
</a>
</g>
</g>
<!-- Node1&#45;&gt;Node14 -->
<g id="edge13_Node000001_Node000014" class="edge">
<title>Node1&#45;&gt;Node14</title>
<g id="a_edge13_Node000001_Node000014"><a xlink:title=" ">
<path fill="none" stroke="#63b8ff" d="M927.14,-110.8C986.91,-103.13 1079.69,-90.41 1169.05,-74.15"/>
<polygon fill="#63b8ff" stroke="#63b8ff" points="1169.88,-77.56 1179.09,-72.31 1168.62,-70.67 1169.88,-77.56"/>
</a>
</g>
</g>
<!-- Node15 -->
<g id="Node000015" class="node">
<title>Node15</title>
<g id="a_Node000015"><a xlink:title=" ">
<polygon fill="#e0e0e0" stroke="#999999" points="1355.5,-74 1255.5,-74 1255.5,-55 1355.5,-55 1355.5,-74"/>
<text text-anchor="middle" x="1305.5" y="-62" font-family="Helvetica,sans-Serif" font-size="10.00">Teuchos_RCP.hpp</text>
</a>
</g>
</g>
<!-- Node1&#45;&gt;Node15 -->
<g id="edge14_Node000001_Node000015" class="edge">
<title>Node1&#45;&gt;Node15</title>
<g id="a_edge14_Node000001_Node000015"><a xlink:title=" ">
<path fill="none" stroke="#63b8ff" d="M927.09,-111.74C1000.74,-103.66 1126.97,-89.44 1245.34,-74.12"/>
<polygon fill="#63b8ff" stroke="#63b8ff" points="1245.84,-77.59 1255.3,-72.83 1244.93,-70.64 1245.84,-77.59"/>
</a>
</g>
</g>
<!-- Node16 -->
<g id="Node000016" class="node">
<title>Node16</title>
<g id="a_Node000016"><a xlink:title=" ">
<polygon fill="#e0e0e0" stroke="#999999" points="1421,-74 1374,-74 1374,-55 1421,-55 1421,-74"/>
<text text-anchor="middle" x="1397.5" y="-62" font-family="Helvetica,sans-Serif" font-size="10.00">cmath</text>
</a>
</g>
</g>
<!-- Node1&#45;&gt;Node16 -->
<g id="edge15_Node000001_Node000016" class="edge">
<title>Node1&#45;&gt;Node16</title>
<g id="a_edge15_Node000001_Node000016"><a xlink:title=" ">
<path fill="none" stroke="#63b8ff" d="M927.28,-116.2C1020.49,-112.07 1201.02,-101.28 1363.62,-73.84"/>
<polygon fill="#63b8ff" stroke="#63b8ff" points="1364.54,-77.23 1373.81,-72.1 1363.36,-70.34 1364.54,-77.23"/>
</a>
</g>
</g>
<!-- Node3 -->
<g id="Node000003" class="node">
<title>Node3</title>
<g id="a_Node000003"><a xlink:title=" ">
<polygon fill="#e0e0e0" stroke="#999999" points="161,-19 0,-19 0,0 161,0 161,-19"/>
<text text-anchor="middle" x="80.5" y="-7" font-family="Helvetica,sans-Serif" font-size="10.00">stk_mesh/base/FieldBase.hpp</text>
</a>
</g>
</g>
<!-- Node2&#45;&gt;Node3 -->
<g id="edge2_Node000002_Node000003" class="edge">
<title>Node2&#45;&gt;Node3</title>
<g id="a_edge2_Node000002_Node000003"><a xlink:title=" ">
<path fill="none" stroke="#63b8ff" d="M288.65,-54.98C245.67,-45.8 177.13,-31.15 130.54,-21.19"/>
<polygon fill="#63b8ff" stroke="#63b8ff" points="131.17,-17.75 120.66,-19.08 129.71,-24.59 131.17,-17.75"/>
</a>
</g>
</g>
<!-- Node4 -->
<g id="Node000004" class="node">
<title>Node4</title>
<g id="a_Node000004"><a xlink:title=" ">
<polygon fill="#e0e0e0" stroke="#999999" points="313.5,-19 179.5,-19 179.5,0 313.5,0 313.5,-19"/>
<text text-anchor="middle" x="246.5" y="-7" font-family="Helvetica,sans-Serif" font-size="10.00">stk_mesh/base/Ngp.hpp</text>
</a>
</g>
</g>
<!-- Node2&#45;&gt;Node4 -->
<g id="edge3_Node000002_Node000004" class="edge">
<title>Node2&#45;&gt;Node4</title>
<g id="a_edge3_Node000002_Node000004"><a xlink:title=" ">
<path fill="none" stroke="#63b8ff" d="M315.33,-54.98C302.73,-46.84 283.5,-34.41 268.56,-24.76"/>
<polygon fill="#63b8ff" stroke="#63b8ff" points="270.21,-21.66 259.91,-19.17 266.41,-27.54 270.21,-21.66"/>
</a>
</g>
</g>
<!-- Node5 -->
<g id="Node000005" class="node">
<title>Node5</title>
<g id="a_Node000005"><a xlink:title=" ">
<polygon fill="#e0e0e0" stroke="#999999" points="489,-19 332,-19 332,0 489,0 489,-19"/>
<text text-anchor="middle" x="410.5" y="-7" font-family="Helvetica,sans-Serif" font-size="10.00">stk_mesh/base/NgpField.hpp</text>
</a>
</g>
</g>
<!-- Node2&#45;&gt;Node5 -->
<g id="edge4_Node000002_Node000005" class="edge">
<title>Node2&#45;&gt;Node5</title>
<g id="a_edge4_Node000002_Node000005"><a xlink:title=" ">
<path fill="none" stroke="#63b8ff" d="M341.67,-54.98C354.27,-46.84 373.5,-34.41 388.44,-24.76"/>
<polygon fill="#63b8ff" stroke="#63b8ff" points="390.59,-27.54 397.09,-19.17 386.79,-21.66 390.59,-27.54"/>
</a>
</g>
</g>
<!-- Node6 -->
<g id="Node000006" class="node">
<title>Node6</title>
<g id="a_Node000006"><a xlink:title=" ">
<polygon fill="#e0e0e0" stroke="#999999" points="572,-19 507,-19 507,0 572,0 572,-19"/>
<text text-anchor="middle" x="539.5" y="-7" font-family="Helvetica,sans-Serif" font-size="10.00">functional</text>
</a>
</g>
</g>
<!-- Node2&#45;&gt;Node6 -->
<g id="edge5_Node000002_Node000006" class="edge">
<title>Node2&#45;&gt;Node6</title>
<g id="a_edge5_Node000002_Node000006"><a xlink:title=" ">
<path fill="none" stroke="#63b8ff" d="M362.4,-54.98C398.94,-45.81 457.19,-31.18 496.82,-21.22"/>
<polygon fill="#63b8ff" stroke="#63b8ff" points="497.88,-24.56 506.72,-18.73 496.17,-17.77 497.88,-24.56"/>
</a>
</g>
</g>
</g>
</svg>
