<?xml version="1.0" encoding="UTF-8" standalone="no"?>
<!DOCTYPE svg PUBLIC "-//W3C//DTD SVG 1.1//EN"
 "http://www.w3.org/Graphics/SVG/1.1/DTD/svg11.dtd">
<!-- Generated by graphviz version 2.43.0 (0)
 -->
<!-- Title: sierra::nalu::MotionPrescribedKernel Pages: 1 -->
<svg width="416pt" height="237pt"
 viewBox="0.00 0.00 416.00 237.00" xmlns="http://www.w3.org/2000/svg" xmlns:xlink="http://www.w3.org/1999/xlink">
<g id="graph0" class="graph" transform="scale(1 1) rotate(0) translate(4 233)">
<title>sierra::nalu::MotionPrescribedKernel</title>
<!-- Node1 -->
<g id="Node000001" class="node">
<title>Node1</title>
<g id="a_Node000001"><a xlink:title=" ">
<polygon fill="#999999" stroke="#666666" points="162,-107 0,-107 0,-77 162,-77 162,-107"/>
<text text-anchor="start" x="8" y="-95" font-family="Helvetica,sans-Serif" font-size="10.00">sierra::nalu::MotionPrescribed</text>
<text text-anchor="middle" x="81" y="-84" font-family="Helvetica,sans-Serif" font-size="10.00">Kernel</text>
</a>
</g>
</g>
<!-- Node2 -->
<g id="Node000002" class="node">
<title>Node2</title>
<g id="a_Node000002"><a xlink:href="classsierra_1_1nalu_1_1_ngp_motion_kernel.html" target="_top" xlink:title=" ">
<polygon fill="white" stroke="#666666" points="257.5,-30 96.5,-30 96.5,0 257.5,0 257.5,-30"/>
<text text-anchor="start" x="104.5" y="-18" font-family="Helvetica,sans-Serif" font-size="10.00">sierra::nalu::NgpMotionKernel</text>
<text text-anchor="middle" x="177" y="-7" font-family="Helvetica,sans-Serif" font-size="10.00">&lt; MotionPrescribedKernel &gt;</text>
</a>
</g>
</g>
<!-- Node1&#45;&gt;Node2 -->
<g id="edge4_Node000002_Node000001" class="edge">
<title>Node1&#45;&gt;Node2</title>
<g id="a_edge4_Node000002_Node000001"><a xlink:title=" ">
<path fill="none" stroke="#9a32cd" stroke-dasharray="5,2" d="M75.31,-66.91C75.03,-60.26 76.09,-53.4 80,-48 85.51,-40.38 92.89,-34.55 101.14,-30.09"/>
<polygon fill="#9a32cd" stroke="#9a32cd" points="71.85,-67.48 76.62,-76.94 78.79,-66.57 71.85,-67.48"/>
</a>
</g>
<text text-anchor="middle" x="113" y="-51" font-family="Helvetica,sans-Serif" font-size="10.00" fill="grey"> deviceCopy_</text>
</g>
<!-- Node2&#45;&gt;Node1 -->
<g id="edge1_Node000001_Node000002" class="edge">
<title>Node2&#45;&gt;Node1</title>
<g id="a_edge1_Node000001_Node000002"><a xlink:title=" ">
<path fill="none" stroke="#63b8ff" d="M165.65,-39.4C161.45,-46.35 156.18,-53.55 150,-59 141.78,-66.24 131.63,-72.16 121.68,-76.84"/>
<polygon fill="#63b8ff" stroke="#63b8ff" points="168.92,-40.71 170.69,-30.26 162.8,-37.33 168.92,-40.71"/>
</a>
</g>
</g>
<!-- Node3 -->
<g id="Node000003" class="node">
<title>Node3</title>
<g id="a_Node000003"><a xlink:href="classsierra_1_1nalu_1_1_ngp_motion.html" target="_top" xlink:title=" ">
<polygon fill="white" stroke="#666666" points="267.5,-163 136.5,-163 136.5,-144 267.5,-144 267.5,-163"/>
<text text-anchor="middle" x="202" y="-151" font-family="Helvetica,sans-Serif" font-size="10.00">sierra::nalu::NgpMotion</text>
</a>
</g>
</g>
<!-- Node3&#45;&gt;Node2 -->
<g id="edge2_Node000002_Node000003" class="edge">
<title>Node3&#45;&gt;Node2</title>
<g id="a_edge2_Node000002_Node000003"><a xlink:title=" ">
<path fill="none" stroke="#63b8ff" d="M198.62,-134.02C193.55,-106.37 184.11,-54.81 179.57,-30.02"/>
<polygon fill="#63b8ff" stroke="#63b8ff" points="195.19,-134.76 200.44,-143.96 202.08,-133.49 195.19,-134.76"/>
</a>
</g>
</g>
<!-- Node5 -->
<g id="Node000005" class="node">
<title>Node5</title>
<g id="a_Node000005"><a xlink:href="classsierra_1_1nalu_1_1_ngp_motion_kernel.html" target="_top" xlink:title=" ">
<polygon fill="white" stroke="#666666" points="408,-101.5 218,-101.5 218,-82.5 408,-82.5 408,-101.5"/>
<text text-anchor="middle" x="313" y="-89.5" font-family="Helvetica,sans-Serif" font-size="10.00">sierra::nalu::NgpMotionKernel&lt; T &gt;</text>
</a>
</g>
</g>
<!-- Node3&#45;&gt;Node5 -->
<g id="edge6_Node000005_Node000003" class="edge">
<title>Node3&#45;&gt;Node5</title>
<g id="a_edge6_Node000005_Node000003"><a xlink:title=" ">
<path fill="none" stroke="#63b8ff" d="M226.79,-139.21C248.29,-127.69 278.76,-111.36 297.13,-101.51"/>
<polygon fill="#63b8ff" stroke="#63b8ff" points="225.06,-136.17 217.9,-143.98 228.37,-142.34 225.06,-136.17"/>
</a>
</g>
</g>
<!-- Node4 -->
<g id="Node000004" class="node">
<title>Node4</title>
<g id="a_Node000004"><a xlink:href="structsierra_1_1nalu_1_1mm_1_1_three_d_vec_type.html" target="_top" xlink:title=" ">
<polygon fill="white" stroke="#666666" points="291,-229 113,-229 113,-210 291,-210 291,-229"/>
<text text-anchor="middle" x="202" y="-217" font-family="Helvetica,sans-Serif" font-size="10.00">sierra::nalu::mm::ThreeDVecType</text>
</a>
</g>
</g>
<!-- Node4&#45;&gt;Node3 -->
<g id="edge3_Node000003_Node000004" class="edge">
<title>Node4&#45;&gt;Node3</title>
<g id="a_edge3_Node000003_Node000004"><a xlink:title=" ">
<path fill="none" stroke="#9a32cd" stroke-dasharray="5,2" d="M202,-199.58C202,-187.63 202,-172.72 202,-163.41"/>
<polygon fill="#9a32cd" stroke="#9a32cd" points="198.5,-199.87 202,-209.87 205.5,-199.87 198.5,-199.87"/>
</a>
</g>
<text text-anchor="middle" x="220.5" y="-184" font-family="Helvetica,sans-Serif" font-size="10.00" fill="grey"> origin_</text>
</g>
<!-- Node5&#45;&gt;Node2 -->
<g id="edge5_Node000002_Node000005" class="edge">
<title>Node5&#45;&gt;Node2</title>
<g id="a_edge5_Node000002_Node000005"><a xlink:title=" ">
<path fill="none" stroke="orange" stroke-dasharray="5,2" d="M288.47,-77.47C264.2,-64.09 227.22,-43.69 202.59,-30.11"/>
<polygon fill="orange" stroke="orange" points="286.95,-80.63 297.4,-82.4 290.33,-74.5 286.95,-80.63"/>
</a>
</g>
<text text-anchor="middle" x="324" y="-51" font-family="Helvetica,sans-Serif" font-size="10.00" fill="grey"> &lt; MotionPrescribedKernel &gt;</text>
</g>
</g>
</svg>
