<?xml version="1.0" encoding="UTF-8" standalone="no"?>
<!DOCTYPE svg PUBLIC "-//W3C//DTD SVG 1.1//EN"
 "http://www.w3.org/Graphics/SVG/1.1/DTD/svg11.dtd">
<!-- Generated by graphviz version 2.43.0 (0)
 -->
<!-- Title: sierra::nalu::MotionPrescribedKernel Pages: 1 -->
<svg width="294pt" height="227pt"
 viewBox="0.00 0.00 294.00 227.00" xmlns="http://www.w3.org/2000/svg" xmlns:xlink="http://www.w3.org/1999/xlink">
<g id="graph0" class="graph" transform="scale(1 1) rotate(0) translate(4 223)">
<title>sierra::nalu::MotionPrescribedKernel</title>
<!-- Node1 -->
<g id="Node000001" class="node">
<title>Node1</title>
<g id="a_Node000001"><a xlink:title=" ">
<polygon fill="#999999" stroke="#666666" points="162,-30 0,-30 0,0 162,0 162,-30"/>
<text text-anchor="start" x="8" y="-18" font-family="Helvetica,sans-Serif" font-size="10.00">sierra::nalu::MotionPrescribed</text>
<text text-anchor="middle" x="81" y="-7" font-family="Helvetica,sans-Serif" font-size="10.00">Kernel</text>
</a>
</g>
</g>
<!-- Node2 -->
<g id="Node000002" class="node">
<title>Node2</title>
<g id="a_Node000002"><a xlink:href="classsierra_1_1nalu_1_1_ngp_motion_kernel.html" target="_top" xlink:title=" ">
<polygon fill="white" stroke="#666666" points="161.5,-97 0.5,-97 0.5,-67 161.5,-67 161.5,-97"/>
<text text-anchor="start" x="8.5" y="-85" font-family="Helvetica,sans-Serif" font-size="10.00">sierra::nalu::NgpMotionKernel</text>
<text text-anchor="middle" x="81" y="-74" font-family="Helvetica,sans-Serif" font-size="10.00">&lt; MotionPrescribedKernel &gt;</text>
</a>
</g>
</g>
<!-- Node2&#45;&gt;Node1 -->
<g id="edge1_Node000001_Node000002" class="edge">
<title>Node2&#45;&gt;Node1</title>
<g id="a_edge1_Node000001_Node000002"><a xlink:title=" ">
<path fill="none" stroke="#63b8ff" d="M81,-56.61C81,-47.65 81,-37.82 81,-30.08"/>
<polygon fill="#63b8ff" stroke="#63b8ff" points="77.5,-56.9 81,-66.9 84.5,-56.9 77.5,-56.9"/>
</a>
</g>
</g>
<!-- Node3 -->
<g id="Node000003" class="node">
<title>Node3</title>
<g id="a_Node000003"><a xlink:href="classsierra_1_1nalu_1_1_ngp_motion.html" target="_top" xlink:title=" ">
<polygon fill="white" stroke="#666666" points="142.5,-219 11.5,-219 11.5,-200 142.5,-200 142.5,-219"/>
<text text-anchor="middle" x="77" y="-207" font-family="Helvetica,sans-Serif" font-size="10.00">sierra::nalu::NgpMotion</text>
</a>
</g>
</g>
<!-- Node3&#45;&gt;Node2 -->
<g id="edge2_Node000002_Node000003" class="edge">
<title>Node3&#45;&gt;Node2</title>
<g id="a_edge2_Node000002_Node000003"><a xlink:title=" ">
<path fill="none" stroke="#63b8ff" d="M77.6,-189.76C78.4,-164.48 79.82,-120.02 80.55,-97.27"/>
<polygon fill="#63b8ff" stroke="#63b8ff" points="74.1,-189.77 77.27,-199.87 81.09,-189.99 74.1,-189.77"/>
</a>
</g>
</g>
<!-- Node4 -->
<g id="Node000004" class="node">
<title>Node4</title>
<g id="a_Node000004"><a xlink:href="classsierra_1_1nalu_1_1_ngp_motion_kernel.html" target="_top" xlink:title=" ">
<polygon fill="white" stroke="#666666" points="283,-163 93,-163 93,-144 283,-144 283,-163"/>
<text text-anchor="middle" x="188" y="-151" font-family="Helvetica,sans-Serif" font-size="10.00">sierra::nalu::NgpMotionKernel&lt; T &gt;</text>
</a>
</g>
</g>
<!-- Node3&#45;&gt;Node4 -->
<g id="edge4_Node000004_Node000003" class="edge">
<title>Node3&#45;&gt;Node4</title>
<g id="a_edge4_Node000004_Node000003"><a xlink:title=" ">
<path fill="none" stroke="#63b8ff" d="M104.01,-195.36C124.59,-185.35 152.34,-171.85 170.21,-163.15"/>
<polygon fill="#63b8ff" stroke="#63b8ff" points="102.3,-192.3 94.83,-199.82 105.36,-198.6 102.3,-192.3"/>
</a>
</g>
</g>
<!-- Node4&#45;&gt;Node2 -->
<g id="edge3_Node000002_Node000004" class="edge">
<title>Node4&#45;&gt;Node2</title>
<g id="a_edge3_Node000002_Node000004"><a xlink:title=" ">
<path fill="none" stroke="orange" stroke-dasharray="5,2" d="M166.25,-138.38C147.74,-126.35 121.28,-109.17 102.77,-97.14"/>
<polygon fill="orange" stroke="orange" points="164.59,-141.47 174.88,-143.98 168.4,-135.6 164.59,-141.47"/>
</a>
</g>
<text text-anchor="middle" x="215" y="-118" font-family="Helvetica,sans-Serif" font-size="10.00" fill="grey"> &lt; MotionPrescribedKernel &gt;</text>
</g>
</g>
</svg>
