<?xml version="1.0" encoding="UTF-8" standalone="no"?>
<!DOCTYPE svg PUBLIC "-//W3C//DTD SVG 1.1//EN"
 "http://www.w3.org/Graphics/SVG/1.1/DTD/svg11.dtd">
<!-- Generated by graphviz version 2.43.0 (0)
 -->
<!-- Title: sierra::nalu::NgpMotionKernel&lt; T &gt; Pages: 1 -->
<!--zoomable 376 -->

<svg id="main" version="1.1" xmlns="http://www.w3.org/2000/svg" xmlns:xlink="http://www.w3.org/1999/xlink" xml:space="preserve" onload="init(evt)">
<style type="text/css"><![CDATA[
.node, .edge {opacity: 0.7;}
.node.selected, .edge.selected {opacity: 1;}
.edge:hover path { stroke: red; }
.edge:hover polygon { stroke: red; fill: red; }
]]></style>

<defs>
  <circle id="rim" cx="0" cy="0" r="7"/>
  <circle id="rim2" cx="0" cy="0" r="3.5"/>
  <g id="zoomPlus">
    <use xlink:href="#rim" fill="#404040"><set attributeName="fill" to="#808080" begin="zoomplus.mouseover" end="zoomplus.mouseout"/></use>
    <path d="M-4,0h8M0,-4v8" fill="none" stroke="white" stroke-width="1.5" pointer-events="none"/>
  </g>
  <g id="zoomMin">
    <use xlink:href="#rim" fill="#404040"><set attributeName="fill" to="#808080" begin="zoomminus.mouseover" end="zoomminus.mouseout"/></use>
    <path d="M-4,0h8" fill="none" stroke="white" stroke-width="1.5" pointer-events="none"/>
  </g>
  <g id="arrowUp" transform="translate(30 24)">
    <use xlink:href="#rim"/>
    <path pointer-events="none" fill="none" stroke="white" stroke-width="1.5" d="M0,-3.0v7 M-2.5,-0.5L0,-3.0L2.5,-0.5"/>
  </g>
  <g id="arrowRight" transform="rotate(90) translate(36 -43)">
    <use xlink:href="#rim"/>
    <path pointer-events="none" fill="none" stroke="white" stroke-width="1.5" d="M0,-3.0v7 M-2.5,-0.5L0,-3.0L2.5,-0.5"/>
  </g>
  <g id="arrowDown" transform="rotate(180) translate(-30 -48)">
    <use xlink:href="#rim"/>
    <path pointer-events="none" fill="none" stroke="white" stroke-width="1.5" d="M0,-3.0v7 M-2.5,-0.5L0,-3.0L2.5,-0.5"/>
  </g>
  <g id="arrowLeft" transform="rotate(270) translate(-36 17)">
    <use xlink:href="#rim"/>
    <path pointer-events="none" fill="none" stroke="white" stroke-width="1.5" d="M0,-3.0v7 M-2.5,-0.5L0,-3.0L2.5,-0.5"/>
  </g>
  <g id="resetDef">
    <use xlink:href="#rim2" fill="#404040"><set attributeName="fill" to="#808080" begin="reset.mouseover" end="reset.mouseout"/></use>
  </g>
</defs>
<script type="application/ecmascript">
var viewWidth = 938;
var viewHeight = 376;
var sectionId = 'dynsection-0';
</script>
<script type="application/ecmascript" xlink:href="svg.min.js"/>
<svg id="graph" class="graph">
<g id="viewport">
<title>sierra::nalu::NgpMotionKernel&lt; T &gt;</title>
<!-- Node1 -->
<g id="Node000001" class="node">
<title>Node1</title>
<g id="a_Node000001"><a xlink:title=" ">
<polygon fill="#999999" stroke="#666666" points="358,-192.5 168,-192.5 168,-173.5 358,-173.5 358,-192.5"/>
<text text-anchor="middle" x="263" y="-180.5" font-family="Helvetica,sans-Serif" font-size="10.00">sierra::nalu::NgpMotionKernel&lt; T &gt;</text>
</a>
</g>
</g>
<!-- Node3 -->
<g id="Node000003" class="node">
<title>Node3</title>
<g id="a_Node000003"><a xlink:href="classsierra_1_1nalu_1_1_ngp_motion_kernel.html" target="_top" xlink:title=" ">
<polygon fill="white" stroke="#666666" points="729,-366 538,-366 538,-336 729,-336 729,-366"/>
<text text-anchor="start" x="546" y="-354" font-family="Helvetica,sans-Serif" font-size="10.00">sierra::nalu::NgpMotionKernel</text>
<text text-anchor="middle" x="633.5" y="-343" font-family="Helvetica,sans-Serif" font-size="10.00">&lt; MotionDeformingInteriorKernel &gt;</text>
</a>
</g>
</g>
<!-- Node1&#45;&gt;Node3 -->
<g id="edge2_Node000001_Node000003" class="edge">
<title>Node1&#45;&gt;Node3</title>
<g id="a_edge2_Node000001_Node000003"><a xlink:title=" ">
<path fill="none" stroke="orange" stroke-dasharray="5,2" d="M275.03,-201.15C292.68,-228.49 330.02,-279.72 376,-305 425.26,-332.09 487.12,-343.72 537.75,-348.51"/>
<polygon fill="orange" stroke="orange" points="277.91,-199.16 269.62,-192.56 271.99,-202.89 277.91,-199.16"/>
</a>
</g>
<text text-anchor="start" x="380" y="-360" font-family="Helvetica,sans-Serif" font-size="10.00" fill="grey"> &lt; MotionDeformingInterior</text>
<text text-anchor="middle" x="448" y="-349" font-family="Helvetica,sans-Serif" font-size="10.00" fill="grey">Kernel &gt;</text>
</g>
<!-- Node5 -->
<g id="Node000005" class="node">
<title>Node5</title>
<g id="a_Node000005"><a xlink:href="classsierra_1_1nalu_1_1_ngp_motion_kernel.html" target="_top" xlink:title=" ">
<polygon fill="white" stroke="#666666" points="714,-318 553,-318 553,-288 714,-288 714,-318"/>
<text text-anchor="start" x="561" y="-306" font-family="Helvetica,sans-Serif" font-size="10.00">sierra::nalu::NgpMotionKernel</text>
<text text-anchor="middle" x="633.5" y="-295" font-family="Helvetica,sans-Serif" font-size="10.00">&lt; MotionOscillationKernel &gt;</text>
</a>
</g>
</g>
<!-- Node1&#45;&gt;Node5 -->
<g id="edge4_Node000001_Node000005" class="edge">
<title>Node1&#45;&gt;Node5</title>
<g id="a_edge4_Node000001_Node000005"><a xlink:title=" ">
<path fill="none" stroke="orange" stroke-dasharray="5,2" d="M283.95,-198.96C305.42,-215.31 341.19,-240.22 376,-254 432.91,-276.52 501.13,-288.92 552.9,-295.6"/>
<polygon fill="orange" stroke="orange" points="285.98,-196.1 275.93,-192.74 281.69,-201.63 285.98,-196.1"/>
</a>
</g>
<text text-anchor="middle" x="448" y="-293" font-family="Helvetica,sans-Serif" font-size="10.00" fill="grey"> &lt; MotionOscillationKernel &gt;</text>
</g>
<!-- Node7 -->
<g id="Node000007" class="node">
<title>Node7</title>
<g id="a_Node000007"><a xlink:href="classsierra_1_1nalu_1_1_ngp_motion_kernel.html" target="_top" xlink:title=" ">
<polygon fill="white" stroke="#666666" points="714,-270 553,-270 553,-240 714,-240 714,-270"/>
<text text-anchor="start" x="561" y="-258" font-family="Helvetica,sans-Serif" font-size="10.00">sierra::nalu::NgpMotionKernel</text>
<text text-anchor="middle" x="633.5" y="-247" font-family="Helvetica,sans-Serif" font-size="10.00">&lt; MotionPrescribedKernel &gt;</text>
</a>
</g>
</g>
<!-- Node1&#45;&gt;Node7 -->
<g id="edge6_Node000001_Node000007" class="edge">
<title>Node1&#45;&gt;Node7</title>
<g id="a_edge6_Node000001_Node000007"><a xlink:title=" ">
<path fill="none" stroke="orange" stroke-dasharray="5,2" d="M304.76,-195.46C325.88,-201.62 352.17,-208.82 376,-214 434.83,-226.8 502.05,-237.4 552.92,-244.61"/>
<polygon fill="orange" stroke="orange" points="305.73,-192.1 295.15,-192.63 303.75,-198.81 305.73,-192.1"/>
</a>
</g>
<text text-anchor="middle" x="448" y="-242" font-family="Helvetica,sans-Serif" font-size="10.00" fill="grey"> &lt; MotionPrescribedKernel &gt;</text>
</g>
<!-- Node9 -->
<g id="Node000009" class="node">
<title>Node9</title>
<g id="a_Node000009"><a xlink:href="classsierra_1_1nalu_1_1_ngp_motion_kernel.html" target="_top" xlink:title=" ">
<polygon fill="white" stroke="#666666" points="714,-222 553,-222 553,-192 714,-192 714,-222"/>
<text text-anchor="start" x="561" y="-210" font-family="Helvetica,sans-Serif" font-size="10.00">sierra::nalu::NgpMotionKernel</text>
<text text-anchor="middle" x="633.5" y="-199" font-family="Helvetica,sans-Serif" font-size="10.00">&lt; MotionRotationKernel &gt;</text>
</a>
</g>
</g>
<!-- Node1&#45;&gt;Node9 -->
<g id="edge8_Node000001_Node000009" class="edge">
<title>Node1&#45;&gt;Node9</title>
<g id="a_edge8_Node000001_Node000009"><a xlink:title=" ">
<path fill="none" stroke="orange" stroke-dasharray="5,2" d="M368.45,-189.8C427.05,-193.62 498.99,-198.3 552.97,-201.82"/>
<polygon fill="orange" stroke="orange" points="368.63,-186.31 358.42,-189.15 368.17,-193.29 368.63,-186.31"/>
</a>
</g>
<text text-anchor="middle" x="448" y="-202" font-family="Helvetica,sans-Serif" font-size="10.00" fill="grey"> &lt; MotionRotationKernel &gt;</text>
</g>
<!-- Node11 -->
<g id="Node000011" class="node">
<title>Node11</title>
<g id="a_Node000011"><a xlink:href="classsierra_1_1nalu_1_1_ngp_motion_kernel.html" target="_top" xlink:title=" ">
<polygon fill="white" stroke="#666666" points="714,-174 553,-174 553,-144 714,-144 714,-174"/>
<text text-anchor="start" x="561" y="-162" font-family="Helvetica,sans-Serif" font-size="10.00">sierra::nalu::NgpMotionKernel</text>
<text text-anchor="middle" x="633.5" y="-151" font-family="Helvetica,sans-Serif" font-size="10.00">&lt; MotionScalingKernel &gt;</text>
</a>
</g>
</g>
<!-- Node1&#45;&gt;Node11 -->
<g id="edge10_Node000001_Node000011" class="edge">
<title>Node1&#45;&gt;Node11</title>
<g id="a_edge10_Node000001_Node000011"><a xlink:title=" ">
<path fill="none" stroke="orange" stroke-dasharray="5,2" d="M368.25,-175.52C370.86,-175.35 373.45,-175.17 376,-175 435.21,-171.04 502.13,-166.87 552.77,-163.79"/>
<polygon fill="orange" stroke="orange" points="367.84,-172.04 358.1,-176.22 368.32,-179.03 367.84,-172.04"/>
</a>
</g>
<text text-anchor="middle" x="448" y="-178" font-family="Helvetica,sans-Serif" font-size="10.00" fill="grey"> &lt; MotionScalingKernel &gt;</text>
</g>
<!-- Node13 -->
<g id="Node000013" class="node">
<title>Node13</title>
<g id="a_Node000013"><a xlink:href="classsierra_1_1nalu_1_1_ngp_motion_kernel.html" target="_top" xlink:title=" ">
<polygon fill="white" stroke="#666666" points="714,-126 553,-126 553,-96 714,-96 714,-126"/>
<text text-anchor="start" x="561" y="-114" font-family="Helvetica,sans-Serif" font-size="10.00">sierra::nalu::NgpMotionKernel</text>
<text text-anchor="middle" x="633.5" y="-103" font-family="Helvetica,sans-Serif" font-size="10.00">&lt; MotionTranslationKernel &gt;</text>
</a>
</g>
</g>
<!-- Node1&#45;&gt;Node13 -->
<g id="edge12_Node000001_Node000013" class="edge">
<title>Node1&#45;&gt;Node13</title>
<g id="a_edge12_Node000001_Node000013"><a xlink:title=" ">
<path fill="none" stroke="orange" stroke-dasharray="5,2" d="M304.76,-170.54C325.88,-164.38 352.17,-157.18 376,-152 434.83,-139.2 502.05,-128.6 552.92,-121.39"/>
<polygon fill="orange" stroke="orange" points="303.75,-167.19 295.15,-173.37 305.73,-173.9 303.75,-167.19"/>
</a>
</g>
<text text-anchor="middle" x="448" y="-155" font-family="Helvetica,sans-Serif" font-size="10.00" fill="grey"> &lt; MotionTranslationKernel &gt;</text>
</g>
<!-- Node15 -->
<g id="Node000015" class="node">
<title>Node15</title>
<g id="a_Node000015"><a xlink:href="classsierra_1_1nalu_1_1_ngp_motion_kernel.html" target="_top" xlink:title=" ">
<polygon fill="white" stroke="#666666" points="714,-78 553,-78 553,-48 714,-48 714,-78"/>
<text text-anchor="start" x="561" y="-66" font-family="Helvetica,sans-Serif" font-size="10.00">sierra::nalu::NgpMotionKernel</text>
<text text-anchor="middle" x="633.5" y="-55" font-family="Helvetica,sans-Serif" font-size="10.00">&lt; MotionWavesKernel &gt;</text>
</a>
</g>
</g>
<!-- Node1&#45;&gt;Node15 -->
<g id="edge14_Node000001_Node000015" class="edge">
<title>Node1&#45;&gt;Node15</title>
<g id="a_edge14_Node000001_Node000015"><a xlink:title=" ">
<path fill="none" stroke="orange" stroke-dasharray="5,2" d="M283.95,-167.04C305.42,-150.69 341.19,-125.78 376,-112 432.91,-89.48 501.13,-77.08 552.9,-70.4"/>
<polygon fill="orange" stroke="orange" points="281.69,-164.37 275.93,-173.26 285.98,-169.9 281.69,-164.37"/>
</a>
</g>
<text text-anchor="middle" x="448" y="-115" font-family="Helvetica,sans-Serif" font-size="10.00" fill="grey"> &lt; MotionWavesKernel &gt;</text>
</g>
<!-- Node17 -->
<g id="Node000017" class="node">
<title>Node17</title>
<g id="a_Node000017"><a xlink:href="classsierra_1_1nalu_1_1_ngp_motion_kernel.html" target="_top" xlink:title=" ">
<polygon fill="white" stroke="#666666" points="714,-30 553,-30 553,0 714,0 714,-30"/>
<text text-anchor="start" x="561" y="-18" font-family="Helvetica,sans-Serif" font-size="10.00">sierra::nalu::NgpMotionKernel</text>
<text text-anchor="middle" x="633.5" y="-7" font-family="Helvetica,sans-Serif" font-size="10.00">&lt; TurbineSurrogateKernel &gt;</text>
</a>
</g>
</g>
<!-- Node1&#45;&gt;Node17 -->
<g id="edge16_Node000001_Node000017" class="edge">
<title>Node1&#45;&gt;Node17</title>
<g id="a_edge16_Node000001_Node000017"><a xlink:title=" ">
<path fill="none" stroke="orange" stroke-dasharray="5,2" d="M275.03,-164.85C292.68,-137.51 330.02,-86.28 376,-61 430.31,-31.13 499.95,-20.06 552.96,-16.22"/>
<polygon fill="orange" stroke="orange" points="271.99,-163.11 269.62,-173.44 277.91,-166.84 271.99,-163.11"/>
</a>
</g>
<text text-anchor="middle" x="448" y="-64" font-family="Helvetica,sans-Serif" font-size="10.00" fill="grey"> &lt; TurbineSurrogateKernel &gt;</text>
</g>
<!-- Node2 -->
<g id="Node000002" class="node">
<title>Node2</title>
<g id="a_Node000002"><a xlink:href="classsierra_1_1nalu_1_1_ngp_motion.html" target="_top" xlink:title=" ">
<polygon fill="white" stroke="#666666" points="131,-192.5 0,-192.5 0,-173.5 131,-173.5 131,-192.5"/>
<text text-anchor="middle" x="65.5" y="-180.5" font-family="Helvetica,sans-Serif" font-size="10.00">sierra::nalu::NgpMotion</text>
</a>
</g>
</g>
<!-- Node2&#45;&gt;Node1 -->
<g id="edge1_Node000001_Node000002" class="edge">
<title>Node2&#45;&gt;Node1</title>
<g id="a_edge1_Node000001_Node000002"><a xlink:title=" ">
<path fill="none" stroke="#63b8ff" d="M141.16,-183C149.88,-183 158.87,-183 167.81,-183"/>
<polygon fill="#63b8ff" stroke="#63b8ff" points="141.06,-179.5 131.06,-183 141.06,-186.5 141.06,-179.5"/>
</a>
</g>
</g>
<!-- Node4 -->
<g id="Node000004" class="node">
<title>Node4</title>
<g id="a_Node000004"><a xlink:href="classsierra_1_1nalu_1_1_motion_deforming_interior_kernel.html" target="_top" xlink:title=" ">
<polygon fill="white" stroke="#666666" points="929.5,-366 766.5,-366 766.5,-336 929.5,-336 929.5,-366"/>
<text text-anchor="start" x="774.5" y="-354" font-family="Helvetica,sans-Serif" font-size="10.00">sierra::nalu::MotionDeforming</text>
<text text-anchor="middle" x="848" y="-343" font-family="Helvetica,sans-Serif" font-size="10.00">InteriorKernel</text>
</a>
</g>
</g>
<!-- Node3&#45;&gt;Node4 -->
<g id="edge3_Node000003_Node000004" class="edge">
<title>Node3&#45;&gt;Node4</title>
<g id="a_edge3_Node000003_Node000004"><a xlink:title=" ">
<path fill="none" stroke="#63b8ff" d="M739.45,-351C748.51,-351 757.57,-351 766.39,-351"/>
<polygon fill="#63b8ff" stroke="#63b8ff" points="739.25,-347.5 729.25,-351 739.25,-354.5 739.25,-347.5"/>
</a>
</g>
</g>
<!-- Node6 -->
<g id="Node000006" class="node">
<title>Node6</title>
<g id="a_Node000006"><a xlink:href="classsierra_1_1nalu_1_1_motion_oscillation_kernel.html" target="_top" xlink:title=" ">
<polygon fill="white" stroke="#666666" points="929.5,-318 766.5,-318 766.5,-288 929.5,-288 929.5,-318"/>
<text text-anchor="start" x="774.5" y="-306" font-family="Helvetica,sans-Serif" font-size="10.00">sierra::nalu::MotionOscillation</text>
<text text-anchor="middle" x="848" y="-295" font-family="Helvetica,sans-Serif" font-size="10.00">Kernel</text>
</a>
</g>
</g>
<!-- Node5&#45;&gt;Node6 -->
<g id="edge5_Node000005_Node000006" class="edge">
<title>Node5&#45;&gt;Node6</title>
<g id="a_edge5_Node000005_Node000006"><a xlink:title=" ">
<path fill="none" stroke="#63b8ff" d="M724.33,-303C738.32,-303 752.7,-303 766.47,-303"/>
<polygon fill="#63b8ff" stroke="#63b8ff" points="724.23,-299.5 714.23,-303 724.23,-306.5 724.23,-299.5"/>
</a>
</g>
</g>
<!-- Node8 -->
<g id="Node000008" class="node">
<title>Node8</title>
<g id="a_Node000008"><a xlink:href="classsierra_1_1nalu_1_1_motion_prescribed_kernel.html" target="_top" xlink:title=" ">
<polygon fill="white" stroke="#666666" points="929,-270 767,-270 767,-240 929,-240 929,-270"/>
<text text-anchor="start" x="775" y="-258" font-family="Helvetica,sans-Serif" font-size="10.00">sierra::nalu::MotionPrescribed</text>
<text text-anchor="middle" x="848" y="-247" font-family="Helvetica,sans-Serif" font-size="10.00">Kernel</text>
</a>
</g>
</g>
<!-- Node7&#45;&gt;Node8 -->
<g id="edge7_Node000007_Node000008" class="edge">
<title>Node7&#45;&gt;Node8</title>
<g id="a_edge7_Node000007_Node000008"><a xlink:title=" ">
<path fill="none" stroke="#63b8ff" d="M724.41,-255C738.49,-255 752.97,-255 766.82,-255"/>
<polygon fill="#63b8ff" stroke="#63b8ff" points="724.23,-251.5 714.23,-255 724.23,-258.5 724.23,-251.5"/>
</a>
</g>
</g>
<!-- Node10 -->
<g id="Node000010" class="node">
<title>Node10</title>
<g id="a_Node000010"><a xlink:href="classsierra_1_1nalu_1_1_motion_rotation_kernel.html" target="_top" xlink:title=" ">
<polygon fill="white" stroke="#666666" points="924,-222 772,-222 772,-192 924,-192 924,-222"/>
<text text-anchor="start" x="780" y="-210" font-family="Helvetica,sans-Serif" font-size="10.00">sierra::nalu::MotionRotation</text>
<text text-anchor="middle" x="848" y="-199" font-family="Helvetica,sans-Serif" font-size="10.00">Kernel</text>
</a>
</g>
</g>
<!-- Node9&#45;&gt;Node10 -->
<g id="edge9_Node000009_Node000010" class="edge">
<title>Node9&#45;&gt;Node10</title>
<g id="a_edge9_Node000009_Node000010"><a xlink:title=" ">
<path fill="none" stroke="#63b8ff" d="M724.49,-207C740.23,-207 756.46,-207 771.74,-207"/>
<polygon fill="#63b8ff" stroke="#63b8ff" points="724.23,-203.5 714.23,-207 724.23,-210.5 724.23,-203.5"/>
</a>
</g>
</g>
<!-- Node12 -->
<g id="Node000012" class="node">
<title>Node12</title>
<g id="a_Node000012"><a xlink:href="classsierra_1_1nalu_1_1_motion_scaling_kernel.html" target="_top" xlink:title=" ">
<polygon fill="white" stroke="#666666" points="921,-174 775,-174 775,-144 921,-144 921,-174"/>
<text text-anchor="start" x="783" y="-162" font-family="Helvetica,sans-Serif" font-size="10.00">sierra::nalu::MotionScaling</text>
<text text-anchor="middle" x="848" y="-151" font-family="Helvetica,sans-Serif" font-size="10.00">Kernel</text>
</a>
</g>
</g>
<!-- Node11&#45;&gt;Node12 -->
<g id="edge11_Node000011_Node000012" class="edge">
<title>Node11&#45;&gt;Node12</title>
<g id="a_edge11_Node000011_Node000012"><a xlink:title=" ">
<path fill="none" stroke="#63b8ff" d="M724.6,-159C741.38,-159 758.72,-159 774.88,-159"/>
<polygon fill="#63b8ff" stroke="#63b8ff" points="724.23,-155.5 714.23,-159 724.23,-162.5 724.23,-155.5"/>
</a>
</g>
</g>
<!-- Node14 -->
<g id="Node000014" class="node">
<title>Node14</title>
<g id="a_Node000014"><a xlink:href="classsierra_1_1nalu_1_1_motion_translation_kernel.html" target="_top" xlink:title=" ">
<polygon fill="white" stroke="#666666" points="930,-126 766,-126 766,-96 930,-96 930,-126"/>
<text text-anchor="start" x="774" y="-114" font-family="Helvetica,sans-Serif" font-size="10.00">sierra::nalu::MotionTranslation</text>
<text text-anchor="middle" x="848" y="-103" font-family="Helvetica,sans-Serif" font-size="10.00">Kernel</text>
</a>
</g>
</g>
<!-- Node13&#45;&gt;Node14 -->
<g id="edge13_Node000013_Node000014" class="edge">
<title>Node13&#45;&gt;Node14</title>
<g id="a_edge13_Node000013_Node000014"><a xlink:title=" ">
<path fill="none" stroke="#63b8ff" d="M724.6,-111C738.26,-111 752.3,-111 765.76,-111"/>
<polygon fill="#63b8ff" stroke="#63b8ff" points="724.23,-107.5 714.23,-111 724.23,-114.5 724.23,-107.5"/>
</a>
</g>
</g>
<!-- Node16 -->
<g id="Node000016" class="node">
<title>Node16</title>
<g id="a_Node000016"><a xlink:href="classsierra_1_1nalu_1_1_motion_waves_kernel.html" target="_top" xlink:title=" ">
<polygon fill="white" stroke="#666666" points="919.5,-78 776.5,-78 776.5,-48 919.5,-48 919.5,-78"/>
<text text-anchor="start" x="784.5" y="-66" font-family="Helvetica,sans-Serif" font-size="10.00">sierra::nalu::MotionWaves</text>
<text text-anchor="middle" x="848" y="-55" font-family="Helvetica,sans-Serif" font-size="10.00">Kernel</text>
</a>
</g>
</g>
<!-- Node15&#45;&gt;Node16 -->
<g id="edge15_Node000015_Node000016" class="edge">
<title>Node15&#45;&gt;Node16</title>
<g id="a_edge15_Node000015_Node000016"><a xlink:title=" ">
<path fill="none" stroke="#63b8ff" d="M724.36,-63C741.7,-63 759.63,-63 776.26,-63"/>
<polygon fill="#63b8ff" stroke="#63b8ff" points="724.23,-59.5 714.23,-63 724.23,-66.5 724.23,-59.5"/>
</a>
</g>
</g>
<!-- Node18 -->
<g id="Node000018" class="node">
<title>Node18</title>
<g id="a_Node000018"><a xlink:href="classsierra_1_1nalu_1_1_turbine_surrogate_kernel.html" target="_top" xlink:title=" ">
<polygon fill="white" stroke="#666666" points="928,-30 768,-30 768,0 928,0 928,-30"/>
<text text-anchor="start" x="776" y="-18" font-family="Helvetica,sans-Serif" font-size="10.00">sierra::nalu::TurbineSurrogate</text>
<text text-anchor="middle" x="848" y="-7" font-family="Helvetica,sans-Serif" font-size="10.00">Kernel</text>
</a>
</g>
</g>
<!-- Node17&#45;&gt;Node18 -->
<g id="edge17_Node000017_Node000018" class="edge">
<title>Node17&#45;&gt;Node18</title>
<g id="a_edge17_Node000017_Node000018"><a xlink:title=" ">
<path fill="none" stroke="#63b8ff" d="M724.62,-15C739,-15 753.78,-15 767.88,-15"/>
<polygon fill="#63b8ff" stroke="#63b8ff" points="724.23,-11.5 714.23,-15 724.23,-18.5 724.23,-11.5"/>
</a>
</g>
</g>
</g>
</svg>

<g id="navigator" transform="translate(0 0)" fill="#404254">
  <rect fill="#f2f5e9" fill-opacity="0.5" stroke="#606060" stroke-width=".5" x="0" y="0" width="60" height="60"/>
  <use id="zoomplus" xlink:href="#zoomPlus" x="17" y="9" onmousedown="handleZoom(evt,'in')"/>
  <use id="zoomminus" xlink:href="#zoomMin" x="42" y="9" onmousedown="handleZoom(evt,'out')"/>
  <use id="reset" xlink:href="#resetDef" x="30" y="36" onmousedown="handleReset()"/>
   <use id="arrowup" xlink:href="#arrowUp" x="0" y="0" onmousedown="handlePan(0,-1)"/>
  <use id="arrowright" xlink:href="#arrowRight" x="0" y="0" onmousedown="handlePan(1,0)"/>
  <use id="arrowdown" xlink:href="#arrowDown" x="0" y="0" onmousedown="handlePan(0,1)"/>
  <use id="arrowleft" xlink:href="#arrowLeft" x="0" y="0" onmousedown="handlePan(-1,0)"/>
</g>
<svg viewBox="0 0 15 15" width="100%" height="30px" preserveAspectRatio="xMaxYMin meet">
 <g id="arrow_out" transform="scale(0.3 0.3)">
  <a xlink:href="classsierra_1_1nalu_1_1_ngp_motion_kernel__inherit__graph_org.svg" target="_base">
   <rect id="button" ry="5" rx="5" y="6" x="6" height="38" width="38"
        fill="#f2f5e9" fill-opacity="0.5" stroke="#606060" stroke-width="1.0"/>
   <path id="arrow"
     d="M 11.500037,31.436501 C 11.940474,20.09759 22.043105,11.32322 32.158766,21.979434 L 37.068811,17.246167 C 37.068811,17.246167 37.088388,32 37.088388,32 L 22.160133,31.978069 C 22.160133,31.978069 26.997745,27.140456 26.997745,27.140456 C 18.528582,18.264221 13.291696,25.230495 11.500037,31.436501 z"
     style="fill:#404040;"/>
  </a>
 </g>
</svg>

<style type='text/css'>
<![CDATA[
[data-mouse-over-selected='false'] { opacity: 0.7; }
[data-mouse-over-selected='true']  { opacity: 1.0; }
]]>
</style>
<script type="application/ecmascript"><![CDATA[
document.addEventListener('DOMContentLoaded', (event) => {
  highlightEdges();
  highlightAdjacentNodes();
});
]]></script>
</svg>
