<?xml version="1.0" encoding="UTF-8" standalone="no"?>
<!DOCTYPE svg PUBLIC "-//W3C//DTD SVG 1.1//EN"
 "http://www.w3.org/Graphics/SVG/1.1/DTD/svg11.dtd">
<!-- Generated by graphviz version 2.43.0 (0)
 -->
<!-- Title: sierra::nalu::NgpMotion Pages: 1 -->
<!--zoomable 510 -->

<svg id="main" version="1.1" xmlns="http://www.w3.org/2000/svg" xmlns:xlink="http://www.w3.org/1999/xlink" xml:space="preserve" onload="init(evt)">
<style type="text/css"><![CDATA[
.node, .edge {opacity: 0.7;}
.node.selected, .edge.selected {opacity: 1;}
.edge:hover path { stroke: red; }
.edge:hover polygon { stroke: red; fill: red; }
]]></style>

<defs>
  <circle id="rim" cx="0" cy="0" r="7"/>
  <circle id="rim2" cx="0" cy="0" r="3.5"/>
  <g id="zoomPlus">
    <use xlink:href="#rim" fill="#404040"><set attributeName="fill" to="#808080" begin="zoomplus.mouseover" end="zoomplus.mouseout"/></use>
    <path d="M-4,0h8M0,-4v8" fill="none" stroke="white" stroke-width="1.5" pointer-events="none"/>
  </g>
  <g id="zoomMin">
    <use xlink:href="#rim" fill="#404040"><set attributeName="fill" to="#808080" begin="zoomminus.mouseover" end="zoomminus.mouseout"/></use>
    <path d="M-4,0h8" fill="none" stroke="white" stroke-width="1.5" pointer-events="none"/>
  </g>
  <g id="arrowUp" transform="translate(30 24)">
    <use xlink:href="#rim"/>
    <path pointer-events="none" fill="none" stroke="white" stroke-width="1.5" d="M0,-3.0v7 M-2.5,-0.5L0,-3.0L2.5,-0.5"/>
  </g>
  <g id="arrowRight" transform="rotate(90) translate(36 -43)">
    <use xlink:href="#rim"/>
    <path pointer-events="none" fill="none" stroke="white" stroke-width="1.5" d="M0,-3.0v7 M-2.5,-0.5L0,-3.0L2.5,-0.5"/>
  </g>
  <g id="arrowDown" transform="rotate(180) translate(-30 -48)">
    <use xlink:href="#rim"/>
    <path pointer-events="none" fill="none" stroke="white" stroke-width="1.5" d="M0,-3.0v7 M-2.5,-0.5L0,-3.0L2.5,-0.5"/>
  </g>
  <g id="arrowLeft" transform="rotate(270) translate(-36 17)">
    <use xlink:href="#rim"/>
    <path pointer-events="none" fill="none" stroke="white" stroke-width="1.5" d="M0,-3.0v7 M-2.5,-0.5L0,-3.0L2.5,-0.5"/>
  </g>
  <g id="resetDef">
    <use xlink:href="#rim2" fill="#404040"><set attributeName="fill" to="#808080" begin="reset.mouseover" end="reset.mouseout"/></use>
  </g>
</defs>
<script type="application/ecmascript">
var viewWidth = 938;
var viewHeight = 510;
var sectionId = 'dynsection-0';
</script>
<script type="application/ecmascript" xlink:href="svg.min.js"/>
<svg id="graph" class="graph">
<g id="viewport">
<title>sierra::nalu::NgpMotion</title>
<!-- Node1 -->
<g id="Node000001" class="node">
<title>Node1</title>
<g id="a_Node000001"><a xlink:title=" ">
<polygon fill="#999999" stroke="#666666" points="131,-275.42 0,-275.42 0,-256.42 131,-256.42 131,-275.42"/>
<text text-anchor="middle" x="65.5" y="-263.42" font-family="Helvetica,sans-Serif" font-size="10.00">sierra::nalu::NgpMotion</text>
</a>
</g>
</g>
<!-- Node2 -->
<g id="Node000002" class="node">
<title>Node2</title>
<g id="a_Node000002"><a xlink:href="classsierra_1_1nalu_1_1_ngp_motion_kernel.html" target="_top" xlink:title=" ">
<polygon fill="white" stroke="#666666" points="729,-452.92 538,-452.92 538,-422.92 729,-422.92 729,-452.92"/>
<text text-anchor="start" x="546" y="-440.92" font-family="Helvetica,sans-Serif" font-size="10.00">sierra::nalu::NgpMotionKernel</text>
<text text-anchor="middle" x="633.5" y="-429.92" font-family="Helvetica,sans-Serif" font-size="10.00">&lt; MotionDeformingInteriorKernel &gt;</text>
</a>
</g>
</g>
<!-- Node1&#45;&gt;Node2 -->
<g id="edge1_Node000001_Node000002" class="edge">
<title>Node1&#45;&gt;Node2</title>
<g id="a_edge1_Node000001_Node000002"><a xlink:title=" ">
<path fill="none" stroke="#63b8ff" d="M73.2,-285.53C85.99,-319.9 117.19,-390.85 168,-427.92 295.81,-521.16 364.42,-509.64 520,-480.92 548.79,-475.6 579.73,-463.24 601.87,-453.13"/>
<polygon fill="#63b8ff" stroke="#63b8ff" points="76.37,-283.98 69.7,-275.75 69.78,-286.34 76.37,-283.98"/>
</a>
</g>
</g>
<!-- Node4 -->
<g id="Node000004" class="node">
<title>Node4</title>
<g id="a_Node000004"><a xlink:href="classsierra_1_1nalu_1_1_ngp_motion_kernel.html" target="_top" xlink:title=" ">
<polygon fill="white" stroke="#666666" points="714,-404.92 553,-404.92 553,-374.92 714,-374.92 714,-404.92"/>
<text text-anchor="start" x="561" y="-392.92" font-family="Helvetica,sans-Serif" font-size="10.00">sierra::nalu::NgpMotionKernel</text>
<text text-anchor="middle" x="633.5" y="-381.92" font-family="Helvetica,sans-Serif" font-size="10.00">&lt; MotionOscillationKernel &gt;</text>
</a>
</g>
</g>
<!-- Node1&#45;&gt;Node4 -->
<g id="edge3_Node000001_Node000004" class="edge">
<title>Node1&#45;&gt;Node4</title>
<g id="a_edge3_Node000001_Node000004"><a xlink:title=" ">
<path fill="none" stroke="#63b8ff" d="M79.45,-283.95C97.13,-307.45 130.88,-348.52 168,-373.92 250.28,-430.22 278.13,-438.9 376,-457.92 438.83,-470.12 466.86,-493.59 520,-457.92 537.54,-446.14 522.05,-427.78 538,-413.92 542.47,-410.03 547.49,-406.76 552.81,-404"/>
<polygon fill="#63b8ff" stroke="#63b8ff" points="82.05,-281.57 73.29,-275.6 76.41,-285.73 82.05,-281.57"/>
</a>
</g>
</g>
<!-- Node6 -->
<g id="Node000006" class="node">
<title>Node6</title>
<g id="a_Node000006"><a xlink:href="classsierra_1_1nalu_1_1_ngp_motion_kernel.html" target="_top" xlink:title=" ">
<polygon fill="white" stroke="#666666" points="714,-356.92 553,-356.92 553,-326.92 714,-326.92 714,-356.92"/>
<text text-anchor="start" x="561" y="-344.92" font-family="Helvetica,sans-Serif" font-size="10.00">sierra::nalu::NgpMotionKernel</text>
<text text-anchor="middle" x="633.5" y="-333.92" font-family="Helvetica,sans-Serif" font-size="10.00">&lt; MotionPrescribedKernel &gt;</text>
</a>
</g>
</g>
<!-- Node1&#45;&gt;Node6 -->
<g id="edge5_Node000001_Node000006" class="edge">
<title>Node1&#45;&gt;Node6</title>
<g id="a_edge5_Node000001_Node000006"><a xlink:title=" ">
<path fill="none" stroke="#63b8ff" d="M85.35,-282.03C104.83,-297.91 136.73,-321.79 168,-335.92 254.84,-375.15 281.42,-376.27 376,-387.92 439.52,-395.74 462.17,-415.32 520,-387.92 531.42,-382.51 527.34,-372.7 538,-365.92 543.43,-362.46 549.32,-359.5 555.43,-356.97"/>
<polygon fill="#63b8ff" stroke="#63b8ff" points="87.48,-279.26 77.55,-275.56 83.01,-284.64 87.48,-279.26"/>
</a>
</g>
</g>
<!-- Node8 -->
<g id="Node000008" class="node">
<title>Node8</title>
<g id="a_Node000008"><a xlink:href="classsierra_1_1nalu_1_1_ngp_motion_kernel.html" target="_top" xlink:title=" ">
<polygon fill="white" stroke="#666666" points="714,-308.92 553,-308.92 553,-278.92 714,-278.92 714,-308.92"/>
<text text-anchor="start" x="561" y="-296.92" font-family="Helvetica,sans-Serif" font-size="10.00">sierra::nalu::NgpMotionKernel</text>
<text text-anchor="middle" x="633.5" y="-285.92" font-family="Helvetica,sans-Serif" font-size="10.00">&lt; MotionRotationKernel &gt;</text>
</a>
</g>
</g>
<!-- Node1&#45;&gt;Node8 -->
<g id="edge7_Node000001_Node000008" class="edge">
<title>Node1&#45;&gt;Node8</title>
<g id="a_edge7_Node000001_Node000008"><a xlink:title=" ">
<path fill="none" stroke="#63b8ff" d="M98.5,-279.18C173.48,-308.38 365.85,-372.29 520,-328.92 529.03,-326.38 529.36,-321.55 538,-317.92 545.96,-314.56 554.49,-311.6 563.06,-308.99"/>
<polygon fill="#63b8ff" stroke="#63b8ff" points="99.71,-275.9 89.12,-275.47 97.13,-282.41 99.71,-275.9"/>
</a>
</g>
</g>
<!-- Node10 -->
<g id="Node000010" class="node">
<title>Node10</title>
<g id="a_Node000010"><a xlink:href="classsierra_1_1nalu_1_1_ngp_motion_kernel.html" target="_top" xlink:title=" ">
<polygon fill="white" stroke="#666666" points="714,-212.92 553,-212.92 553,-182.92 714,-182.92 714,-212.92"/>
<text text-anchor="start" x="561" y="-200.92" font-family="Helvetica,sans-Serif" font-size="10.00">sierra::nalu::NgpMotionKernel</text>
<text text-anchor="middle" x="633.5" y="-189.92" font-family="Helvetica,sans-Serif" font-size="10.00">&lt; MotionScalingKernel &gt;</text>
</a>
</g>
</g>
<!-- Node1&#45;&gt;Node10 -->
<g id="edge9_Node000001_Node000010" class="edge">
<title>Node1&#45;&gt;Node10</title>
<g id="a_edge9_Node000001_Node000010"><a xlink:title=" ">
<path fill="none" stroke="#63b8ff" d="M80,-248.36C97.64,-226.89 130.7,-191.38 168,-174.92 311.37,-111.62 376.03,-91.99 520,-153.92 530.69,-158.51 528,-166.98 538,-172.92 544.57,-176.81 551.75,-180.11 559.12,-182.9"/>
<polygon fill="#63b8ff" stroke="#63b8ff" points="77.13,-246.35 73.62,-256.35 82.6,-250.72 77.13,-246.35"/>
</a>
</g>
</g>
<!-- Node12 -->
<g id="Node000012" class="node">
<title>Node12</title>
<g id="a_Node000012"><a xlink:href="classsierra_1_1nalu_1_1_ngp_motion_kernel.html" target="_top" xlink:title=" ">
<polygon fill="white" stroke="#666666" points="714,-260.92 553,-260.92 553,-230.92 714,-230.92 714,-260.92"/>
<text text-anchor="start" x="561" y="-248.92" font-family="Helvetica,sans-Serif" font-size="10.00">sierra::nalu::NgpMotionKernel</text>
<text text-anchor="middle" x="633.5" y="-237.92" font-family="Helvetica,sans-Serif" font-size="10.00">&lt; MotionTranslationKernel &gt;</text>
</a>
</g>
</g>
<!-- Node1&#45;&gt;Node12 -->
<g id="edge11_Node000001_Node000012" class="edge">
<title>Node1&#45;&gt;Node12</title>
<g id="a_edge11_Node000001_Node000012"><a xlink:title=" ">
<path fill="none" stroke="#63b8ff" d="M94.68,-252.12C168.06,-218.25 369.75,-138.29 520,-202.92 530.69,-207.51 527.97,-216.03 538,-221.92 543.84,-225.34 550.16,-228.28 556.67,-230.81"/>
<polygon fill="#63b8ff" stroke="#63b8ff" points="93.16,-248.97 85.59,-256.39 96.13,-255.31 93.16,-248.97"/>
</a>
</g>
</g>
<!-- Node14 -->
<g id="Node000014" class="node">
<title>Node14</title>
<g id="a_Node000014"><a xlink:href="classsierra_1_1nalu_1_1_ngp_motion_kernel.html" target="_top" xlink:title=" ">
<polygon fill="white" stroke="#666666" points="714,-163.92 553,-163.92 553,-133.92 714,-133.92 714,-163.92"/>
<text text-anchor="start" x="561" y="-151.92" font-family="Helvetica,sans-Serif" font-size="10.00">sierra::nalu::NgpMotionKernel</text>
<text text-anchor="middle" x="633.5" y="-140.92" font-family="Helvetica,sans-Serif" font-size="10.00">&lt; MotionWavesKernel &gt;</text>
</a>
</g>
</g>
<!-- Node1&#45;&gt;Node14 -->
<g id="edge13_Node000001_Node000014" class="edge">
<title>Node1&#45;&gt;Node14</title>
<g id="a_edge13_Node000001_Node000014"><a xlink:title=" ">
<path fill="none" stroke="#63b8ff" d="M73.19,-246.89C85.95,-213.65 117.11,-145.45 168,-112.92 300.35,-28.3 368.68,-38.74 520,-80.92 556.71,-91.15 593.4,-116.97 614.47,-133.68"/>
<polygon fill="#63b8ff" stroke="#63b8ff" points="69.87,-245.77 69.69,-256.36 76.44,-248.19 69.87,-245.77"/>
</a>
</g>
</g>
<!-- Node16 -->
<g id="Node000016" class="node">
<title>Node16</title>
<g id="a_Node000016"><a xlink:href="classsierra_1_1nalu_1_1_ngp_motion_kernel.html" target="_top" xlink:title=" ">
<polygon fill="white" stroke="#666666" points="714,-76.92 553,-76.92 553,-46.92 714,-46.92 714,-76.92"/>
<text text-anchor="start" x="561" y="-64.92" font-family="Helvetica,sans-Serif" font-size="10.00">sierra::nalu::NgpMotionKernel</text>
<text text-anchor="middle" x="633.5" y="-53.92" font-family="Helvetica,sans-Serif" font-size="10.00">&lt; TurbineSurrogateKernel &gt;</text>
</a>
</g>
</g>
<!-- Node1&#45;&gt;Node16 -->
<g id="edge15_Node000001_Node000016" class="edge">
<title>Node1&#45;&gt;Node16</title>
<g id="a_edge15_Node000001_Node000016"><a xlink:title=" ">
<path fill="none" stroke="#63b8ff" d="M68.68,-246.1C74.84,-201.09 96.8,-91.48 168,-45.92 303.08,40.53 508.39,-16.9 593.47,-46.9"/>
<polygon fill="#63b8ff" stroke="#63b8ff" points="65.2,-245.72 67.44,-256.08 72.15,-246.59 65.2,-245.72"/>
</a>
</g>
</g>
<!-- Node18 -->
<g id="Node000018" class="node">
<title>Node18</title>
<g id="a_Node000018"><a xlink:href="classsierra_1_1nalu_1_1_ngp_motion_kernel.html" target="_top" xlink:title=" ">
<polygon fill="white" stroke="#666666" points="358,-275.42 168,-275.42 168,-256.42 358,-256.42 358,-275.42"/>
<text text-anchor="middle" x="263" y="-263.42" font-family="Helvetica,sans-Serif" font-size="10.00">sierra::nalu::NgpMotionKernel&lt; T &gt;</text>
</a>
</g>
</g>
<!-- Node1&#45;&gt;Node18 -->
<g id="edge17_Node000001_Node000018" class="edge">
<title>Node1&#45;&gt;Node18</title>
<g id="a_edge17_Node000001_Node000018"><a xlink:title=" ">
<path fill="none" stroke="#63b8ff" d="M141.16,-265.92C149.88,-265.92 158.87,-265.92 167.81,-265.92"/>
<polygon fill="#63b8ff" stroke="#63b8ff" points="141.06,-262.42 131.06,-265.92 141.06,-269.42 141.06,-262.42"/>
</a>
</g>
</g>
<!-- Node3 -->
<g id="Node000003" class="node">
<title>Node3</title>
<g id="a_Node000003"><a xlink:href="classsierra_1_1nalu_1_1_motion_deforming_interior_kernel.html" target="_top" xlink:title=" ">
<polygon fill="white" stroke="#666666" points="929.5,-452.92 766.5,-452.92 766.5,-422.92 929.5,-422.92 929.5,-452.92"/>
<text text-anchor="start" x="774.5" y="-440.92" font-family="Helvetica,sans-Serif" font-size="10.00">sierra::nalu::MotionDeforming</text>
<text text-anchor="middle" x="848" y="-429.92" font-family="Helvetica,sans-Serif" font-size="10.00">InteriorKernel</text>
</a>
</g>
</g>
<!-- Node2&#45;&gt;Node3 -->
<g id="edge2_Node000002_Node000003" class="edge">
<title>Node2&#45;&gt;Node3</title>
<g id="a_edge2_Node000002_Node000003"><a xlink:title=" ">
<path fill="none" stroke="#63b8ff" d="M739.45,-437.92C748.51,-437.92 757.57,-437.92 766.39,-437.92"/>
<polygon fill="#63b8ff" stroke="#63b8ff" points="739.25,-434.42 729.25,-437.92 739.25,-441.42 739.25,-434.42"/>
</a>
</g>
</g>
<!-- Node5 -->
<g id="Node000005" class="node">
<title>Node5</title>
<g id="a_Node000005"><a xlink:href="classsierra_1_1nalu_1_1_motion_oscillation_kernel.html" target="_top" xlink:title=" ">
<polygon fill="white" stroke="#666666" points="929.5,-404.92 766.5,-404.92 766.5,-374.92 929.5,-374.92 929.5,-404.92"/>
<text text-anchor="start" x="774.5" y="-392.92" font-family="Helvetica,sans-Serif" font-size="10.00">sierra::nalu::MotionOscillation</text>
<text text-anchor="middle" x="848" y="-381.92" font-family="Helvetica,sans-Serif" font-size="10.00">Kernel</text>
</a>
</g>
</g>
<!-- Node4&#45;&gt;Node5 -->
<g id="edge4_Node000004_Node000005" class="edge">
<title>Node4&#45;&gt;Node5</title>
<g id="a_edge4_Node000004_Node000005"><a xlink:title=" ">
<path fill="none" stroke="#63b8ff" d="M724.33,-389.92C738.32,-389.92 752.7,-389.92 766.47,-389.92"/>
<polygon fill="#63b8ff" stroke="#63b8ff" points="724.23,-386.42 714.23,-389.92 724.23,-393.42 724.23,-386.42"/>
</a>
</g>
</g>
<!-- Node7 -->
<g id="Node000007" class="node">
<title>Node7</title>
<g id="a_Node000007"><a xlink:href="classsierra_1_1nalu_1_1_motion_prescribed_kernel.html" target="_top" xlink:title=" ">
<polygon fill="white" stroke="#666666" points="929,-356.92 767,-356.92 767,-326.92 929,-326.92 929,-356.92"/>
<text text-anchor="start" x="775" y="-344.92" font-family="Helvetica,sans-Serif" font-size="10.00">sierra::nalu::MotionPrescribed</text>
<text text-anchor="middle" x="848" y="-333.92" font-family="Helvetica,sans-Serif" font-size="10.00">Kernel</text>
</a>
</g>
</g>
<!-- Node6&#45;&gt;Node7 -->
<g id="edge6_Node000006_Node000007" class="edge">
<title>Node6&#45;&gt;Node7</title>
<g id="a_edge6_Node000006_Node000007"><a xlink:title=" ">
<path fill="none" stroke="#63b8ff" d="M724.41,-341.92C738.49,-341.92 752.97,-341.92 766.82,-341.92"/>
<polygon fill="#63b8ff" stroke="#63b8ff" points="724.23,-338.42 714.23,-341.92 724.23,-345.42 724.23,-338.42"/>
</a>
</g>
</g>
<!-- Node9 -->
<g id="Node000009" class="node">
<title>Node9</title>
<g id="a_Node000009"><a xlink:href="classsierra_1_1nalu_1_1_motion_rotation_kernel.html" target="_top" xlink:title=" ">
<polygon fill="white" stroke="#666666" points="924,-308.92 772,-308.92 772,-278.92 924,-278.92 924,-308.92"/>
<text text-anchor="start" x="780" y="-296.92" font-family="Helvetica,sans-Serif" font-size="10.00">sierra::nalu::MotionRotation</text>
<text text-anchor="middle" x="848" y="-285.92" font-family="Helvetica,sans-Serif" font-size="10.00">Kernel</text>
</a>
</g>
</g>
<!-- Node8&#45;&gt;Node9 -->
<g id="edge8_Node000008_Node000009" class="edge">
<title>Node8&#45;&gt;Node9</title>
<g id="a_edge8_Node000008_Node000009"><a xlink:title=" ">
<path fill="none" stroke="#63b8ff" d="M724.49,-293.92C740.23,-293.92 756.46,-293.92 771.74,-293.92"/>
<polygon fill="#63b8ff" stroke="#63b8ff" points="724.23,-290.42 714.23,-293.92 724.23,-297.42 724.23,-290.42"/>
</a>
</g>
</g>
<!-- Node11 -->
<g id="Node000011" class="node">
<title>Node11</title>
<g id="a_Node000011"><a xlink:href="classsierra_1_1nalu_1_1_motion_scaling_kernel.html" target="_top" xlink:title=" ">
<polygon fill="white" stroke="#666666" points="921,-212.92 775,-212.92 775,-182.92 921,-182.92 921,-212.92"/>
<text text-anchor="start" x="783" y="-200.92" font-family="Helvetica,sans-Serif" font-size="10.00">sierra::nalu::MotionScaling</text>
<text text-anchor="middle" x="848" y="-189.92" font-family="Helvetica,sans-Serif" font-size="10.00">Kernel</text>
</a>
</g>
</g>
<!-- Node10&#45;&gt;Node11 -->
<g id="edge10_Node000010_Node000011" class="edge">
<title>Node10&#45;&gt;Node11</title>
<g id="a_edge10_Node000010_Node000011"><a xlink:title=" ">
<path fill="none" stroke="#63b8ff" d="M724.6,-197.92C741.38,-197.92 758.72,-197.92 774.88,-197.92"/>
<polygon fill="#63b8ff" stroke="#63b8ff" points="724.23,-194.42 714.23,-197.92 724.23,-201.42 724.23,-194.42"/>
</a>
</g>
</g>
<!-- Node13 -->
<g id="Node000013" class="node">
<title>Node13</title>
<g id="a_Node000013"><a xlink:href="classsierra_1_1nalu_1_1_motion_translation_kernel.html" target="_top" xlink:title=" ">
<polygon fill="white" stroke="#666666" points="930,-260.92 766,-260.92 766,-230.92 930,-230.92 930,-260.92"/>
<text text-anchor="start" x="774" y="-248.92" font-family="Helvetica,sans-Serif" font-size="10.00">sierra::nalu::MotionTranslation</text>
<text text-anchor="middle" x="848" y="-237.92" font-family="Helvetica,sans-Serif" font-size="10.00">Kernel</text>
</a>
</g>
</g>
<!-- Node12&#45;&gt;Node13 -->
<g id="edge12_Node000012_Node000013" class="edge">
<title>Node12&#45;&gt;Node13</title>
<g id="a_edge12_Node000012_Node000013"><a xlink:title=" ">
<path fill="none" stroke="#63b8ff" d="M724.6,-245.92C738.26,-245.92 752.3,-245.92 765.76,-245.92"/>
<polygon fill="#63b8ff" stroke="#63b8ff" points="724.23,-242.42 714.23,-245.92 724.23,-249.42 724.23,-242.42"/>
</a>
</g>
</g>
<!-- Node15 -->
<g id="Node000015" class="node">
<title>Node15</title>
<g id="a_Node000015"><a xlink:href="classsierra_1_1nalu_1_1_motion_waves_kernel.html" target="_top" xlink:title=" ">
<polygon fill="white" stroke="#666666" points="919.5,-163.92 776.5,-163.92 776.5,-133.92 919.5,-133.92 919.5,-163.92"/>
<text text-anchor="start" x="784.5" y="-151.92" font-family="Helvetica,sans-Serif" font-size="10.00">sierra::nalu::MotionWaves</text>
<text text-anchor="middle" x="848" y="-140.92" font-family="Helvetica,sans-Serif" font-size="10.00">Kernel</text>
</a>
</g>
</g>
<!-- Node14&#45;&gt;Node15 -->
<g id="edge14_Node000014_Node000015" class="edge">
<title>Node14&#45;&gt;Node15</title>
<g id="a_edge14_Node000014_Node000015"><a xlink:title=" ">
<path fill="none" stroke="#63b8ff" d="M724.36,-148.92C741.7,-148.92 759.63,-148.92 776.26,-148.92"/>
<polygon fill="#63b8ff" stroke="#63b8ff" points="724.23,-145.42 714.23,-148.92 724.23,-152.42 724.23,-145.42"/>
</a>
</g>
</g>
<!-- Node17 -->
<g id="Node000017" class="node">
<title>Node17</title>
<g id="a_Node000017"><a xlink:href="classsierra_1_1nalu_1_1_turbine_surrogate_kernel.html" target="_top" xlink:title=" ">
<polygon fill="white" stroke="#666666" points="928,-76.92 768,-76.92 768,-46.92 928,-46.92 928,-76.92"/>
<text text-anchor="start" x="776" y="-64.92" font-family="Helvetica,sans-Serif" font-size="10.00">sierra::nalu::TurbineSurrogate</text>
<text text-anchor="middle" x="848" y="-53.92" font-family="Helvetica,sans-Serif" font-size="10.00">Kernel</text>
</a>
</g>
</g>
<!-- Node16&#45;&gt;Node17 -->
<g id="edge16_Node000016_Node000017" class="edge">
<title>Node16&#45;&gt;Node17</title>
<g id="a_edge16_Node000016_Node000017"><a xlink:title=" ">
<path fill="none" stroke="#63b8ff" d="M724.62,-61.92C739,-61.92 753.78,-61.92 767.88,-61.92"/>
<polygon fill="#63b8ff" stroke="#63b8ff" points="724.23,-58.42 714.23,-61.92 724.23,-65.42 724.23,-58.42"/>
</a>
</g>
</g>
<!-- Node18&#45;&gt;Node2 -->
<g id="edge18_Node000018_Node000002" class="edge">
<title>Node18&#45;&gt;Node2</title>
<g id="a_edge18_Node000018_Node000002"><a xlink:title=" ">
<path fill="none" stroke="orange" stroke-dasharray="5,2" d="M274.98,-284.32C292.56,-312.05 329.81,-364.05 376,-389.92 425.21,-417.48 487.22,-429.59 537.94,-434.75"/>
<polygon fill="orange" stroke="orange" points="277.83,-282.27 269.6,-275.61 271.87,-285.95 277.83,-282.27"/>
</a>
</g>
<text text-anchor="start" x="380" y="-445.92" font-family="Helvetica,sans-Serif" font-size="10.00" fill="grey"> &lt; MotionDeformingInterior</text>
<text text-anchor="middle" x="448" y="-434.92" font-family="Helvetica,sans-Serif" font-size="10.00" fill="grey">Kernel &gt;</text>
</g>
<!-- Node18&#45;&gt;Node4 -->
<g id="edge19_Node000018_Node000004" class="edge">
<title>Node18&#45;&gt;Node4</title>
<g id="a_edge19_Node000018_Node000004"><a xlink:title=" ">
<path fill="none" stroke="orange" stroke-dasharray="5,2" d="M283.99,-281.77C305.5,-298.03 341.3,-322.88 376,-336.92 432.91,-359.93 501.13,-373.41 552.9,-381.01"/>
<polygon fill="orange" stroke="orange" points="286.01,-278.91 275.96,-275.58 281.75,-284.46 286.01,-278.91"/>
</a>
</g>
<text text-anchor="middle" x="448" y="-377.92" font-family="Helvetica,sans-Serif" font-size="10.00" fill="grey"> &lt; MotionOscillationKernel &gt;</text>
</g>
<!-- Node18&#45;&gt;Node6 -->
<g id="edge20_Node000018_Node000006" class="edge">
<title>Node18&#45;&gt;Node6</title>
<g id="a_edge20_Node000018_Node000006"><a xlink:title=" ">
<path fill="none" stroke="orange" stroke-dasharray="5,2" d="M307.89,-278.06C328.48,-283.56 353.41,-289.93 376,-294.92 434.91,-307.92 501.98,-320.12 552.77,-328.83"/>
<polygon fill="orange" stroke="orange" points="308.72,-274.66 298.16,-275.44 306.91,-281.42 308.72,-274.66"/>
</a>
</g>
<text text-anchor="middle" x="448" y="-324.92" font-family="Helvetica,sans-Serif" font-size="10.00" fill="grey"> &lt; MotionPrescribedKernel &gt;</text>
</g>
<!-- Node18&#45;&gt;Node8 -->
<g id="edge21_Node000018_Node000008" class="edge">
<title>Node18&#45;&gt;Node8</title>
<g id="a_edge21_Node000018_Node000008"><a xlink:title=" ">
<path fill="none" stroke="orange" stroke-dasharray="5,2" d="M368.33,-272.81C414.78,-276 470.14,-279.95 520,-283.92 530.65,-284.76 541.87,-285.7 552.92,-286.66"/>
<polygon fill="orange" stroke="orange" points="368.47,-269.32 358.26,-272.13 367.99,-276.3 368.47,-269.32"/>
</a>
</g>
<text text-anchor="middle" x="448" y="-286.92" font-family="Helvetica,sans-Serif" font-size="10.00" fill="grey"> &lt; MotionRotationKernel &gt;</text>
</g>
<!-- Node18&#45;&gt;Node10 -->
<g id="edge22_Node000018_Node000010" class="edge">
<title>Node18&#45;&gt;Node10</title>
<g id="a_edge22_Node000018_Node000010"><a xlink:title=" ">
<path fill="none" stroke="orange" stroke-dasharray="5,2" d="M297.62,-252.86C319.61,-244.81 349.14,-234.91 376,-228.92 434.55,-215.84 501.94,-207.97 552.94,-203.43"/>
<polygon fill="orange" stroke="orange" points="296.23,-249.64 288.08,-256.41 298.67,-256.21 296.23,-249.64"/>
</a>
</g>
<text text-anchor="middle" x="448" y="-231.92" font-family="Helvetica,sans-Serif" font-size="10.00" fill="grey"> &lt; MotionScalingKernel &gt;</text>
</g>
<!-- Node18&#45;&gt;Node12 -->
<g id="edge23_Node000018_Node000012" class="edge">
<title>Node18&#45;&gt;Node12</title>
<g id="a_edge23_Node000018_Node000012"><a xlink:title=" ">
<path fill="none" stroke="orange" stroke-dasharray="5,2" d="M330.92,-254.95C345.73,-252.92 361.36,-251.07 376,-249.92 435.16,-245.25 502.23,-244.36 552.94,-244.57"/>
<polygon fill="orange" stroke="orange" points="330.23,-251.51 320.82,-256.38 331.21,-258.44 330.23,-251.51"/>
</a>
</g>
<text text-anchor="middle" x="448" y="-252.92" font-family="Helvetica,sans-Serif" font-size="10.00" fill="grey"> &lt; MotionTranslationKernel &gt;</text>
</g>
<!-- Node18&#45;&gt;Node14 -->
<g id="edge24_Node000018_Node000014" class="edge">
<title>Node18&#45;&gt;Node14</title>
<g id="a_edge24_Node000018_Node000014"><a xlink:title=" ">
<path fill="none" stroke="orange" stroke-dasharray="5,2" d="M283.08,-249.65C304.32,-232.46 340.36,-205.94 376,-191.92 432.72,-169.59 500.95,-158.85 552.77,-153.69"/>
<polygon fill="orange" stroke="orange" points="280.67,-247.1 275.19,-256.16 285.13,-252.5 280.67,-247.1"/>
</a>
</g>
<text text-anchor="middle" x="448" y="-194.92" font-family="Helvetica,sans-Serif" font-size="10.00" fill="grey"> &lt; MotionWavesKernel &gt;</text>
</g>
<!-- Node18&#45;&gt;Node16 -->
<g id="edge25_Node000018_Node000016" class="edge">
<title>Node18&#45;&gt;Node16</title>
<g id="a_edge25_Node000018_Node000016"><a xlink:title=" ">
<path fill="none" stroke="orange" stroke-dasharray="5,2" d="M275.69,-247.94C293.96,-221.23 331.82,-171.17 376,-142.92 429.99,-108.38 499.82,-87.59 552.98,-75.74"/>
<polygon fill="orange" stroke="orange" points="272.72,-246.09 270.06,-256.34 278.54,-249.98 272.72,-246.09"/>
</a>
</g>
<text text-anchor="middle" x="448" y="-145.92" font-family="Helvetica,sans-Serif" font-size="10.00" fill="grey"> &lt; TurbineSurrogateKernel &gt;</text>
</g>
</g>
</svg>

<g id="navigator" transform="translate(0 0)" fill="#404254">
  <rect fill="#f2f5e9" fill-opacity="0.5" stroke="#606060" stroke-width=".5" x="0" y="0" width="60" height="60"/>
  <use id="zoomplus" xlink:href="#zoomPlus" x="17" y="9" onmousedown="handleZoom(evt,'in')"/>
  <use id="zoomminus" xlink:href="#zoomMin" x="42" y="9" onmousedown="handleZoom(evt,'out')"/>
  <use id="reset" xlink:href="#resetDef" x="30" y="36" onmousedown="handleReset()"/>
   <use id="arrowup" xlink:href="#arrowUp" x="0" y="0" onmousedown="handlePan(0,-1)"/>
  <use id="arrowright" xlink:href="#arrowRight" x="0" y="0" onmousedown="handlePan(1,0)"/>
  <use id="arrowdown" xlink:href="#arrowDown" x="0" y="0" onmousedown="handlePan(0,1)"/>
  <use id="arrowleft" xlink:href="#arrowLeft" x="0" y="0" onmousedown="handlePan(-1,0)"/>
</g>
<svg viewBox="0 0 15 15" width="100%" height="30px" preserveAspectRatio="xMaxYMin meet">
 <g id="arrow_out" transform="scale(0.3 0.3)">
  <a xlink:href="classsierra_1_1nalu_1_1_ngp_motion__inherit__graph_org.svg" target="_base">
   <rect id="button" ry="5" rx="5" y="6" x="6" height="38" width="38"
        fill="#f2f5e9" fill-opacity="0.5" stroke="#606060" stroke-width="1.0"/>
   <path id="arrow"
     d="M 11.500037,31.436501 C 11.940474,20.09759 22.043105,11.32322 32.158766,21.979434 L 37.068811,17.246167 C 37.068811,17.246167 37.088388,32 37.088388,32 L 22.160133,31.978069 C 22.160133,31.978069 26.997745,27.140456 26.997745,27.140456 C 18.528582,18.264221 13.291696,25.230495 11.500037,31.436501 z"
     style="fill:#404040;"/>
  </a>
 </g>
</svg>

<style type='text/css'>
<![CDATA[
[data-mouse-over-selected='false'] { opacity: 0.7; }
[data-mouse-over-selected='true']  { opacity: 1.0; }
]]>
</style>
<script type="application/ecmascript"><![CDATA[
document.addEventListener('DOMContentLoaded', (event) => {
  highlightEdges();
  highlightAdjacentNodes();
});
]]></script>
</svg>
