<?xml version="1.0" encoding="UTF-8" standalone="no"?>
<!DOCTYPE svg PUBLIC "-//W3C//DTD SVG 1.1//EN"
 "http://www.w3.org/Graphics/SVG/1.1/DTD/svg11.dtd">
<!-- Generated by graphviz version 2.43.0 (0)
 -->
<!-- Title: Graphical Class Hierarchy Pages: 1 -->
<svg width="566pt" height="412pt"
 viewBox="0.00 0.00 566.00 411.50" xmlns="http://www.w3.org/2000/svg" xmlns:xlink="http://www.w3.org/1999/xlink">
<g id="graph0" class="graph" transform="scale(1 1) rotate(0) translate(4 407.5)">
<title>Graphical Class Hierarchy</title>
<!-- Node0 -->
<g id="Node000000" class="node">
<title>Node0</title>
<g id="a_Node000000"><a xlink:href="classsierra_1_1nalu_1_1_ngp_motion.html" target="_top" xlink:title=" ">
<polygon fill="white" stroke="#666666" points="131,-206 0,-206 0,-187 131,-187 131,-206"/>
<text text-anchor="middle" x="65.5" y="-194" font-family="Helvetica,sans-Serif" font-size="10.00">sierra::nalu::NgpMotion</text>
</a>
</g>
</g>
<!-- Node1 -->
<g id="Node000001" class="node">
<title>Node1</title>
<g id="a_Node000001"><a xlink:href="classsierra_1_1nalu_1_1_ngp_motion_kernel.html" target="_top" xlink:title=" ">
<polygon fill="white" stroke="#666666" points="358,-403.5 167,-403.5 167,-373.5 358,-373.5 358,-403.5"/>
<text text-anchor="start" x="175" y="-391.5" font-family="Helvetica,sans-Serif" font-size="10.00">sierra::nalu::NgpMotionKernel</text>
<text text-anchor="middle" x="262.5" y="-380.5" font-family="Helvetica,sans-Serif" font-size="10.00">&lt; MotionDeformingInteriorKernel &gt;</text>
</a>
</g>
</g>
<!-- Node0&#45;&gt;Node1 -->
<g id="edge270_Node000000_Node000001" class="edge">
<title>Node0&#45;&gt;Node1</title>
<g id="a_edge270_Node000000_Node000001"><a xlink:title=" ">
<path fill="none" stroke="#63b8ff" d="M72.54,-215.87C84.55,-251.12 114.88,-325.68 167,-364.5 171.62,-367.94 176.67,-370.89 181.97,-373.41"/>
<polygon fill="#63b8ff" stroke="#63b8ff" points="75.83,-214.69 69.39,-206.28 69.18,-216.87 75.83,-214.69"/>
</a>
</g>
</g>
<!-- Node3 -->
<g id="Node000003" class="node">
<title>Node3</title>
<g id="a_Node000003"><a xlink:href="classsierra_1_1nalu_1_1_ngp_motion_kernel.html" target="_top" xlink:title=" ">
<polygon fill="white" stroke="#666666" points="343,-355.5 182,-355.5 182,-325.5 343,-325.5 343,-355.5"/>
<text text-anchor="start" x="190" y="-343.5" font-family="Helvetica,sans-Serif" font-size="10.00">sierra::nalu::NgpMotionKernel</text>
<text text-anchor="middle" x="262.5" y="-332.5" font-family="Helvetica,sans-Serif" font-size="10.00">&lt; MotionOscillationKernel &gt;</text>
</a>
</g>
</g>
<!-- Node0&#45;&gt;Node3 -->
<g id="edge272_Node000000_Node000003" class="edge">
<title>Node0&#45;&gt;Node3</title>
<g id="a_edge272_Node000000_Node000003"><a xlink:title=" ">
<path fill="none" stroke="#63b8ff" d="M76.65,-214.71C92.43,-241.29 125.4,-290.35 167,-316.5 172.45,-319.92 178.36,-322.86 184.48,-325.38"/>
<polygon fill="#63b8ff" stroke="#63b8ff" points="79.67,-212.93 71.63,-206.03 73.61,-216.44 79.67,-212.93"/>
</a>
</g>
</g>
<!-- Node5 -->
<g id="Node000005" class="node">
<title>Node5</title>
<g id="a_Node000005"><a xlink:href="classsierra_1_1nalu_1_1_ngp_motion_kernel.html" target="_top" xlink:title=" ">
<polygon fill="white" stroke="#666666" points="343,-307.5 182,-307.5 182,-277.5 343,-277.5 343,-307.5"/>
<text text-anchor="start" x="190" y="-295.5" font-family="Helvetica,sans-Serif" font-size="10.00">sierra::nalu::NgpMotionKernel</text>
<text text-anchor="middle" x="262.5" y="-284.5" font-family="Helvetica,sans-Serif" font-size="10.00">&lt; MotionPrescribedKernel &gt;</text>
</a>
</g>
</g>
<!-- Node0&#45;&gt;Node5 -->
<g id="edge274_Node000000_Node000005" class="edge">
<title>Node0&#45;&gt;Node5</title>
<g id="a_edge274_Node000000_Node000005"><a xlink:title=" ">
<path fill="none" stroke="#63b8ff" d="M84.75,-212.82C103.93,-229.16 135.64,-253.92 167,-268.5 174.37,-271.93 182.29,-274.91 190.31,-277.5"/>
<polygon fill="#63b8ff" stroke="#63b8ff" points="86.94,-210.09 77.09,-206.18 82.35,-215.38 86.94,-210.09"/>
</a>
</g>
</g>
<!-- Node7 -->
<g id="Node000007" class="node">
<title>Node7</title>
<g id="a_Node000007"><a xlink:href="classsierra_1_1nalu_1_1_ngp_motion_kernel.html" target="_top" xlink:title=" ">
<polygon fill="white" stroke="#666666" points="343,-259.5 182,-259.5 182,-229.5 343,-229.5 343,-259.5"/>
<text text-anchor="start" x="190" y="-247.5" font-family="Helvetica,sans-Serif" font-size="10.00">sierra::nalu::NgpMotionKernel</text>
<text text-anchor="middle" x="262.5" y="-236.5" font-family="Helvetica,sans-Serif" font-size="10.00">&lt; MotionRotationKernel &gt;</text>
</a>
</g>
</g>
<!-- Node0&#45;&gt;Node7 -->
<g id="edge276_Node000000_Node000007" class="edge">
<title>Node0&#45;&gt;Node7</title>
<g id="a_edge276_Node000000_Node000007"><a xlink:title=" ">
<path fill="none" stroke="#63b8ff" d="M115.4,-208.54C141.14,-214.87 172.95,-222.7 200.31,-229.44"/>
<polygon fill="#63b8ff" stroke="#63b8ff" points="116.04,-205.09 105.49,-206.1 114.37,-211.89 116.04,-205.09"/>
</a>
</g>
</g>
<!-- Node9 -->
<g id="Node000009" class="node">
<title>Node9</title>
<g id="a_Node000009"><a xlink:href="classsierra_1_1nalu_1_1_ngp_motion_kernel.html" target="_top" xlink:title=" ">
<polygon fill="white" stroke="#666666" points="343,-211.5 182,-211.5 182,-181.5 343,-181.5 343,-211.5"/>
<text text-anchor="start" x="190" y="-199.5" font-family="Helvetica,sans-Serif" font-size="10.00">sierra::nalu::NgpMotionKernel</text>
<text text-anchor="middle" x="262.5" y="-188.5" font-family="Helvetica,sans-Serif" font-size="10.00">&lt; MotionScalingKernel &gt;</text>
</a>
</g>
</g>
<!-- Node0&#45;&gt;Node9 -->
<g id="edge278_Node000000_Node000009" class="edge">
<title>Node0&#45;&gt;Node9</title>
<g id="a_edge278_Node000000_Node000009"><a xlink:title=" ">
<path fill="none" stroke="#63b8ff" d="M141.18,-196.5C154.45,-196.5 168.32,-196.5 181.73,-196.5"/>
<polygon fill="#63b8ff" stroke="#63b8ff" points="141.16,-193 131.16,-196.5 141.16,-200 141.16,-193"/>
</a>
</g>
</g>
<!-- Node11 -->
<g id="Node000011" class="node">
<title>Node11</title>
<g id="a_Node000011"><a xlink:href="classsierra_1_1nalu_1_1_ngp_motion_kernel.html" target="_top" xlink:title=" ">
<polygon fill="white" stroke="#666666" points="343,-163.5 182,-163.5 182,-133.5 343,-133.5 343,-163.5"/>
<text text-anchor="start" x="190" y="-151.5" font-family="Helvetica,sans-Serif" font-size="10.00">sierra::nalu::NgpMotionKernel</text>
<text text-anchor="middle" x="262.5" y="-140.5" font-family="Helvetica,sans-Serif" font-size="10.00">&lt; MotionTranslationKernel &gt;</text>
</a>
</g>
</g>
<!-- Node0&#45;&gt;Node11 -->
<g id="edge280_Node000000_Node000011" class="edge">
<title>Node0&#45;&gt;Node11</title>
<g id="a_edge280_Node000000_Node000011"><a xlink:title=" ">
<path fill="none" stroke="#63b8ff" d="M115.4,-184.46C141.14,-178.13 172.95,-170.3 200.31,-163.56"/>
<polygon fill="#63b8ff" stroke="#63b8ff" points="114.37,-181.11 105.49,-186.9 116.04,-187.91 114.37,-181.11"/>
</a>
</g>
</g>
<!-- Node13 -->
<g id="Node000013" class="node">
<title>Node13</title>
<g id="a_Node000013"><a xlink:href="classsierra_1_1nalu_1_1_ngp_motion_kernel.html" target="_top" xlink:title=" ">
<polygon fill="white" stroke="#666666" points="343,-115.5 182,-115.5 182,-85.5 343,-85.5 343,-115.5"/>
<text text-anchor="start" x="190" y="-103.5" font-family="Helvetica,sans-Serif" font-size="10.00">sierra::nalu::NgpMotionKernel</text>
<text text-anchor="middle" x="262.5" y="-92.5" font-family="Helvetica,sans-Serif" font-size="10.00">&lt; MotionWavesKernel &gt;</text>
</a>
</g>
</g>
<!-- Node0&#45;&gt;Node13 -->
<g id="edge282_Node000000_Node000013" class="edge">
<title>Node0&#45;&gt;Node13</title>
<g id="a_edge282_Node000000_Node000013"><a xlink:title=" ">
<path fill="none" stroke="#63b8ff" d="M84.75,-180.18C103.93,-163.84 135.64,-139.08 167,-124.5 174.37,-121.07 182.29,-118.09 190.31,-115.5"/>
<polygon fill="#63b8ff" stroke="#63b8ff" points="82.35,-177.62 77.09,-186.82 86.94,-182.91 82.35,-177.62"/>
</a>
</g>
</g>
<!-- Node15 -->
<g id="Node000015" class="node">
<title>Node15</title>
<g id="a_Node000015"><a xlink:href="classsierra_1_1nalu_1_1_ngp_motion_kernel.html" target="_top" xlink:title=" ">
<polygon fill="white" stroke="#666666" points="343,-67.5 182,-67.5 182,-37.5 343,-37.5 343,-67.5"/>
<text text-anchor="start" x="190" y="-55.5" font-family="Helvetica,sans-Serif" font-size="10.00">sierra::nalu::NgpMotionKernel</text>
<text text-anchor="middle" x="262.5" y="-44.5" font-family="Helvetica,sans-Serif" font-size="10.00">&lt; TurbineSurrogateKernel &gt;</text>
</a>
</g>
</g>
<!-- Node0&#45;&gt;Node15 -->
<g id="edge284_Node000000_Node000015" class="edge">
<title>Node0&#45;&gt;Node15</title>
<g id="a_edge284_Node000000_Node000015"><a xlink:title=" ">
<path fill="none" stroke="#63b8ff" d="M76.65,-178.29C92.43,-151.71 125.4,-102.65 167,-76.5 172.45,-73.08 178.36,-70.14 184.48,-67.62"/>
<polygon fill="#63b8ff" stroke="#63b8ff" points="73.61,-176.56 71.63,-186.97 79.67,-180.07 73.61,-176.56"/>
</a>
</g>
</g>
<!-- Node17 -->
<g id="Node000017" class="node">
<title>Node17</title>
<g id="a_Node000017"><a xlink:href="classsierra_1_1nalu_1_1_ngp_motion_kernel.html" target="_top" xlink:title=" ">
<polygon fill="white" stroke="#666666" points="357.5,-19 167.5,-19 167.5,0 357.5,0 357.5,-19"/>
<text text-anchor="middle" x="262.5" y="-7" font-family="Helvetica,sans-Serif" font-size="10.00">sierra::nalu::NgpMotionKernel&lt; T &gt;</text>
</a>
</g>
</g>
<!-- Node0&#45;&gt;Node17 -->
<g id="edge286_Node000000_Node000017" class="edge">
<title>Node0&#45;&gt;Node17</title>
<g id="a_edge286_Node000000_Node000017"><a xlink:title=" ">
<path fill="none" stroke="#63b8ff" d="M72.35,-176.87C84.06,-141.21 113.92,-66 167,-28.5 172.47,-24.64 178.53,-21.52 184.88,-19"/>
<polygon fill="#63b8ff" stroke="#63b8ff" points="68.96,-176 69.29,-186.59 75.64,-178.1 68.96,-176"/>
</a>
</g>
</g>
<!-- Node2 -->
<g id="Node000002" class="node">
<title>Node2</title>
<g id="a_Node000002"><a xlink:href="classsierra_1_1nalu_1_1_motion_deforming_interior_kernel.html" target="_top" xlink:title=" ">
<polygon fill="white" stroke="#666666" points="557.5,-403.5 394.5,-403.5 394.5,-373.5 557.5,-373.5 557.5,-403.5"/>
<text text-anchor="start" x="402.5" y="-391.5" font-family="Helvetica,sans-Serif" font-size="10.00">sierra::nalu::MotionDeforming</text>
<text text-anchor="middle" x="476" y="-380.5" font-family="Helvetica,sans-Serif" font-size="10.00">InteriorKernel</text>
</a>
</g>
</g>
<!-- Node1&#45;&gt;Node2 -->
<g id="edge271_Node000001_Node000002" class="edge">
<title>Node1&#45;&gt;Node2</title>
<g id="a_edge271_Node000001_Node000002"><a xlink:title=" ">
<path fill="none" stroke="#63b8ff" d="M368.36,-388.5C377.09,-388.5 385.84,-388.5 394.36,-388.5"/>
<polygon fill="#63b8ff" stroke="#63b8ff" points="368.12,-385 358.12,-388.5 368.12,-392 368.12,-385"/>
</a>
</g>
</g>
<!-- Node4 -->
<g id="Node000004" class="node">
<title>Node4</title>
<g id="a_Node000004"><a xlink:href="classsierra_1_1nalu_1_1_motion_oscillation_kernel.html" target="_top" xlink:title=" ">
<polygon fill="white" stroke="#666666" points="557.5,-355.5 394.5,-355.5 394.5,-325.5 557.5,-325.5 557.5,-355.5"/>
<text text-anchor="start" x="402.5" y="-343.5" font-family="Helvetica,sans-Serif" font-size="10.00">sierra::nalu::MotionOscillation</text>
<text text-anchor="middle" x="476" y="-332.5" font-family="Helvetica,sans-Serif" font-size="10.00">Kernel</text>
</a>
</g>
</g>
<!-- Node3&#45;&gt;Node4 -->
<g id="edge273_Node000003_Node000004" class="edge">
<title>Node3&#45;&gt;Node4</title>
<g id="a_edge273_Node000003_Node000004"><a xlink:title=" ">
<path fill="none" stroke="#63b8ff" d="M353.46,-340.5C367.05,-340.5 380.99,-340.5 394.36,-340.5"/>
<polygon fill="#63b8ff" stroke="#63b8ff" points="353.16,-337 343.16,-340.5 353.16,-344 353.16,-337"/>
</a>
</g>
</g>
<!-- Node6 -->
<g id="Node000006" class="node">
<title>Node6</title>
<g id="a_Node000006"><a xlink:href="classsierra_1_1nalu_1_1_motion_prescribed_kernel.html" target="_top" xlink:title=" ">
<polygon fill="white" stroke="#666666" points="557,-307.5 395,-307.5 395,-277.5 557,-277.5 557,-307.5"/>
<text text-anchor="start" x="403" y="-295.5" font-family="Helvetica,sans-Serif" font-size="10.00">sierra::nalu::MotionPrescribed</text>
<text text-anchor="middle" x="476" y="-284.5" font-family="Helvetica,sans-Serif" font-size="10.00">Kernel</text>
</a>
</g>
</g>
<!-- Node5&#45;&gt;Node6 -->
<g id="edge275_Node000005_Node000006" class="edge">
<title>Node5&#45;&gt;Node6</title>
<g id="a_edge275_Node000005_Node000006"><a xlink:title=" ">
<path fill="none" stroke="#63b8ff" d="M353.53,-292.5C367.22,-292.5 381.26,-292.5 394.71,-292.5"/>
<polygon fill="#63b8ff" stroke="#63b8ff" points="353.16,-289 343.16,-292.5 353.16,-296 353.16,-289"/>
</a>
</g>
</g>
<!-- Node8 -->
<g id="Node000008" class="node">
<title>Node8</title>
<g id="a_Node000008"><a xlink:href="classsierra_1_1nalu_1_1_motion_rotation_kernel.html" target="_top" xlink:title=" ">
<polygon fill="white" stroke="#666666" points="552,-259.5 400,-259.5 400,-229.5 552,-229.5 552,-259.5"/>
<text text-anchor="start" x="408" y="-247.5" font-family="Helvetica,sans-Serif" font-size="10.00">sierra::nalu::MotionRotation</text>
<text text-anchor="middle" x="476" y="-236.5" font-family="Helvetica,sans-Serif" font-size="10.00">Kernel</text>
</a>
</g>
</g>
<!-- Node7&#45;&gt;Node8 -->
<g id="edge277_Node000007_Node000008" class="edge">
<title>Node7&#45;&gt;Node8</title>
<g id="a_edge277_Node000007_Node000008"><a xlink:title=" ">
<path fill="none" stroke="#63b8ff" d="M353.29,-244.5C368.84,-244.5 384.85,-244.5 399.96,-244.5"/>
<polygon fill="#63b8ff" stroke="#63b8ff" points="353.16,-241 343.16,-244.5 353.16,-248 353.16,-241"/>
</a>
</g>
</g>
<!-- Node10 -->
<g id="Node000010" class="node">
<title>Node10</title>
<g id="a_Node000010"><a xlink:href="classsierra_1_1nalu_1_1_motion_scaling_kernel.html" target="_top" xlink:title=" ">
<polygon fill="white" stroke="#666666" points="549,-211.5 403,-211.5 403,-181.5 549,-181.5 549,-211.5"/>
<text text-anchor="start" x="411" y="-199.5" font-family="Helvetica,sans-Serif" font-size="10.00">sierra::nalu::MotionScaling</text>
<text text-anchor="middle" x="476" y="-188.5" font-family="Helvetica,sans-Serif" font-size="10.00">Kernel</text>
</a>
</g>
</g>
<!-- Node9&#45;&gt;Node10 -->
<g id="edge279_Node000009_Node000010" class="edge">
<title>Node9&#45;&gt;Node10</title>
<g id="a_edge279_Node000009_Node000010"><a xlink:title=" ">
<path fill="none" stroke="#63b8ff" d="M353.34,-196.5C369.82,-196.5 386.84,-196.5 402.72,-196.5"/>
<polygon fill="#63b8ff" stroke="#63b8ff" points="353.16,-193 343.16,-196.5 353.16,-200 353.16,-193"/>
</a>
</g>
</g>
<!-- Node12 -->
<g id="Node000012" class="node">
<title>Node12</title>
<g id="a_Node000012"><a xlink:href="classsierra_1_1nalu_1_1_motion_translation_kernel.html" target="_top" xlink:title=" ">
<polygon fill="white" stroke="#666666" points="558,-163.5 394,-163.5 394,-133.5 558,-133.5 558,-163.5"/>
<text text-anchor="start" x="402" y="-151.5" font-family="Helvetica,sans-Serif" font-size="10.00">sierra::nalu::MotionTranslation</text>
<text text-anchor="middle" x="476" y="-140.5" font-family="Helvetica,sans-Serif" font-size="10.00">Kernel</text>
</a>
</g>
</g>
<!-- Node11&#45;&gt;Node12 -->
<g id="edge281_Node000011_Node000012" class="edge">
<title>Node11&#45;&gt;Node12</title>
<g id="a_edge281_Node000011_Node000012"><a xlink:title=" ">
<path fill="none" stroke="#63b8ff" d="M353.32,-148.5C366.71,-148.5 380.45,-148.5 393.65,-148.5"/>
<polygon fill="#63b8ff" stroke="#63b8ff" points="353.16,-145 343.16,-148.5 353.16,-152 353.16,-145"/>
</a>
</g>
</g>
<!-- Node14 -->
<g id="Node000014" class="node">
<title>Node14</title>
<g id="a_Node000014"><a xlink:href="classsierra_1_1nalu_1_1_motion_waves_kernel.html" target="_top" xlink:title=" ">
<polygon fill="white" stroke="#666666" points="547.5,-115.5 404.5,-115.5 404.5,-85.5 547.5,-85.5 547.5,-115.5"/>
<text text-anchor="start" x="412.5" y="-103.5" font-family="Helvetica,sans-Serif" font-size="10.00">sierra::nalu::MotionWaves</text>
<text text-anchor="middle" x="476" y="-92.5" font-family="Helvetica,sans-Serif" font-size="10.00">Kernel</text>
</a>
</g>
</g>
<!-- Node13&#45;&gt;Node14 -->
<g id="edge283_Node000013_Node000014" class="edge">
<title>Node13&#45;&gt;Node14</title>
<g id="a_edge283_Node000013_Node000014"><a xlink:title=" ">
<path fill="none" stroke="#63b8ff" d="M353.17,-100.5C370.3,-100.5 388.01,-100.5 404.44,-100.5"/>
<polygon fill="#63b8ff" stroke="#63b8ff" points="353.16,-97 343.16,-100.5 353.16,-104 353.16,-97"/>
</a>
</g>
</g>
<!-- Node16 -->
<g id="Node000016" class="node">
<title>Node16</title>
<g id="a_Node000016"><a xlink:href="classsierra_1_1nalu_1_1_turbine_surrogate_kernel.html" target="_top" xlink:title=" ">
<polygon fill="white" stroke="#666666" points="556,-67.5 396,-67.5 396,-37.5 556,-37.5 556,-67.5"/>
<text text-anchor="start" x="404" y="-55.5" font-family="Helvetica,sans-Serif" font-size="10.00">sierra::nalu::TurbineSurrogate</text>
<text text-anchor="middle" x="476" y="-44.5" font-family="Helvetica,sans-Serif" font-size="10.00">Kernel</text>
</a>
</g>
</g>
<!-- Node15&#45;&gt;Node16 -->
<g id="edge285_Node000015_Node000016" class="edge">
<title>Node15&#45;&gt;Node16</title>
<g id="a_edge285_Node000015_Node000016"><a xlink:title=" ">
<path fill="none" stroke="#63b8ff" d="M353.34,-52.5C367.44,-52.5 381.93,-52.5 395.77,-52.5"/>
<polygon fill="#63b8ff" stroke="#63b8ff" points="353.16,-49 343.16,-52.5 353.16,-56 353.16,-49"/>
</a>
</g>
</g>
</g>
</svg>
